<svg width="123" height="14" viewBox="0 0 123 14" fill="none" xmlns="http://www.w3.org/2000/svg">
<g opacity="0.25">
<path d="M0 7L100 6.99999" stroke="#0A0A0D"/>
<path d="M116.591 14C119.487 14 121.69 11.6168 122.524 9.35929C122.972 8.18709 123.107 6.91364 122.915 5.67018C122.723 4.42672 122.211 3.25823 121.432 2.28504C119.972 0.54949 117.689 -0.230274 115.014 0.0589845C111.946 0.398549 109.854 2.53655 108.958 3.44835C108.657 3.76276 108.345 4.14636 107.995 4.56767C106.467 6.45413 104.737 8.57327 101.473 7.08296C101.131 6.88093 100.845 6.59422 100.641 6.24918C100.436 5.90415 100.319 5.51187 100.301 5.10845C100.309 4.64612 100.47 4.20032 100.758 3.84397C101.045 3.48762 101.442 3.24177 101.884 3.14652C102.267 3.11353 102.65 3.19746 102.987 3.3877C103.323 3.57795 103.597 3.86596 103.774 4.21549C103.807 4.30378 103.858 4.38381 103.924 4.45022C103.99 4.51663 104.069 4.56793 104.155 4.60067C104.242 4.63342 104.334 4.64686 104.426 4.64013C104.519 4.6334 104.608 4.60661 104.69 4.5616C104.771 4.51659 104.842 4.45437 104.898 4.37907C104.954 4.30376 104.993 4.21715 105.014 4.12491C105.035 4.03268 105.036 3.93693 105.018 3.84412C105 3.75132 104.963 3.66357 104.909 3.58667C104.606 3.00486 104.14 2.52889 103.572 2.21972C103.004 1.91054 102.358 1.78221 101.718 1.85111C100.97 1.986 100.29 2.38229 99.7947 2.97266C99.2992 3.56303 99.0183 4.31106 99 5.08956C99.0092 5.75965 99.1964 6.41453 99.5412 6.98393C99.886 7.55335 100.376 8.01582 100.957 8.32172C105.105 10.1705 107.443 7.30302 108.995 5.41027C109.308 5.02669 109.609 4.66825 109.879 4.37899C110.744 3.49864 112.541 1.65617 115.155 1.36691C117.395 1.12167 119.278 1.75053 120.45 3.14023C121.076 3.93244 121.486 4.8809 121.637 5.88856C121.788 6.89622 121.675 7.92689 121.309 8.87508C120.597 10.8056 118.689 12.7235 116.468 12.648C115.278 12.6103 113.314 11.9563 112.787 10.2962C112.631 9.77939 112.605 9.23059 112.711 8.70068C112.817 8.17078 113.052 7.6769 113.394 7.26488C113.736 6.85286 114.174 6.53597 114.668 6.34368C115.161 6.15138 115.694 6.08987 116.217 6.16482C116.305 6.1785 116.394 6.17243 116.48 6.14702C116.565 6.1216 116.644 6.07749 116.711 6.01767C116.778 5.95786 116.832 5.88376 116.868 5.80059C116.905 5.71743 116.923 5.62715 116.922 5.536C116.93 5.44724 116.92 5.35784 116.893 5.27317C116.866 5.18851 116.822 5.11033 116.765 5.04335C116.707 4.97638 116.637 4.922 116.559 4.88346C116.481 4.84492 116.396 4.82304 116.309 4.81913C115.473 4.73122 114.63 4.88138 113.872 5.25306C113.114 5.62474 112.471 6.20358 112.014 6.92575C111.682 7.48584 111.47 8.11175 111.391 8.76217C111.313 9.41259 111.37 10.0727 111.56 10.6987C112.265 12.8555 114.591 13.8931 116.468 13.9496L116.591 14Z" fill="#0A0A0D"/>
</g>
</svg>
