<svg width="1920" height="1080" viewBox="0 0 1920 1080" fill="none" xmlns="http://www.w3.org/2000/svg">
<g clip-path="url(#clip0_1084_39)">
<rect width="1920" height="1080" fill="white"/>
<g filter="url(#filter0_f_1084_39)">
<path d="M1046.33 -312.931C939.589 -282.133 856.121 -200.617 822.977 -101.168C790.783 -4.57066 822.071 97.3503 881.362 182.074C940.069 265.966 1027.03 335.437 1134.16 343.5C1238.98 351.393 1330.23 291.355 1403.89 221.414C1477.64 151.393 1542.81 64.9607 1530.08 -32.4325C1517.34 -129.919 1431.65 -199.075 1342.17 -250.956C1251.88 -303.312 1147.92 -342.238 1046.33 -312.931Z" fill="url(#paint0_linear_1084_39)"/>
</g>
<g filter="url(#filter1_f_1084_39)">
<path opacity="0.6" d="M729.358 -199.059C616.832 -168.932 511.916 -92.3596 482.283 -2.87376C455.177 78.9975 537.884 143.237 594.816 207.273C633.636 250.944 668 309.5 729.358 342.5C790.715 375.5 859.238 388.196 924 378C1024.8 362.134 1160.12 289.13 1227.93 224.547C1300.58 155.347 1296.39 54.2923 1256.34 -20.4676C1218.16 -91.7487 1118.34 -118.287 1027.86 -148.952C932.435 -181.288 835.64 -227.516 729.358 -199.059Z" fill="url(#paint1_linear_1084_39)"/>
</g>
</g>
<defs>
<filter id="filter0_f_1084_39" x="586.082" y="-547" width="1169.6" height="1115.2" filterUnits="userSpaceOnUse" color-interpolation-filters="sRGB">
<feFlood flood-opacity="0" result="BackgroundImageFix"/>
<feBlend mode="normal" in="SourceGraphic" in2="BackgroundImageFix" result="shape"/>
<feGaussianBlur stdDeviation="112" result="effect1_foregroundBlur_1084_39"/>
</filter>
<filter id="filter1_f_1084_39" x="176.975" y="-507.94" width="1407.92" height="1189.37" filterUnits="userSpaceOnUse" color-interpolation-filters="sRGB">
<feFlood flood-opacity="0" result="BackgroundImageFix"/>
<feBlend mode="normal" in="SourceGraphic" in2="BackgroundImageFix" result="shape"/>
<feGaussianBlur stdDeviation="150" result="effect1_foregroundBlur_1084_39"/>
</filter>
<linearGradient id="paint0_linear_1084_39" x1="1030.69" y1="-87.5176" x2="1853.75" y2="138.368" gradientUnits="userSpaceOnUse">
<stop stop-color="#FFCD1B"/>
<stop offset="1" stop-color="#FFE8C7"/>
</linearGradient>
<linearGradient id="paint1_linear_1084_39" x1="565.91" y1="77.8522" x2="1117.35" y2="31.4558" gradientUnits="userSpaceOnUse">
<stop stop-color="#24FF00"/>
<stop offset="1" stop-color="white"/>
</linearGradient>
<clipPath id="clip0_1084_39">
<rect width="1920" height="1080" fill="white"/>
</clipPath>
</defs>
</svg>
