<svg width="1920" height="1080" viewBox="0 0 1920 1080" fill="none" xmlns="http://www.w3.org/2000/svg" opacity="0.7">
<g clip-path="url(#clip0_1084_39)">
<g filter="url(#filter0_f_1084_39)">
<path d="M842.902 344.722C955.428 314.595 1060.34 238.023 1089.98 148.537C1117.08 66.6655 1034.38 2.42562 977.443 -61.6104C938.623 -105.281 904.259 -163.837 842.902 -196.837C781.544 -229.837 713.021 -242.533 648.259 -232.337C547.458 -216.471 412.136 -143.467 344.331 -78.8844C271.683 -9.68414 275.869 91.3707 315.916 166.131C354.099 237.412 453.915 263.95 544.401 294.615C639.825 326.951 736.619 373.179 842.902 344.722Z" fill="url(#paint0_linear_1084_39)"/>
</g>
<g opacity="0.7" filter="url(#filter1_f_1084_39)">
<path d="M1290.9 344.722C1403.43 314.595 1508.34 238.023 1537.98 148.537C1565.08 66.6655 1482.37 2.42562 1425.44 -61.6104C1386.62 -105.281 1352.26 -163.837 1290.9 -196.837C1229.54 -229.837 1161.02 -242.533 1096.26 -232.337C995.458 -216.471 860.136 -143.467 792.331 -78.8844C719.683 -9.68414 723.869 91.3707 763.915 166.131C802.099 237.412 901.915 263.95 992.401 294.615C1087.82 326.951 1184.62 373.179 1290.9 344.722Z" fill="url(#paint1_linear_1084_39)"/>
</g>
</g>
<defs>
<filter id="filter0_f_1084_39" x="-12.6318" y="-535.772" width="1407.92" height="1189.37" filterUnits="userSpaceOnUse" color-interpolation-filters="sRGB">
<feFlood flood-opacity="0" result="BackgroundImageFix"/>
<feBlend mode="normal" in="SourceGraphic" in2="BackgroundImageFix" result="shape"/>
<feGaussianBlur stdDeviation="150" result="effect1_foregroundBlur_1084_39"/>
</filter>
<filter id="filter1_f_1084_39" x="435.368" y="-535.772" width="1407.92" height="1189.37" filterUnits="userSpaceOnUse" color-interpolation-filters="sRGB">
<feFlood flood-opacity="0" result="BackgroundImageFix"/>
<feBlend mode="normal" in="SourceGraphic" in2="BackgroundImageFix" result="shape"/>
<feGaussianBlur stdDeviation="150" result="effect1_foregroundBlur_1084_39"/>
</filter>
<linearGradient id="paint0_linear_1084_39" x1="865.271" y1="79.3178" x2="220.064" y2="44.6468" gradientUnits="userSpaceOnUse">
<stop stop-color="#46FF87"/>
<stop offset="1" stop-color="white" stop-opacity="0"/>
</linearGradient>
<linearGradient id="paint1_linear_1084_39" x1="1313.27" y1="79.3178" x2="668.064" y2="44.6468" gradientUnits="userSpaceOnUse">
<stop offset="0.52" stop-color="#FFCD1B"/>
<stop offset="1" stop-color="white" stop-opacity="0"/>
</linearGradient>
<clipPath id="clip0_1084_39">
<rect width="1920" height="1080" fill="white"/>
</clipPath>
</defs>
</svg>
