<svg width="340" height="160" viewBox="0 0 340 160" fill="none" xmlns="http://www.w3.org/2000/svg">
<rect width="340" height="160" fill="white"/>
<path d="M120.121 46V34.3636H127.825V36.392H122.581V39.1648H127.314V41.1932H122.581V46H120.121ZM132.737 46.1705C131.855 46.1705 131.091 45.983 130.447 45.608C129.807 45.2292 129.313 44.7027 128.964 44.0284C128.616 43.3504 128.442 42.5644 128.442 41.6705C128.442 40.7689 128.616 39.9811 128.964 39.3068C129.313 38.6288 129.807 38.1023 130.447 37.7273C131.091 37.3485 131.855 37.1591 132.737 37.1591C133.62 37.1591 134.381 37.3485 135.021 37.7273C135.665 38.1023 136.161 38.6288 136.51 39.3068C136.858 39.9811 137.033 40.7689 137.033 41.6705C137.033 42.5644 136.858 43.3504 136.51 44.0284C136.161 44.7027 135.665 45.2292 135.021 45.608C134.381 45.983 133.62 46.1705 132.737 46.1705ZM132.749 44.2955C133.15 44.2955 133.485 44.1818 133.754 43.9545C134.023 43.7235 134.226 43.4091 134.362 43.0114C134.502 42.6136 134.572 42.161 134.572 41.6534C134.572 41.1458 134.502 40.6932 134.362 40.2955C134.226 39.8977 134.023 39.5833 133.754 39.3523C133.485 39.1212 133.15 39.0057 132.749 39.0057C132.343 39.0057 132.002 39.1212 131.726 39.3523C131.453 39.5833 131.247 39.8977 131.107 40.2955C130.97 40.6932 130.902 41.1458 130.902 41.6534C130.902 42.161 130.97 42.6136 131.107 43.0114C131.247 43.4091 131.453 43.7235 131.726 43.9545C132.002 44.1818 132.343 44.2955 132.749 44.2955ZM141.027 34.3636V46H138.607V34.3636H141.027ZM145.386 34.3636V46H142.966V34.3636H145.386ZM151.268 46.1705C150.386 46.1705 149.623 45.983 148.979 45.608C148.339 45.2292 147.844 44.7027 147.496 44.0284C147.147 43.3504 146.973 42.5644 146.973 41.6705C146.973 40.7689 147.147 39.9811 147.496 39.3068C147.844 38.6288 148.339 38.1023 148.979 37.7273C149.623 37.3485 150.386 37.1591 151.268 37.1591C152.151 37.1591 152.912 37.3485 153.553 37.7273C154.196 38.1023 154.693 38.6288 155.041 39.3068C155.39 39.9811 155.564 40.7689 155.564 41.6705C155.564 42.5644 155.39 43.3504 155.041 44.0284C154.693 44.7027 154.196 45.2292 153.553 45.608C152.912 45.983 152.151 46.1705 151.268 46.1705ZM151.28 44.2955C151.681 44.2955 152.017 44.1818 152.286 43.9545C152.554 43.7235 152.757 43.4091 152.893 43.0114C153.034 42.6136 153.104 42.161 153.104 41.6534C153.104 41.1458 153.034 40.6932 152.893 40.2955C152.757 39.8977 152.554 39.5833 152.286 39.3523C152.017 39.1212 151.681 39.0057 151.28 39.0057C150.875 39.0057 150.534 39.1212 150.257 39.3523C149.984 39.5833 149.778 39.8977 149.638 40.2955C149.501 40.6932 149.433 41.1458 149.433 41.6534C149.433 42.161 149.501 42.6136 149.638 43.0114C149.778 43.4091 149.984 43.7235 150.257 43.9545C150.534 44.1818 150.875 44.2955 151.28 44.2955ZM158.641 46L156.266 37.2727H158.714L160.067 43.1364H160.146L161.555 37.2727H163.959L165.391 43.1023H165.464L166.794 37.2727H169.237L166.868 46H164.305L162.805 40.5114H162.697L161.197 46H158.641ZM174.232 46V37.2727H176.538V38.8125H176.641C176.822 38.3011 177.125 37.8977 177.55 37.6023C177.974 37.3068 178.482 37.1591 179.072 37.1591C179.671 37.1591 180.18 37.3087 180.601 37.608C181.021 37.9034 181.302 38.3049 181.442 38.8125H181.533C181.711 38.3125 182.033 37.9129 182.499 37.6136C182.968 37.3106 183.523 37.1591 184.163 37.1591C184.978 37.1591 185.639 37.4186 186.146 37.9375C186.658 38.4527 186.913 39.1837 186.913 40.1307V46H184.499V40.608C184.499 40.1231 184.37 39.7595 184.112 39.517C183.855 39.2746 183.533 39.1534 183.146 39.1534C182.707 39.1534 182.364 39.2936 182.118 39.5739C181.872 39.8504 181.749 40.2159 181.749 40.6705V46H179.402V40.5568C179.402 40.1288 179.279 39.7879 179.033 39.5341C178.79 39.2803 178.47 39.1534 178.072 39.1534C177.804 39.1534 177.561 39.2216 177.345 39.358C177.133 39.4905 176.964 39.678 176.839 39.9205C176.714 40.1591 176.652 40.4394 176.652 40.7614V46H174.232ZM192.803 46.1705C191.905 46.1705 191.132 45.9886 190.484 45.625C189.84 45.2576 189.344 44.7386 188.996 44.0682C188.647 43.3939 188.473 42.5966 188.473 41.6761C188.473 40.7784 188.647 39.9905 188.996 39.3125C189.344 38.6345 189.835 38.1061 190.467 37.7273C191.104 37.3485 191.85 37.1591 192.706 37.1591C193.282 37.1591 193.818 37.2519 194.314 37.4375C194.814 37.6193 195.25 37.8939 195.621 38.2614C195.996 38.6288 196.287 39.0909 196.496 39.6477C196.704 40.2008 196.808 40.8485 196.808 41.5909V42.2557H189.439V40.7557H194.53C194.53 40.4072 194.454 40.0985 194.303 39.8295C194.151 39.5606 193.941 39.3504 193.672 39.1989C193.407 39.0436 193.098 38.9659 192.746 38.9659C192.378 38.9659 192.053 39.0511 191.768 39.2216C191.488 39.3883 191.268 39.6136 191.109 39.8977C190.95 40.178 190.869 40.4905 190.865 40.8352V42.2614C190.865 42.6932 190.945 43.0663 191.104 43.3807C191.267 43.6951 191.496 43.9375 191.791 44.108C192.087 44.2784 192.437 44.3636 192.842 44.3636C193.111 44.3636 193.357 44.3258 193.581 44.25C193.804 44.1742 193.996 44.0606 194.155 43.9091C194.314 43.7576 194.435 43.572 194.518 43.3523L196.757 43.5C196.643 44.0379 196.411 44.5076 196.058 44.9091C195.71 45.3068 195.259 45.6174 194.706 45.8409C194.157 46.0606 193.522 46.1705 192.803 46.1705ZM206.034 46.1705C205.152 46.1705 204.388 45.983 203.744 45.608C203.104 45.2292 202.61 44.7027 202.261 44.0284C201.913 43.3504 201.739 42.5644 201.739 41.6705C201.739 40.7689 201.913 39.9811 202.261 39.3068C202.61 38.6288 203.104 38.1023 203.744 37.7273C204.388 37.3485 205.152 37.1591 206.034 37.1591C206.917 37.1591 207.678 37.3485 208.318 37.7273C208.962 38.1023 209.458 38.6288 209.807 39.3068C210.155 39.9811 210.33 40.7689 210.33 41.6705C210.33 42.5644 210.155 43.3504 209.807 44.0284C209.458 44.7027 208.962 45.2292 208.318 45.608C207.678 45.983 206.917 46.1705 206.034 46.1705ZM206.045 44.2955C206.447 44.2955 206.782 44.1818 207.051 43.9545C207.32 43.7235 207.523 43.4091 207.659 43.0114C207.799 42.6136 207.869 42.161 207.869 41.6534C207.869 41.1458 207.799 40.6932 207.659 40.2955C207.523 39.8977 207.32 39.5833 207.051 39.3523C206.782 39.1212 206.447 39.0057 206.045 39.0057C205.64 39.0057 205.299 39.1212 205.023 39.3523C204.75 39.5833 204.544 39.8977 204.403 40.2955C204.267 40.6932 204.199 41.1458 204.199 41.6534C204.199 42.161 204.267 42.6136 204.403 43.0114C204.544 43.4091 204.75 43.7235 205.023 43.9545C205.299 44.1818 205.64 44.2955 206.045 44.2955ZM214.324 40.9545V46H211.903V37.2727H214.21V38.8125H214.312C214.506 38.3049 214.83 37.9034 215.284 37.608C215.739 37.3087 216.29 37.1591 216.938 37.1591C217.544 37.1591 218.072 37.2917 218.523 37.5568C218.973 37.822 219.324 38.2008 219.574 38.6932C219.824 39.1818 219.949 39.7652 219.949 40.4432V46H217.528V40.875C217.532 40.3409 217.396 39.9242 217.119 39.625C216.843 39.322 216.462 39.1705 215.977 39.1705C215.652 39.1705 215.364 39.2405 215.114 39.3807C214.867 39.5208 214.674 39.7254 214.534 39.9943C214.398 40.2595 214.328 40.5795 214.324 40.9545ZM127.621 56.7102C127.575 56.2519 127.38 55.8958 127.036 55.642C126.691 55.3883 126.223 55.2614 125.632 55.2614C125.231 55.2614 124.892 55.3182 124.615 55.4318C124.339 55.5417 124.126 55.6951 123.979 55.892C123.835 56.089 123.763 56.3125 123.763 56.5625C123.755 56.7708 123.799 56.9527 123.893 57.108C123.992 57.2633 124.126 57.3977 124.297 57.5114C124.467 57.6212 124.664 57.7178 124.888 57.8011C125.111 57.8807 125.35 57.9489 125.604 58.0057L126.649 58.2557C127.157 58.3693 127.623 58.5208 128.047 58.7102C128.471 58.8996 128.839 59.1326 129.149 59.4091C129.46 59.6856 129.7 60.0114 129.871 60.3864C130.045 60.7614 130.134 61.1913 130.138 61.6761C130.134 62.3883 129.952 63.0057 129.592 63.5284C129.236 64.0473 128.721 64.4508 128.047 64.7386C127.376 65.0227 126.568 65.1648 125.621 65.1648C124.681 65.1648 123.863 65.0208 123.166 64.733C122.473 64.4451 121.931 64.0189 121.541 63.4545C121.155 62.8864 120.952 62.1837 120.933 61.3466H123.314C123.34 61.7367 123.452 62.0625 123.649 62.3239C123.85 62.5814 124.117 62.7765 124.45 62.9091C124.787 63.0379 125.168 63.1023 125.592 63.1023C126.009 63.1023 126.371 63.0417 126.678 62.9205C126.988 62.7992 127.229 62.6307 127.399 62.4148C127.57 62.1989 127.655 61.9508 127.655 61.6705C127.655 61.4091 127.577 61.1894 127.422 61.0114C127.27 60.8333 127.047 60.6818 126.751 60.5568C126.46 60.4318 126.102 60.3182 125.678 60.2159L124.411 59.8977C123.429 59.6591 122.655 59.286 122.087 58.7784C121.518 58.2708 121.236 57.5871 121.24 56.7273C121.236 56.0227 121.424 55.4072 121.803 54.8807C122.185 54.3542 122.71 53.9432 123.376 53.6477C124.043 53.3523 124.801 53.2045 125.649 53.2045C126.513 53.2045 127.267 53.3523 127.911 53.6477C128.558 53.9432 129.062 54.3542 129.422 54.8807C129.782 55.4072 129.967 56.017 129.979 56.7102H127.621ZM135.69 65.1705C134.808 65.1705 134.045 64.983 133.401 64.608C132.76 64.2292 132.266 63.7027 131.918 63.0284C131.569 62.3504 131.395 61.5644 131.395 60.6705C131.395 59.7689 131.569 58.9811 131.918 58.3068C132.266 57.6288 132.76 57.1023 133.401 56.7273C134.045 56.3485 134.808 56.1591 135.69 56.1591C136.573 56.1591 137.334 56.3485 137.974 56.7273C138.618 57.1023 139.115 57.6288 139.463 58.3068C139.812 58.9811 139.986 59.7689 139.986 60.6705C139.986 61.5644 139.812 62.3504 139.463 63.0284C139.115 63.7027 138.618 64.2292 137.974 64.608C137.334 64.983 136.573 65.1705 135.69 65.1705ZM135.702 63.2955C136.103 63.2955 136.438 63.1818 136.707 62.9545C136.976 62.7235 137.179 62.4091 137.315 62.0114C137.455 61.6136 137.526 61.161 137.526 60.6534C137.526 60.1458 137.455 59.6932 137.315 59.2955C137.179 58.8977 136.976 58.5833 136.707 58.3523C136.438 58.1212 136.103 58.0057 135.702 58.0057C135.296 58.0057 134.955 58.1212 134.679 58.3523C134.406 58.5833 134.2 58.8977 134.06 59.2955C133.923 59.6932 133.855 60.1458 133.855 60.6534C133.855 61.161 133.923 61.6136 134.06 62.0114C134.2 62.4091 134.406 62.7235 134.679 62.9545C134.955 63.1818 135.296 63.2955 135.702 63.2955ZM145.503 65.1705C144.609 65.1705 143.84 64.9811 143.196 64.6023C142.556 64.2197 142.063 63.6894 141.719 63.0114C141.378 62.3333 141.207 61.553 141.207 60.6705C141.207 59.7765 141.38 58.9924 141.724 58.3182C142.073 57.6402 142.567 57.1117 143.207 56.733C143.848 56.3504 144.609 56.1591 145.491 56.1591C146.253 56.1591 146.92 56.2973 147.491 56.5739C148.063 56.8504 148.516 57.2386 148.849 57.7386C149.183 58.2386 149.366 58.8258 149.401 59.5H147.116C147.052 59.0644 146.882 58.714 146.605 58.4489C146.332 58.1799 145.974 58.0455 145.531 58.0455C145.156 58.0455 144.829 58.1477 144.548 58.3523C144.272 58.553 144.056 58.8466 143.901 59.233C143.745 59.6193 143.668 60.0871 143.668 60.6364C143.668 61.1932 143.743 61.6667 143.895 62.0568C144.05 62.447 144.268 62.7443 144.548 62.9489C144.829 63.1534 145.156 63.2557 145.531 63.2557C145.808 63.2557 146.056 63.1989 146.276 63.0852C146.499 62.9716 146.683 62.8068 146.827 62.5909C146.974 62.3712 147.071 62.108 147.116 61.8011H149.401C149.363 62.4678 149.181 63.0549 148.855 63.5625C148.533 64.0663 148.088 64.4602 147.52 64.7443C146.952 65.0284 146.279 65.1705 145.503 65.1705ZM150.95 65V56.2727H153.371V65H150.95ZM152.166 55.1477C151.806 55.1477 151.498 55.0284 151.24 54.7898C150.986 54.5473 150.859 54.2576 150.859 53.9205C150.859 53.5871 150.986 53.3011 151.24 53.0625C151.498 52.8201 151.806 52.6989 152.166 52.6989C152.526 52.6989 152.833 52.8201 153.087 53.0625C153.344 53.3011 153.473 53.5871 153.473 53.9205C153.473 54.2576 153.344 54.5473 153.087 54.7898C152.833 55.0284 152.526 55.1477 152.166 55.1477ZM157.798 65.1648C157.241 65.1648 156.745 65.0682 156.31 64.875C155.874 64.678 155.529 64.3883 155.276 64.0057C155.026 63.6193 154.901 63.1383 154.901 62.5625C154.901 62.0777 154.99 61.6705 155.168 61.3409C155.346 61.0114 155.588 60.7462 155.895 60.5455C156.202 60.3447 156.55 60.1932 156.94 60.0909C157.334 59.9886 157.747 59.9167 158.179 59.875C158.687 59.822 159.096 59.7727 159.406 59.7273C159.717 59.678 159.942 59.6061 160.082 59.5114C160.223 59.4167 160.293 59.2765 160.293 59.0909V59.0568C160.293 58.697 160.179 58.4186 159.952 58.2216C159.728 58.0246 159.41 57.9261 158.997 57.9261C158.562 57.9261 158.215 58.0227 157.957 58.2159C157.7 58.4053 157.529 58.6439 157.446 58.9318L155.207 58.75C155.321 58.2197 155.545 57.7614 155.878 57.375C156.211 56.9848 156.641 56.6856 157.168 56.4773C157.698 56.2652 158.312 56.1591 159.009 56.1591C159.493 56.1591 159.957 56.2159 160.401 56.3295C160.848 56.4432 161.243 56.6193 161.588 56.858C161.937 57.0966 162.211 57.4034 162.412 57.7784C162.613 58.1496 162.713 58.5947 162.713 59.1136V65H160.418V63.7898H160.349C160.209 64.0625 160.022 64.303 159.787 64.5114C159.552 64.7159 159.27 64.8769 158.94 64.9943C158.611 65.108 158.23 65.1648 157.798 65.1648ZM158.491 63.4943C158.848 63.4943 159.162 63.4242 159.435 63.2841C159.707 63.1402 159.921 62.947 160.077 62.7045C160.232 62.4621 160.31 62.1875 160.31 61.8807V60.9545C160.234 61.0038 160.13 61.0492 159.997 61.0909C159.868 61.1288 159.723 61.1648 159.56 61.1989C159.397 61.2292 159.234 61.2576 159.071 61.2841C158.908 61.3068 158.76 61.3277 158.628 61.3466C158.344 61.3883 158.096 61.4545 157.884 61.5455C157.671 61.6364 157.507 61.7595 157.389 61.9148C157.272 62.0663 157.213 62.2557 157.213 62.483C157.213 62.8125 157.332 63.0644 157.571 63.2386C157.813 63.4091 158.12 63.4943 158.491 63.4943ZM167.011 53.3636V65H164.591V53.3636H167.011ZM172.699 53.3636H175.733L178.938 61.1818H179.074L182.278 53.3636H185.312V65H182.926V57.4261H182.83L179.818 64.9432H178.193L175.182 57.3977H175.085V65H172.699V53.3636ZM191.271 65.1705C190.374 65.1705 189.601 64.9886 188.953 64.625C188.309 64.2576 187.813 63.7386 187.464 63.0682C187.116 62.3939 186.942 61.5966 186.942 60.6761C186.942 59.7784 187.116 58.9905 187.464 58.3125C187.813 57.6345 188.304 57.1061 188.936 56.7273C189.572 56.3485 190.319 56.1591 191.175 56.1591C191.75 56.1591 192.286 56.2519 192.783 56.4375C193.283 56.6193 193.718 56.8939 194.089 57.2614C194.464 57.6288 194.756 58.0909 194.964 58.6477C195.173 59.2008 195.277 59.8485 195.277 60.5909V61.2557H187.908V59.7557H192.999C192.999 59.4072 192.923 59.0985 192.771 58.8295C192.62 58.5606 192.41 58.3504 192.141 58.1989C191.875 58.0436 191.567 57.9659 191.214 57.9659C190.847 57.9659 190.521 58.0511 190.237 58.2216C189.957 58.3883 189.737 58.6136 189.578 58.8977C189.419 59.178 189.338 59.4905 189.334 59.8352V61.2614C189.334 61.6932 189.413 62.0663 189.572 62.3807C189.735 62.6951 189.964 62.9375 190.26 63.108C190.555 63.2784 190.906 63.3636 191.311 63.3636C191.58 63.3636 191.826 63.3258 192.05 63.25C192.273 63.1742 192.464 63.0606 192.624 62.9091C192.783 62.7576 192.904 62.572 192.987 62.3523L195.226 62.5C195.112 63.0379 194.879 63.5076 194.527 63.9091C194.179 64.3068 193.728 64.6174 193.175 64.8409C192.625 65.0606 191.991 65.1705 191.271 65.1705ZM200.072 65.142C199.41 65.142 198.809 64.9716 198.271 64.6307C197.737 64.286 197.313 63.7803 196.999 63.1136C196.688 62.4432 196.533 61.6212 196.533 60.6477C196.533 59.6477 196.694 58.8163 197.016 58.1534C197.338 57.4867 197.766 56.9886 198.3 56.6591C198.838 56.3258 199.427 56.1591 200.067 56.1591C200.555 56.1591 200.963 56.2424 201.288 56.4091C201.618 56.572 201.883 56.7765 202.084 57.0227C202.288 57.2652 202.444 57.5038 202.55 57.7386H202.624V53.3636H205.038V65H202.652V63.6023H202.55C202.436 63.8447 202.275 64.0852 202.067 64.3239C201.862 64.5587 201.595 64.7538 201.266 64.9091C200.94 65.0644 200.542 65.142 200.072 65.142ZM200.839 63.2159C201.23 63.2159 201.559 63.1098 201.828 62.8977C202.101 62.6818 202.309 62.3807 202.453 61.9943C202.601 61.608 202.675 61.1553 202.675 60.6364C202.675 60.1174 202.603 59.6667 202.459 59.2841C202.315 58.9015 202.107 58.6061 201.834 58.3977C201.561 58.1894 201.23 58.0852 200.839 58.0852C200.442 58.0852 200.107 58.1932 199.834 58.4091C199.561 58.625 199.355 58.9242 199.214 59.3068C199.074 59.6894 199.004 60.1326 199.004 60.6364C199.004 61.1439 199.074 61.5928 199.214 61.983C199.358 62.3693 199.565 62.6723 199.834 62.892C200.107 63.108 200.442 63.2159 200.839 63.2159ZM207.028 65V56.2727H209.449V65H207.028ZM208.244 55.1477C207.884 55.1477 207.576 55.0284 207.318 54.7898C207.064 54.5473 206.938 54.2576 206.938 53.9205C206.938 53.5871 207.064 53.3011 207.318 53.0625C207.576 52.8201 207.884 52.6989 208.244 52.6989C208.604 52.6989 208.911 52.8201 209.165 53.0625C209.422 53.3011 209.551 53.5871 209.551 53.9205C209.551 54.2576 209.422 54.5473 209.165 54.7898C208.911 55.0284 208.604 55.1477 208.244 55.1477ZM213.876 65.1648C213.32 65.1648 212.823 65.0682 212.388 64.875C211.952 64.678 211.607 64.3883 211.354 64.0057C211.104 63.6193 210.979 63.1383 210.979 62.5625C210.979 62.0777 211.068 61.6705 211.246 61.3409C211.424 61.0114 211.666 60.7462 211.973 60.5455C212.28 60.3447 212.628 60.1932 213.018 60.0909C213.412 59.9886 213.825 59.9167 214.257 59.875C214.765 59.822 215.174 59.7727 215.484 59.7273C215.795 59.678 216.02 59.6061 216.161 59.5114C216.301 59.4167 216.371 59.2765 216.371 59.0909V59.0568C216.371 58.697 216.257 58.4186 216.03 58.2216C215.806 58.0246 215.488 57.9261 215.075 57.9261C214.64 57.9261 214.293 58.0227 214.036 58.2159C213.778 58.4053 213.607 58.6439 213.524 58.9318L211.286 58.75C211.399 58.2197 211.623 57.7614 211.956 57.375C212.289 56.9848 212.719 56.6856 213.246 56.4773C213.776 56.2652 214.39 56.1591 215.087 56.1591C215.571 56.1591 216.036 56.2159 216.479 56.3295C216.926 56.4432 217.321 56.6193 217.666 56.858C218.015 57.0966 218.289 57.4034 218.49 57.7784C218.691 58.1496 218.791 58.5947 218.791 59.1136V65H216.496V63.7898H216.428C216.287 64.0625 216.1 64.303 215.865 64.5114C215.63 64.7159 215.348 64.8769 215.018 64.9943C214.689 65.108 214.308 65.1648 213.876 65.1648ZM214.57 63.4943C214.926 63.4943 215.24 63.4242 215.513 63.2841C215.786 63.1402 216 62.947 216.155 62.7045C216.31 62.4621 216.388 62.1875 216.388 61.8807V60.9545C216.312 61.0038 216.208 61.0492 216.075 61.0909C215.946 61.1288 215.801 61.1648 215.638 61.1989C215.475 61.2292 215.312 61.2576 215.149 61.2841C214.986 61.3068 214.839 61.3277 214.706 61.3466C214.422 61.3883 214.174 61.4545 213.962 61.5455C213.75 61.6364 213.585 61.7595 213.467 61.9148C213.35 62.0663 213.291 62.2557 213.291 62.483C213.291 62.8125 213.411 63.0644 213.649 63.2386C213.892 63.4091 214.198 63.4943 214.57 63.4943Z" fill="black"/>
<path d="M249.599 57.84C249.299 56.12 248.079 53.96 245.759 52.22C244.619 51.36 243.459 50.8 242.319 50.56V49.72C244.579 49.18 246.799 47.66 248.219 45.6C248.939 44.56 249.399 43.54 249.599 42.48H250.439C250.779 44.5 252.339 46.74 254.459 48.24C255.499 48.98 256.579 49.48 257.679 49.72V50.56C255.459 51.02 252.879 53 251.599 55.02C250.959 56.04 250.579 56.98 250.439 57.84H249.599Z" fill="black"/>
<path d="M89.5988 57.84C89.2988 56.12 88.0788 53.96 85.7588 52.22C84.6188 51.36 83.4588 50.8 82.3188 50.56V49.72C84.5788 49.18 86.7988 47.66 88.2188 45.6C88.9388 44.56 89.3988 43.54 89.5988 42.48H90.4388C90.7788 44.5 92.3388 46.74 94.4588 48.24C95.4988 48.98 96.5788 49.48 97.6788 49.72V50.56C95.4588 51.02 92.8788 53 91.5988 55.02C90.9588 56.04 90.5788 56.98 90.4388 57.84H89.5988Z" fill="black"/>
<g clip-path="url(#clip0_528_118)">
<path d="M86.5297 92H68.5297C63.5591 92 59.5297 96.0294 59.5297 101V119C59.5297 123.971 63.5591 128 68.5297 128H86.5297C91.5003 128 95.5297 123.971 95.5297 119V101C95.5297 96.0294 91.5003 92 86.5297 92Z" fill="#006699"/>
<path fill-rule="evenodd" clip-rule="evenodd" d="M72.7907 118.1V105.955H68.7538V118.1H72.7907ZM70.7722 104.297C72.1799 104.297 73.0562 103.364 73.0562 102.198C73.0299 101.007 72.1799 100.1 70.799 100.1C69.4181 100.1 68.5152 101.007 68.5152 102.198C68.5152 103.364 69.3912 104.297 70.746 104.297H70.7722Z" fill="white"/>
<path fill-rule="evenodd" clip-rule="evenodd" d="M75.0244 118.1H79.0612V111.318C79.0612 110.955 79.0874 110.592 79.194 110.333C79.4859 109.607 80.1501 108.856 81.2653 108.856C82.726 108.856 83.3103 109.97 83.3103 111.603V118.1H87.3467V111.136C87.3467 107.406 85.3552 105.67 82.6993 105.67C80.5216 105.67 79.5655 106.887 79.0344 107.716H79.0613V105.955H75.0245C75.0775 107.094 75.0244 118.1 75.0244 118.1Z" fill="white"/>
</g>
<g clip-path="url(#clip1_528_118)">
<path d="M132.815 92H114.815C109.845 92 105.815 96.0294 105.815 101V119C105.815 123.971 109.845 128 114.815 128H132.815C137.786 128 141.815 123.971 141.815 119V101C141.815 96.0294 137.786 92 132.815 92Z" fill="black"/>
<mask id="mask0_528_118" style="mask-type:luminance" maskUnits="userSpaceOnUse" x="113" y="99" width="22" height="22">
<path d="M134.615 99.2H113.015V120.8H134.615V99.2Z" fill="white"/>
</mask>
<g mask="url(#mask0_528_118)">
<path fill-rule="evenodd" clip-rule="evenodd" d="M123.815 99.2C117.848 99.2 113.015 104.033 113.015 110C113.015 114.779 116.107 118.815 120.4 120.246C120.94 120.341 121.142 120.017 121.142 119.733C121.142 119.477 121.129 118.626 121.129 117.722C118.415 118.221 117.713 117.06 117.497 116.453C117.376 116.142 116.849 115.184 116.39 114.927C116.012 114.725 115.472 114.225 116.377 114.212C117.227 114.198 117.835 114.995 118.037 115.319C119.009 116.952 120.562 116.493 121.183 116.21C121.277 115.508 121.561 115.035 121.871 114.765C119.468 114.495 116.957 113.564 116.957 109.433C116.957 108.258 117.376 107.286 118.064 106.53C117.956 106.26 117.578 105.153 118.172 103.668C118.172 103.668 119.077 103.385 121.142 104.775C122.006 104.532 122.924 104.411 123.842 104.411C124.76 104.411 125.678 104.532 126.542 104.775C128.608 103.371 129.512 103.668 129.512 103.668C130.106 105.153 129.728 106.26 129.62 106.53C130.309 107.286 130.727 108.245 130.727 109.433C130.727 113.577 128.203 114.495 125.8 114.765C126.191 115.103 126.529 115.751 126.529 116.763C126.529 118.208 126.515 119.369 126.515 119.733C126.515 120.017 126.718 120.354 127.258 120.246C131.524 118.815 134.615 114.765 134.615 110C134.615 104.033 129.782 99.2 123.815 99.2Z" fill="white"/>
</g>
</g>
<g clip-path="url(#clip2_528_118)">
<path d="M179.101 92H161.101C156.131 92 152.101 96.0294 152.101 101V119C152.101 123.971 156.131 128 161.101 128H179.101C184.072 128 188.101 123.971 188.101 119V101C188.101 96.0294 184.072 92 179.101 92Z" fill="#3E3E3E"/>
<mask id="mask1_528_118" style="mask-type:luminance" maskUnits="userSpaceOnUse" x="159" y="99" width="22" height="22">
<path d="M180.901 99.2H159.301L159.301 120.8H180.901L180.901 99.2Z" fill="white"/>
</mask>
<g mask="url(#mask1_528_118)">
<path d="M166.71 120.8C168.811 120.8 170.516 119.187 170.516 117.2V113.6H166.71C164.608 113.6 162.903 115.213 162.903 117.2C162.903 119.187 164.608 120.8 166.71 120.8Z" fill="#0ACF83"/>
<path d="M162.902 110C162.902 108.013 164.607 106.4 166.709 106.4H170.515L170.515 113.6H166.709C164.607 113.6 162.902 111.987 162.902 110Z" fill="#A259FF"/>
<path d="M162.902 102.8C162.902 100.813 164.607 99.2001 166.709 99.2001H170.515L170.515 106.4H166.709C164.607 106.4 162.902 104.787 162.902 102.8Z" fill="#F24E1E"/>
<path d="M170.515 99.1998H174.322C176.423 99.1998 178.128 100.813 178.128 102.8C178.128 104.787 176.423 106.4 174.322 106.4H170.515L170.515 99.1998Z" fill="#FF7262"/>
<path d="M178.128 110C178.128 111.987 176.423 113.6 174.322 113.6C172.22 113.6 170.515 111.987 170.515 110C170.515 108.013 172.22 106.4 174.322 106.4C176.423 106.4 178.128 108.013 178.128 110Z" fill="#1ABCFE"/>
</g>
</g>
<g clip-path="url(#clip3_528_118)">
<path d="M198.387 92C210.267 92 222.147 92 234.387 92C234.387 103.88 234.387 115.76 234.387 128C222.507 128 210.627 128 198.387 128C198.387 116.12 198.387 104.24 198.387 92Z" fill="black"/>
<path d="M205.383 100.016C206.289 100.005 207.195 99.9969 208.101 99.992C208.522 99.9896 208.943 99.9864 209.363 99.9812C209.73 99.9766 210.097 99.9737 210.464 99.9727C210.658 99.9721 210.852 99.9707 211.046 99.9673C211.229 99.9642 211.412 99.9633 211.595 99.964C211.662 99.9638 211.729 99.9629 211.796 99.9612C212.288 99.9489 212.288 99.9489 212.44 100.06C212.562 100.182 212.645 100.323 212.731 100.473C212.777 100.536 212.825 100.598 212.873 100.659C212.918 100.718 212.963 100.776 213.007 100.835C213.044 100.883 213.044 100.883 213.081 100.931C213.239 101.14 213.397 101.349 213.554 101.559C213.699 101.753 213.845 101.944 213.992 102.136C214.173 102.373 214.352 102.612 214.528 102.852C214.707 103.097 214.89 103.336 215.077 103.575C215.246 103.79 215.408 104.01 215.569 104.231C215.71 104.422 215.854 104.61 216 104.797C216.212 105.067 216.416 105.341 216.618 105.617C216.797 105.861 216.979 106.102 217.16 106.344C217.308 106.223 217.438 106.104 217.556 105.953C217.671 105.808 217.79 105.67 217.916 105.535C218.037 105.406 218.153 105.274 218.263 105.135C218.406 104.958 218.559 104.793 218.714 104.628C218.856 104.476 218.988 104.319 219.118 104.156C219.212 104.044 219.31 103.937 219.41 103.83C219.567 103.663 219.714 103.491 219.857 103.312C219.978 103.166 220.106 103.029 220.235 102.89C220.383 102.73 220.525 102.565 220.667 102.399C220.703 102.357 220.739 102.314 220.775 102.272C220.793 102.251 220.811 102.23 220.83 102.208C220.943 102.076 221.057 101.947 221.175 101.82C221.287 101.697 221.395 101.572 221.5 101.442C221.628 101.282 221.764 101.132 221.903 100.982C222.008 100.868 222.108 100.752 222.205 100.631C222.242 100.587 222.242 100.587 222.279 100.542C222.365 100.439 222.365 100.439 222.436 100.328C222.571 100.146 222.683 100.015 222.915 99.9787C223.119 99.9614 223.322 99.9681 223.526 99.9745C223.601 99.9752 223.676 99.9758 223.752 99.9763C223.948 99.9779 224.145 99.982 224.341 99.9867C224.542 99.991 224.743 99.9929 224.944 99.9951C225.338 99.9996 225.732 100.007 226.125 100.016C226.125 100.086 226.125 100.086 226.049 100.166C226.016 100.198 225.983 100.229 225.949 100.262C225.732 100.492 225.526 100.726 225.328 100.973C225.224 101.098 225.114 101.216 225.003 101.335C224.899 101.447 224.801 101.562 224.706 101.681C224.563 101.858 224.411 102.023 224.255 102.188C224.112 102.341 223.979 102.499 223.848 102.663C223.761 102.768 223.67 102.869 223.576 102.969C223.455 103.099 223.338 103.232 223.227 103.371C223.092 103.539 222.948 103.696 222.801 103.854C222.692 103.97 222.589 104.09 222.489 104.215C222.365 104.368 222.235 104.513 222.1 104.656C221.936 104.83 221.783 105.008 221.634 105.194C221.546 105.299 221.455 105.4 221.361 105.5C221.24 105.63 221.124 105.763 221.012 105.902C220.859 106.093 220.694 106.271 220.527 106.45C220.376 106.613 220.231 106.781 220.086 106.95C220.05 106.993 220.014 107.035 219.977 107.078C219.95 107.11 219.95 107.11 219.922 107.143C219.815 107.267 219.707 107.389 219.597 107.511C219.462 107.659 219.335 107.813 219.21 107.97C219.102 108.099 218.985 108.22 218.867 108.341C218.804 108.411 218.804 108.411 218.821 108.484C218.852 108.569 218.892 108.628 218.947 108.7C218.968 108.728 218.988 108.755 219.01 108.783C219.032 108.813 219.055 108.842 219.078 108.873C219.114 108.919 219.114 108.919 219.15 108.967C219.225 109.065 219.3 109.164 219.375 109.262C219.422 109.324 219.47 109.386 219.517 109.448C219.587 109.54 219.657 109.632 219.727 109.724C219.908 109.961 220.088 110.2 220.267 110.439C220.425 110.651 220.585 110.862 220.746 111.072C220.929 111.312 221.111 111.552 221.291 111.793C221.471 112.033 221.652 112.273 221.834 112.511C221.869 112.557 221.869 112.557 221.904 112.604C222.023 112.759 222.142 112.915 222.261 113.07C222.507 113.393 222.751 113.717 222.991 114.045C223.15 114.261 223.314 114.473 223.48 114.684C223.648 114.899 223.81 115.119 223.972 115.34C224.112 115.531 224.256 115.72 224.402 115.906C224.592 116.148 224.775 116.393 224.956 116.641C225.096 116.832 225.24 117.02 225.387 117.207C225.576 117.449 225.759 117.694 225.941 117.942C226.081 118.133 226.225 118.321 226.371 118.508C226.585 118.781 226.792 119.058 226.996 119.338C227.067 119.435 227.138 119.53 227.211 119.626C227.226 119.645 227.241 119.665 227.256 119.685C227.295 119.736 227.335 119.787 227.374 119.838C227.426 119.914 227.426 119.914 227.426 119.984C226.55 119.999 225.674 120.01 224.797 120.017C224.39 120.02 223.984 120.025 223.577 120.032C223.222 120.038 222.867 120.043 222.512 120.044C222.325 120.045 222.137 120.047 221.949 120.051C220.714 120.081 220.714 120.081 220.442 119.846C220.328 119.718 220.249 119.583 220.182 119.426C220.136 119.325 220.072 119.243 220.002 119.158C219.963 119.106 219.924 119.053 219.885 119C219.655 118.692 219.42 118.388 219.183 118.085C218.913 117.738 218.646 117.387 218.379 117.037C218.322 116.964 218.266 116.89 218.209 116.816C217.976 116.511 217.743 116.205 217.51 115.899C217.307 115.633 217.103 115.367 216.9 115.1C216.842 115.025 216.784 114.949 216.726 114.874C216.527 114.613 216.327 114.352 216.127 114.092C216.018 113.95 215.909 113.807 215.8 113.665C215.645 113.462 215.49 113.26 215.332 113.059C215.225 113.106 215.161 113.154 215.086 113.243C215.065 113.268 215.044 113.293 215.022 113.319C214.984 113.364 214.984 113.364 214.945 113.41C214.877 113.491 214.808 113.571 214.739 113.652C214.721 113.673 214.702 113.694 214.684 113.716C214.551 113.872 214.415 114.025 214.277 114.176C214.137 114.331 214 114.489 213.864 114.648C213.698 114.844 213.531 115.038 213.357 115.227C213.245 115.349 213.139 115.472 213.036 115.601C212.893 115.779 212.739 115.944 212.583 116.11C212.44 116.263 212.307 116.421 212.177 116.584C212.089 116.69 211.998 116.791 211.904 116.891C211.783 117.021 211.667 117.154 211.555 117.293C211.42 117.461 211.276 117.618 211.129 117.775C210.991 117.923 210.863 118.077 210.737 118.235C210.616 118.381 210.488 118.518 210.359 118.657C210.211 118.817 210.069 118.982 209.927 119.148C209.891 119.19 209.855 119.233 209.819 119.275C209.801 119.296 209.783 119.317 209.765 119.339C209.619 119.509 209.468 119.675 209.316 119.84C209.249 119.909 209.249 119.909 209.215 119.984C208.101 119.984 206.987 119.984 205.84 119.984C205.904 119.857 205.958 119.785 206.053 119.683C206.167 119.56 206.275 119.434 206.38 119.303C206.527 119.122 206.682 118.951 206.84 118.781C206.988 118.62 207.131 118.455 207.272 118.289C207.308 118.247 207.344 118.205 207.38 118.163C207.398 118.142 207.417 118.12 207.435 118.098C207.548 117.967 207.663 117.838 207.78 117.71C207.892 117.588 207.999 117.464 208.103 117.334C208.239 117.166 208.384 117.008 208.531 116.85C208.641 116.732 208.745 116.612 208.846 116.486C208.98 116.319 209.123 116.162 209.27 116.006C209.379 115.888 209.483 115.768 209.584 115.643C209.702 115.496 209.825 115.358 209.953 115.221C210.11 115.053 210.257 114.881 210.4 114.702C210.521 114.557 210.649 114.419 210.778 114.281C210.926 114.12 211.068 113.955 211.21 113.789C211.246 113.747 211.282 113.705 211.318 113.663C211.336 113.642 211.354 113.62 211.373 113.598C211.486 113.467 211.6 113.338 211.718 113.21C211.83 113.088 211.937 112.964 212.041 112.834C212.177 112.666 212.321 112.508 212.469 112.35C212.579 112.232 212.683 112.112 212.783 111.986C212.935 111.797 213.099 111.62 213.265 111.443C213.367 111.333 213.466 111.221 213.564 111.107C213.601 111.065 213.64 111.024 213.68 110.984C213.671 110.843 213.58 110.751 213.495 110.644C213.463 110.603 213.431 110.562 213.399 110.521C213.382 110.499 213.364 110.477 213.347 110.455C213.254 110.336 213.163 110.217 213.071 110.097C213.032 110.046 212.993 109.995 212.954 109.944C212.895 109.866 212.836 109.789 212.777 109.711C212.718 109.635 212.66 109.558 212.601 109.481C212.582 109.456 212.563 109.431 212.543 109.405C212.432 109.261 212.321 109.116 212.21 108.972C212.032 108.741 211.856 108.51 211.68 108.278C211.398 107.908 211.116 107.538 210.832 107.17C210.524 106.77 210.218 106.368 209.911 105.966C209.676 105.656 209.439 105.347 209.201 105.039C209.043 104.834 208.886 104.628 208.732 104.421C208.581 104.219 208.428 104.02 208.272 103.821C208.097 103.598 207.926 103.372 207.756 103.145C207.567 102.891 207.375 102.641 207.181 102.392C206.985 102.141 206.792 101.889 206.6 101.637C206.505 101.512 206.41 101.388 206.315 101.264C206.198 101.111 206.081 100.958 205.964 100.806C205.924 100.753 205.884 100.701 205.844 100.648C205.825 100.623 205.806 100.599 205.787 100.573C205.666 100.415 205.544 100.258 205.421 100.102C205.383 100.051 205.383 100.051 205.383 100.016Z" fill="#FDFDFD"/>
<path d="M209.356 101.949C209.611 101.94 209.867 101.933 210.123 101.929C210.242 101.927 210.361 101.924 210.479 101.92C210.616 101.915 210.753 101.913 210.89 101.911C210.932 101.909 210.975 101.907 211.018 101.905C211.201 101.905 211.314 101.909 211.455 102.032C211.536 102.13 211.607 102.23 211.676 102.336C211.716 102.39 211.756 102.444 211.797 102.498C211.835 102.55 211.873 102.602 211.911 102.655C212.075 102.879 212.242 103.101 212.414 103.32C212.603 103.562 212.787 103.807 212.967 104.054C213.132 104.279 213.303 104.5 213.475 104.719C213.604 104.885 213.729 105.052 213.852 105.223C213.948 105.354 214.047 105.483 214.146 105.612C214.295 105.806 214.443 106.001 214.589 106.197C214.615 106.231 214.615 106.231 214.641 106.265C214.716 106.366 214.792 106.467 214.867 106.567C215.102 106.882 215.338 107.197 215.58 107.506C215.769 107.747 215.951 107.991 216.132 108.238C216.296 108.463 216.467 108.683 216.639 108.903C216.768 109.068 216.894 109.236 217.016 109.407C217.168 109.614 217.326 109.817 217.482 110.021C217.78 110.41 218.077 110.799 218.371 111.192C218.515 111.385 218.662 111.577 218.808 111.769C218.989 112.006 219.168 112.244 219.344 112.485C219.523 112.729 219.707 112.969 219.894 113.207C220.062 113.423 220.224 113.643 220.386 113.863C220.526 114.055 220.67 114.243 220.817 114.43C221.006 114.671 221.189 114.916 221.37 115.164C221.511 115.356 221.654 115.544 221.801 115.73C221.99 115.972 222.173 116.217 222.354 116.465C222.497 116.659 222.643 116.85 222.792 117.04C222.949 117.24 223.104 117.442 223.255 117.646C223.28 117.68 223.28 117.68 223.306 117.714C223.418 117.867 223.418 117.867 223.418 117.945C223.161 117.96 222.903 117.969 222.645 117.976C222.558 117.979 222.47 117.983 222.383 117.988C221.678 118.026 221.678 118.026 221.476 117.893C221.343 117.764 221.254 117.614 221.169 117.451C221.122 117.362 221.063 117.287 220.999 117.209C220.98 117.185 220.962 117.162 220.942 117.137C220.924 117.114 220.906 117.09 220.887 117.066C220.715 116.846 220.545 116.624 220.378 116.4C220.245 116.222 220.11 116.046 219.973 115.871C219.818 115.673 219.666 115.475 219.516 115.273C219.368 115.075 219.218 114.879 219.065 114.685C218.89 114.461 218.719 114.235 218.549 114.008C218.36 113.755 218.168 113.504 217.973 113.255C217.778 113.005 217.585 112.752 217.393 112.5C217.298 112.376 217.203 112.251 217.108 112.127C217.069 112.077 217.031 112.027 216.993 111.978C216.974 111.953 216.956 111.928 216.936 111.903C213.109 106.897 213.109 106.897 213.051 106.823C213.013 106.773 212.975 106.723 212.937 106.674C212.841 106.547 212.744 106.421 212.648 106.295C212.476 106.071 212.305 105.847 212.133 105.623C211.941 105.374 211.75 105.124 211.559 104.874C211.482 104.773 211.405 104.673 211.329 104.572C211.271 104.498 211.214 104.423 211.157 104.348C211.082 104.25 211.007 104.153 210.933 104.055C210.696 103.746 210.461 103.437 210.226 103.128C210.095 102.957 209.964 102.786 209.832 102.615C209.718 102.467 209.605 102.318 209.492 102.169C209.466 102.134 209.439 102.1 209.412 102.064C209.356 101.984 209.356 101.984 209.356 101.949Z" fill="#020202"/>
</g>
<g clip-path="url(#clip4_528_118)">
<path d="M271.673 92H253.673C248.702 92 244.673 96.0294 244.673 101V119C244.673 123.971 248.702 128 253.673 128H271.673C276.643 128 280.673 123.971 280.673 119V101C280.673 96.0294 276.643 92 271.673 92Z" fill="black"/>
<path d="M271.673 92.45H253.673C248.951 92.45 245.123 96.2779 245.123 101V119C245.123 123.722 248.951 127.55 253.673 127.55H271.673C276.395 127.55 280.223 123.722 280.223 119V101C280.223 96.2779 276.395 92.45 271.673 92.45Z" stroke="black" stroke-opacity="0.08" stroke-width="0.9"/>
<mask id="mask2_528_118" style="mask-type:alpha" maskUnits="userSpaceOnUse" x="244" y="92" width="37" height="36">
<path d="M271.673 92H253.673C248.702 92 244.673 96.0294 244.673 101V119C244.673 123.971 248.702 128 253.673 128H271.673C276.643 128 280.673 123.971 280.673 119V101C280.673 96.0294 276.643 92 271.673 92Z" fill="black"/>
<path d="M271.673 92.45H253.673C248.951 92.45 245.123 96.2779 245.123 101V119C245.123 123.722 248.951 127.55 253.673 127.55H271.673C276.395 127.55 280.223 123.722 280.223 119V101C280.223 96.2779 276.395 92.45 271.673 92.45Z" stroke="black" stroke-opacity="0.08" stroke-width="0.9"/>
</mask>
<g mask="url(#mask2_528_118)">
<path d="M262.678 92C255.164 92 252.966 92.0078 252.539 92.0432C250.996 92.1714 250.037 92.4142 248.991 92.9347C248.186 93.3348 247.55 93.7986 246.923 94.4487C245.781 95.6342 245.089 97.0928 244.838 98.8266C244.716 99.6683 244.681 99.8399 244.674 104.139C244.671 105.572 244.674 107.458 244.674 109.988C244.674 117.497 244.682 119.692 244.718 120.119C244.843 121.62 245.078 122.564 245.576 123.596C246.529 125.573 248.348 127.057 250.491 127.611C251.233 127.802 252.052 127.907 253.105 127.957C253.55 127.977 258.094 127.99 262.64 127.99C267.186 127.99 271.732 127.985 272.167 127.963C273.385 127.905 274.093 127.81 274.875 127.608C275.938 127.336 276.928 126.835 277.777 126.14C278.625 125.445 279.312 124.573 279.789 123.585C280.278 122.577 280.526 121.597 280.638 120.175C280.662 119.865 280.673 114.921 280.673 109.983C280.673 105.045 280.662 100.11 280.637 99.8C280.524 98.3548 280.276 97.3829 279.771 96.3558C279.358 95.5149 278.898 94.8869 278.231 94.2449C277.04 93.1075 275.584 92.4153 273.848 92.165C273.007 92.0435 272.84 92.0075 268.537 92H262.678Z" fill="url(#paint0_radial_528_118)"/>
<path d="M262.678 92C255.164 92 252.966 92.0078 252.539 92.0432C250.996 92.1714 250.037 92.4142 248.991 92.9347C248.186 93.3348 247.55 93.7986 246.923 94.4487C245.781 95.6342 245.089 97.0928 244.838 98.8266C244.716 99.6683 244.681 99.8399 244.674 104.139C244.671 105.572 244.674 107.458 244.674 109.988C244.674 117.497 244.682 119.692 244.718 120.119C244.843 121.62 245.078 122.564 245.576 123.596C246.529 125.573 248.348 127.057 250.491 127.611C251.233 127.802 252.052 127.907 253.105 127.957C253.55 127.977 258.094 127.99 262.64 127.99C267.186 127.99 271.732 127.985 272.167 127.963C273.385 127.905 274.093 127.81 274.875 127.608C275.938 127.336 276.928 126.835 277.777 126.14C278.625 125.445 279.312 124.573 279.789 123.585C280.278 122.577 280.526 121.597 280.638 120.175C280.662 119.865 280.673 114.921 280.673 109.983C280.673 105.045 280.662 100.11 280.637 99.8C280.524 98.3548 280.276 97.3829 279.771 96.3558C279.358 95.5149 278.898 94.8869 278.231 94.2449C277.04 93.1075 275.584 92.4153 273.848 92.165C273.007 92.0435 272.84 92.0075 268.537 92H262.678Z" fill="url(#paint1_radial_528_118)"/>
</g>
<path d="M262.673 99.2C259.74 99.2 259.372 99.2128 258.22 99.2652C257.07 99.3179 256.286 99.4999 255.599 99.767C254.888 100.043 254.286 100.412 253.686 101.012C253.085 101.613 252.716 102.215 252.439 102.925C252.171 103.612 251.989 104.397 251.937 105.547C251.886 106.698 251.873 107.067 251.873 110C251.873 112.933 251.886 113.3 251.938 114.452C251.991 115.602 252.173 116.387 252.44 117.073C252.716 117.784 253.085 118.386 253.685 118.986C254.285 119.587 254.888 119.957 255.598 120.233C256.285 120.5 257.07 120.682 258.219 120.735C259.371 120.787 259.739 120.8 262.672 120.8C265.606 120.8 265.973 120.787 267.125 120.735C268.274 120.682 269.06 120.5 269.747 120.233C270.457 119.957 271.059 119.587 271.659 118.986C272.26 118.386 272.629 117.784 272.906 117.074C273.171 116.387 273.353 115.602 273.407 114.452C273.459 113.3 273.473 112.933 273.473 110C273.473 107.067 273.459 106.699 273.407 105.547C273.353 104.397 273.171 103.612 272.906 102.926C272.629 102.215 272.26 101.613 271.659 101.012C271.058 100.412 270.458 100.043 269.747 99.767C269.058 99.4999 268.273 99.3179 267.123 99.2652C265.971 99.2128 265.604 99.2 262.67 99.2H262.673ZM261.705 101.146C261.992 101.146 262.313 101.146 262.673 101.146C265.557 101.146 265.899 101.157 267.037 101.208C268.09 101.256 268.662 101.432 269.043 101.58C269.547 101.776 269.906 102.01 270.284 102.388C270.662 102.766 270.896 103.126 271.092 103.63C271.24 104.01 271.416 104.582 271.464 105.635C271.516 106.773 271.527 107.115 271.527 109.997C271.527 112.88 271.516 113.222 271.464 114.36C271.416 115.413 271.24 115.985 271.092 116.365C270.896 116.869 270.662 117.228 270.284 117.606C269.906 117.984 269.547 118.218 269.043 118.413C268.662 118.562 268.09 118.737 267.037 118.785C265.899 118.837 265.557 118.849 262.673 118.849C259.789 118.849 259.448 118.837 258.309 118.785C257.256 118.737 256.685 118.561 256.304 118.413C255.8 118.217 255.44 117.983 255.062 117.605C254.684 117.227 254.45 116.868 254.254 116.364C254.106 115.984 253.93 115.412 253.882 114.359C253.83 113.221 253.82 112.879 253.82 109.995C253.82 107.111 253.83 106.771 253.882 105.632C253.93 104.579 254.106 104.007 254.254 103.627C254.449 103.123 254.684 102.763 255.062 102.385C255.44 102.007 255.8 101.773 256.304 101.577C256.684 101.428 257.256 101.253 258.309 101.204C259.305 101.159 259.692 101.146 261.705 101.144V101.146ZM268.438 102.939C268.182 102.939 267.931 103.016 267.718 103.158C267.505 103.3 267.339 103.503 267.241 103.74C267.143 103.976 267.117 104.237 267.167 104.488C267.217 104.74 267.341 104.971 267.522 105.152C267.703 105.333 267.934 105.457 268.186 105.507C268.437 105.557 268.698 105.531 268.935 105.433C269.171 105.335 269.374 105.168 269.516 104.955C269.659 104.742 269.734 104.491 269.734 104.235C269.734 103.52 269.154 102.939 268.438 102.939ZM262.673 104.454C259.61 104.454 257.127 106.937 257.127 110C257.127 113.063 259.61 115.545 262.673 115.545C265.736 115.545 268.219 113.063 268.219 110C268.219 106.937 265.736 104.454 262.673 104.454ZM262.673 106.4C264.661 106.4 266.273 108.012 266.273 110C266.273 111.988 264.661 113.6 262.673 113.6C260.685 113.6 259.073 111.988 259.073 110C259.073 108.012 260.685 106.4 262.673 106.4Z" fill="white"/>
</g>
<defs>
<radialGradient id="paint0_radial_528_118" cx="0" cy="0" r="1" gradientUnits="userSpaceOnUse" gradientTransform="translate(254.235 130.762) rotate(-90) scale(35.6691 33.1841)">
<stop stop-color="#FFDD55"/>
<stop offset="0.1" stop-color="#FFDD55"/>
<stop offset="0.5" stop-color="#FF543E"/>
<stop offset="1" stop-color="#C837AB"/>
</radialGradient>
<radialGradient id="paint1_radial_528_118" cx="0" cy="0" r="1" gradientUnits="userSpaceOnUse" gradientTransform="translate(238.642 94.5927) rotate(78.6776) scale(15.9444 65.7401)">
<stop stop-color="#3771C8"/>
<stop offset="0.128" stop-color="#3771C8"/>
<stop offset="1" stop-color="#6600FF" stop-opacity="0"/>
</radialGradient>
<clipPath id="clip0_528_118">
<rect width="36" height="36" fill="white" transform="translate(59.5297 92)"/>
</clipPath>
<clipPath id="clip1_528_118">
<rect width="36" height="36" fill="white" transform="translate(105.815 92)"/>
</clipPath>
<clipPath id="clip2_528_118">
<rect width="36" height="36" fill="white" transform="translate(152.101 92)"/>
</clipPath>
<clipPath id="clip3_528_118">
<rect x="198.387" y="92" width="36" height="36" rx="8.89888" fill="white"/>
</clipPath>
<clipPath id="clip4_528_118">
<rect width="36" height="36" fill="white" transform="translate(244.673 92)"/>
</clipPath>
</defs>
</svg>
