<svg width="340" height="160" viewBox="0 0 340 160" fill="none" xmlns="http://www.w3.org/2000/svg">
<rect width="340" height="160" fill="white"/>
<path d="M120.121 46V34.3636H127.825V36.392H122.581V39.1648H127.314V41.1932H122.581V46H120.121ZM132.737 46.1705C131.855 46.1705 131.091 45.983 130.447 45.608C129.807 45.2292 129.313 44.7027 128.964 44.0284C128.616 43.3504 128.442 42.5644 128.442 41.6705C128.442 40.7689 128.616 39.9811 128.964 39.3068C129.313 38.6288 129.807 38.1023 130.447 37.7273C131.091 37.3485 131.855 37.1591 132.737 37.1591C133.62 37.1591 134.381 37.3485 135.021 37.7273C135.665 38.1023 136.161 38.6288 136.51 39.3068C136.858 39.9811 137.033 40.7689 137.033 41.6705C137.033 42.5644 136.858 43.3504 136.51 44.0284C136.161 44.7027 135.665 45.2292 135.021 45.608C134.381 45.983 133.62 46.1705 132.737 46.1705ZM132.749 44.2955C133.15 44.2955 133.485 44.1818 133.754 43.9545C134.023 43.7235 134.226 43.4091 134.362 43.0114C134.502 42.6136 134.572 42.161 134.572 41.6534C134.572 41.1458 134.502 40.6932 134.362 40.2955C134.226 39.8977 134.023 39.5833 133.754 39.3523C133.485 39.1212 133.15 39.0057 132.749 39.0057C132.343 39.0057 132.002 39.1212 131.726 39.3523C131.453 39.5833 131.247 39.8977 131.107 40.2955C130.97 40.6932 130.902 41.1458 130.902 41.6534C130.902 42.161 130.97 42.6136 131.107 43.0114C131.247 43.4091 131.453 43.7235 131.726 43.9545C132.002 44.1818 132.343 44.2955 132.749 44.2955ZM141.027 34.3636V46H138.607V34.3636H141.027ZM145.386 34.3636V46H142.966V34.3636H145.386ZM151.268 46.1705C150.386 46.1705 149.623 45.983 148.979 45.608C148.339 45.2292 147.844 44.7027 147.496 44.0284C147.147 43.3504 146.973 42.5644 146.973 41.6705C146.973 40.7689 147.147 39.9811 147.496 39.3068C147.844 38.6288 148.339 38.1023 148.979 37.7273C149.623 37.3485 150.386 37.1591 151.268 37.1591C152.151 37.1591 152.912 37.3485 153.553 37.7273C154.196 38.1023 154.693 38.6288 155.041 39.3068C155.39 39.9811 155.564 40.7689 155.564 41.6705C155.564 42.5644 155.39 43.3504 155.041 44.0284C154.693 44.7027 154.196 45.2292 153.553 45.608C152.912 45.983 152.151 46.1705 151.268 46.1705ZM151.28 44.2955C151.681 44.2955 152.017 44.1818 152.286 43.9545C152.554 43.7235 152.757 43.4091 152.893 43.0114C153.034 42.6136 153.104 42.161 153.104 41.6534C153.104 41.1458 153.034 40.6932 152.893 40.2955C152.757 39.8977 152.554 39.5833 152.286 39.3523C152.017 39.1212 151.681 39.0057 151.28 39.0057C150.875 39.0057 150.534 39.1212 150.257 39.3523C149.984 39.5833 149.778 39.8977 149.638 40.2955C149.501 40.6932 149.433 41.1458 149.433 41.6534C149.433 42.161 149.501 42.6136 149.638 43.0114C149.778 43.4091 149.984 43.7235 150.257 43.9545C150.534 44.1818 150.875 44.2955 151.28 44.2955ZM158.641 46L156.266 37.2727H158.714L160.067 43.1364H160.146L161.555 37.2727H163.959L165.391 43.1023H165.464L166.794 37.2727H169.237L166.868 46H164.305L162.805 40.5114H162.697L161.197 46H158.641ZM174.232 46V37.2727H176.538V38.8125H176.641C176.822 38.3011 177.125 37.8977 177.55 37.6023C177.974 37.3068 178.482 37.1591 179.072 37.1591C179.671 37.1591 180.18 37.3087 180.601 37.608C181.021 37.9034 181.302 38.3049 181.442 38.8125H181.533C181.711 38.3125 182.033 37.9129 182.499 37.6136C182.968 37.3106 183.523 37.1591 184.163 37.1591C184.978 37.1591 185.639 37.4186 186.146 37.9375C186.658 38.4527 186.913 39.1837 186.913 40.1307V46H184.499V40.608C184.499 40.1231 184.37 39.7595 184.112 39.517C183.855 39.2746 183.533 39.1534 183.146 39.1534C182.707 39.1534 182.364 39.2936 182.118 39.5739C181.872 39.8504 181.749 40.2159 181.749 40.6705V46H179.402V40.5568C179.402 40.1288 179.279 39.7879 179.033 39.5341C178.79 39.2803 178.47 39.1534 178.072 39.1534C177.804 39.1534 177.561 39.2216 177.345 39.358C177.133 39.4905 176.964 39.678 176.839 39.9205C176.714 40.1591 176.652 40.4394 176.652 40.7614V46H174.232ZM192.803 46.1705C191.905 46.1705 191.132 45.9886 190.484 45.625C189.84 45.2576 189.344 44.7386 188.996 44.0682C188.647 43.3939 188.473 42.5966 188.473 41.6761C188.473 40.7784 188.647 39.9905 188.996 39.3125C189.344 38.6345 189.835 38.1061 190.467 37.7273C191.104 37.3485 191.85 37.1591 192.706 37.1591C193.282 37.1591 193.818 37.2519 194.314 37.4375C194.814 37.6193 195.25 37.8939 195.621 38.2614C195.996 38.6288 196.287 39.0909 196.496 39.6477C196.704 40.2008 196.808 40.8485 196.808 41.5909V42.2557H189.439V40.7557H194.53C194.53 40.4072 194.454 40.0985 194.303 39.8295C194.151 39.5606 193.941 39.3504 193.672 39.1989C193.407 39.0436 193.098 38.9659 192.746 38.9659C192.378 38.9659 192.053 39.0511 191.768 39.2216C191.488 39.3883 191.268 39.6136 191.109 39.8977C190.95 40.178 190.869 40.4905 190.865 40.8352V42.2614C190.865 42.6932 190.945 43.0663 191.104 43.3807C191.267 43.6951 191.496 43.9375 191.791 44.108C192.087 44.2784 192.437 44.3636 192.842 44.3636C193.111 44.3636 193.357 44.3258 193.581 44.25C193.804 44.1742 193.996 44.0606 194.155 43.9091C194.314 43.7576 194.435 43.572 194.518 43.3523L196.757 43.5C196.643 44.0379 196.411 44.5076 196.058 44.9091C195.71 45.3068 195.259 45.6174 194.706 45.8409C194.157 46.0606 193.522 46.1705 192.803 46.1705ZM206.034 46.1705C205.152 46.1705 204.388 45.983 203.744 45.608C203.104 45.2292 202.61 44.7027 202.261 44.0284C201.913 43.3504 201.739 42.5644 201.739 41.6705C201.739 40.7689 201.913 39.9811 202.261 39.3068C202.61 38.6288 203.104 38.1023 203.744 37.7273C204.388 37.3485 205.152 37.1591 206.034 37.1591C206.917 37.1591 207.678 37.3485 208.318 37.7273C208.962 38.1023 209.458 38.6288 209.807 39.3068C210.155 39.9811 210.33 40.7689 210.33 41.6705C210.33 42.5644 210.155 43.3504 209.807 44.0284C209.458 44.7027 208.962 45.2292 208.318 45.608C207.678 45.983 206.917 46.1705 206.034 46.1705ZM206.045 44.2955C206.447 44.2955 206.782 44.1818 207.051 43.9545C207.32 43.7235 207.523 43.4091 207.659 43.0114C207.799 42.6136 207.869 42.161 207.869 41.6534C207.869 41.1458 207.799 40.6932 207.659 40.2955C207.523 39.8977 207.32 39.5833 207.051 39.3523C206.782 39.1212 206.447 39.0057 206.045 39.0057C205.64 39.0057 205.299 39.1212 205.023 39.3523C204.75 39.5833 204.544 39.8977 204.403 40.2955C204.267 40.6932 204.199 41.1458 204.199 41.6534C204.199 42.161 204.267 42.6136 204.403 43.0114C204.544 43.4091 204.75 43.7235 205.023 43.9545C205.299 44.1818 205.64 44.2955 206.045 44.2955ZM214.324 40.9545V46H211.903V37.2727H214.21V38.8125H214.312C214.506 38.3049 214.83 37.9034 215.284 37.608C215.739 37.3087 216.29 37.1591 216.938 37.1591C217.544 37.1591 218.072 37.2917 218.523 37.5568C218.973 37.822 219.324 38.2008 219.574 38.6932C219.824 39.1818 219.949 39.7652 219.949 40.4432V46H217.528V40.875C217.532 40.3409 217.396 39.9242 217.119 39.625C216.843 39.322 216.462 39.1705 215.977 39.1705C215.652 39.1705 215.364 39.2405 215.114 39.3807C214.867 39.5208 214.674 39.7254 214.534 39.9943C214.398 40.2595 214.328 40.5795 214.324 40.9545ZM127.621 56.7102C127.575 56.2519 127.38 55.8958 127.036 55.642C126.691 55.3883 126.223 55.2614 125.632 55.2614C125.231 55.2614 124.892 55.3182 124.615 55.4318C124.339 55.5417 124.126 55.6951 123.979 55.892C123.835 56.089 123.763 56.3125 123.763 56.5625C123.755 56.7708 123.799 56.9527 123.893 57.108C123.992 57.2633 124.126 57.3977 124.297 57.5114C124.467 57.6212 124.664 57.7178 124.888 57.8011C125.111 57.8807 125.35 57.9489 125.604 58.0057L126.649 58.2557C127.157 58.3693 127.623 58.5208 128.047 58.7102C128.471 58.8996 128.839 59.1326 129.149 59.4091C129.46 59.6856 129.7 60.0114 129.871 60.3864C130.045 60.7614 130.134 61.1913 130.138 61.6761C130.134 62.3883 129.952 63.0057 129.592 63.5284C129.236 64.0473 128.721 64.4508 128.047 64.7386C127.376 65.0227 126.568 65.1648 125.621 65.1648C124.681 65.1648 123.863 65.0208 123.166 64.733C122.473 64.4451 121.931 64.0189 121.541 63.4545C121.155 62.8864 120.952 62.1837 120.933 61.3466H123.314C123.34 61.7367 123.452 62.0625 123.649 62.3239C123.85 62.5814 124.117 62.7765 124.45 62.9091C124.787 63.0379 125.168 63.1023 125.592 63.1023C126.009 63.1023 126.371 63.0417 126.678 62.9205C126.988 62.7992 127.229 62.6307 127.399 62.4148C127.57 62.1989 127.655 61.9508 127.655 61.6705C127.655 61.4091 127.577 61.1894 127.422 61.0114C127.27 60.8333 127.047 60.6818 126.751 60.5568C126.46 60.4318 126.102 60.3182 125.678 60.2159L124.411 59.8977C123.429 59.6591 122.655 59.286 122.087 58.7784C121.518 58.2708 121.236 57.5871 121.24 56.7273C121.236 56.0227 121.424 55.4072 121.803 54.8807C122.185 54.3542 122.71 53.9432 123.376 53.6477C124.043 53.3523 124.801 53.2045 125.649 53.2045C126.513 53.2045 127.267 53.3523 127.911 53.6477C128.558 53.9432 129.062 54.3542 129.422 54.8807C129.782 55.4072 129.967 56.017 129.979 56.7102H127.621ZM135.69 65.1705C134.808 65.1705 134.045 64.983 133.401 64.608C132.76 64.2292 132.266 63.7027 131.918 63.0284C131.569 62.3504 131.395 61.5644 131.395 60.6705C131.395 59.7689 131.569 58.9811 131.918 58.3068C132.266 57.6288 132.76 57.1023 133.401 56.7273C134.045 56.3485 134.808 56.1591 135.69 56.1591C136.573 56.1591 137.334 56.3485 137.974 56.7273C138.618 57.1023 139.115 57.6288 139.463 58.3068C139.812 58.9811 139.986 59.7689 139.986 60.6705C139.986 61.5644 139.812 62.3504 139.463 63.0284C139.115 63.7027 138.618 64.2292 137.974 64.608C137.334 64.983 136.573 65.1705 135.69 65.1705ZM135.702 63.2955C136.103 63.2955 136.438 63.1818 136.707 62.9545C136.976 62.7235 137.179 62.4091 137.315 62.0114C137.455 61.6136 137.526 61.161 137.526 60.6534C137.526 60.1458 137.455 59.6932 137.315 59.2955C137.179 58.8977 136.976 58.5833 136.707 58.3523C136.438 58.1212 136.103 58.0057 135.702 58.0057C135.296 58.0057 134.955 58.1212 134.679 58.3523C134.406 58.5833 134.2 58.8977 134.06 59.2955C133.923 59.6932 133.855 60.1458 133.855 60.6534C133.855 61.161 133.923 61.6136 134.06 62.0114C134.2 62.4091 134.406 62.7235 134.679 62.9545C134.955 63.1818 135.296 63.2955 135.702 63.2955ZM145.503 65.1705C144.609 65.1705 143.84 64.9811 143.196 64.6023C142.556 64.2197 142.063 63.6894 141.719 63.0114C141.378 62.3333 141.207 61.553 141.207 60.6705C141.207 59.7765 141.38 58.9924 141.724 58.3182C142.073 57.6402 142.567 57.1117 143.207 56.733C143.848 56.3504 144.609 56.1591 145.491 56.1591C146.253 56.1591 146.92 56.2973 147.491 56.5739C148.063 56.8504 148.516 57.2386 148.849 57.7386C149.183 58.2386 149.366 58.8258 149.401 59.5H147.116C147.052 59.0644 146.882 58.714 146.605 58.4489C146.332 58.1799 145.974 58.0455 145.531 58.0455C145.156 58.0455 144.829 58.1477 144.548 58.3523C144.272 58.553 144.056 58.8466 143.901 59.233C143.745 59.6193 143.668 60.0871 143.668 60.6364C143.668 61.1932 143.743 61.6667 143.895 62.0568C144.05 62.447 144.268 62.7443 144.548 62.9489C144.829 63.1534 145.156 63.2557 145.531 63.2557C145.808 63.2557 146.056 63.1989 146.276 63.0852C146.499 62.9716 146.683 62.8068 146.827 62.5909C146.974 62.3712 147.071 62.108 147.116 61.8011H149.401C149.363 62.4678 149.181 63.0549 148.855 63.5625C148.533 64.0663 148.088 64.4602 147.52 64.7443C146.952 65.0284 146.279 65.1705 145.503 65.1705ZM150.95 65V56.2727H153.371V65H150.95ZM152.166 55.1477C151.806 55.1477 151.498 55.0284 151.24 54.7898C150.986 54.5473 150.859 54.2576 150.859 53.9205C150.859 53.5871 150.986 53.3011 151.24 53.0625C151.498 52.8201 151.806 52.6989 152.166 52.6989C152.526 52.6989 152.833 52.8201 153.087 53.0625C153.344 53.3011 153.473 53.5871 153.473 53.9205C153.473 54.2576 153.344 54.5473 153.087 54.7898C152.833 55.0284 152.526 55.1477 152.166 55.1477ZM157.798 65.1648C157.241 65.1648 156.745 65.0682 156.31 64.875C155.874 64.678 155.529 64.3883 155.276 64.0057C155.026 63.6193 154.901 63.1383 154.901 62.5625C154.901 62.0777 154.99 61.6705 155.168 61.3409C155.346 61.0114 155.588 60.7462 155.895 60.5455C156.202 60.3447 156.55 60.1932 156.94 60.0909C157.334 59.9886 157.747 59.9167 158.179 59.875C158.687 59.822 159.096 59.7727 159.406 59.7273C159.717 59.678 159.942 59.6061 160.082 59.5114C160.223 59.4167 160.293 59.2765 160.293 59.0909V59.0568C160.293 58.697 160.179 58.4186 159.952 58.2216C159.728 58.0246 159.41 57.9261 158.997 57.9261C158.562 57.9261 158.215 58.0227 157.957 58.2159C157.7 58.4053 157.529 58.6439 157.446 58.9318L155.207 58.75C155.321 58.2197 155.545 57.7614 155.878 57.375C156.211 56.9848 156.641 56.6856 157.168 56.4773C157.698 56.2652 158.312 56.1591 159.009 56.1591C159.493 56.1591 159.957 56.2159 160.401 56.3295C160.848 56.4432 161.243 56.6193 161.588 56.858C161.937 57.0966 162.211 57.4034 162.412 57.7784C162.613 58.1496 162.713 58.5947 162.713 59.1136V65H160.418V63.7898H160.349C160.209 64.0625 160.022 64.303 159.787 64.5114C159.552 64.7159 159.27 64.8769 158.94 64.9943C158.611 65.108 158.23 65.1648 157.798 65.1648ZM158.491 63.4943C158.848 63.4943 159.162 63.4242 159.435 63.2841C159.707 63.1402 159.921 62.947 160.077 62.7045C160.232 62.4621 160.31 62.1875 160.31 61.8807V60.9545C160.234 61.0038 160.13 61.0492 159.997 61.0909C159.868 61.1288 159.723 61.1648 159.56 61.1989C159.397 61.2292 159.234 61.2576 159.071 61.2841C158.908 61.3068 158.76 61.3277 158.628 61.3466C158.344 61.3883 158.096 61.4545 157.884 61.5455C157.671 61.6364 157.507 61.7595 157.389 61.9148C157.272 62.0663 157.213 62.2557 157.213 62.483C157.213 62.8125 157.332 63.0644 157.571 63.2386C157.813 63.4091 158.12 63.4943 158.491 63.4943ZM167.011 53.3636V65H164.591V53.3636H167.011ZM172.699 53.3636H175.733L178.938 61.1818H179.074L182.278 53.3636H185.312V65H182.926V57.4261H182.83L179.818 64.9432H178.193L175.182 57.3977H175.085V65H172.699V53.3636ZM191.271 65.1705C190.374 65.1705 189.601 64.9886 188.953 64.625C188.309 64.2576 187.813 63.7386 187.464 63.0682C187.116 62.3939 186.942 61.5966 186.942 60.6761C186.942 59.7784 187.116 58.9905 187.464 58.3125C187.813 57.6345 188.304 57.1061 188.936 56.7273C189.572 56.3485 190.319 56.1591 191.175 56.1591C191.75 56.1591 192.286 56.2519 192.783 56.4375C193.283 56.6193 193.718 56.8939 194.089 57.2614C194.464 57.6288 194.756 58.0909 194.964 58.6477C195.173 59.2008 195.277 59.8485 195.277 60.5909V61.2557H187.908V59.7557H192.999C192.999 59.4072 192.923 59.0985 192.771 58.8295C192.62 58.5606 192.41 58.3504 192.141 58.1989C191.875 58.0436 191.567 57.9659 191.214 57.9659C190.847 57.9659 190.521 58.0511 190.237 58.2216C189.957 58.3883 189.737 58.6136 189.578 58.8977C189.419 59.178 189.338 59.4905 189.334 59.8352V61.2614C189.334 61.6932 189.413 62.0663 189.572 62.3807C189.735 62.6951 189.964 62.9375 190.26 63.108C190.555 63.2784 190.906 63.3636 191.311 63.3636C191.58 63.3636 191.826 63.3258 192.05 63.25C192.273 63.1742 192.464 63.0606 192.624 62.9091C192.783 62.7576 192.904 62.572 192.987 62.3523L195.226 62.5C195.112 63.0379 194.879 63.5076 194.527 63.9091C194.179 64.3068 193.728 64.6174 193.175 64.8409C192.625 65.0606 191.991 65.1705 191.271 65.1705ZM200.072 65.142C199.41 65.142 198.809 64.9716 198.271 64.6307C197.737 64.286 197.313 63.7803 196.999 63.1136C196.688 62.4432 196.533 61.6212 196.533 60.6477C196.533 59.6477 196.694 58.8163 197.016 58.1534C197.338 57.4867 197.766 56.9886 198.3 56.6591C198.838 56.3258 199.427 56.1591 200.067 56.1591C200.555 56.1591 200.963 56.2424 201.288 56.4091C201.618 56.572 201.883 56.7765 202.084 57.0227C202.288 57.2652 202.444 57.5038 202.55 57.7386H202.624V53.3636H205.038V65H202.652V63.6023H202.55C202.436 63.8447 202.275 64.0852 202.067 64.3239C201.862 64.5587 201.595 64.7538 201.266 64.9091C200.94 65.0644 200.542 65.142 200.072 65.142ZM200.839 63.2159C201.23 63.2159 201.559 63.1098 201.828 62.8977C202.101 62.6818 202.309 62.3807 202.453 61.9943C202.601 61.608 202.675 61.1553 202.675 60.6364C202.675 60.1174 202.603 59.6667 202.459 59.2841C202.315 58.9015 202.107 58.6061 201.834 58.3977C201.561 58.1894 201.23 58.0852 200.839 58.0852C200.442 58.0852 200.107 58.1932 199.834 58.4091C199.561 58.625 199.355 58.9242 199.214 59.3068C199.074 59.6894 199.004 60.1326 199.004 60.6364C199.004 61.1439 199.074 61.5928 199.214 61.983C199.358 62.3693 199.565 62.6723 199.834 62.892C200.107 63.108 200.442 63.2159 200.839 63.2159ZM207.028 65V56.2727H209.449V65H207.028ZM208.244 55.1477C207.884 55.1477 207.576 55.0284 207.318 54.7898C207.064 54.5473 206.938 54.2576 206.938 53.9205C206.938 53.5871 207.064 53.3011 207.318 53.0625C207.576 52.8201 207.884 52.6989 208.244 52.6989C208.604 52.6989 208.911 52.8201 209.165 53.0625C209.422 53.3011 209.551 53.5871 209.551 53.9205C209.551 54.2576 209.422 54.5473 209.165 54.7898C208.911 55.0284 208.604 55.1477 208.244 55.1477ZM213.876 65.1648C213.32 65.1648 212.823 65.0682 212.388 64.875C211.952 64.678 211.607 64.3883 211.354 64.0057C211.104 63.6193 210.979 63.1383 210.979 62.5625C210.979 62.0777 211.068 61.6705 211.246 61.3409C211.424 61.0114 211.666 60.7462 211.973 60.5455C212.28 60.3447 212.628 60.1932 213.018 60.0909C213.412 59.9886 213.825 59.9167 214.257 59.875C214.765 59.822 215.174 59.7727 215.484 59.7273C215.795 59.678 216.02 59.6061 216.161 59.5114C216.301 59.4167 216.371 59.2765 216.371 59.0909V59.0568C216.371 58.697 216.257 58.4186 216.03 58.2216C215.806 58.0246 215.488 57.9261 215.075 57.9261C214.64 57.9261 214.293 58.0227 214.036 58.2159C213.778 58.4053 213.607 58.6439 213.524 58.9318L211.286 58.75C211.399 58.2197 211.623 57.7614 211.956 57.375C212.289 56.9848 212.719 56.6856 213.246 56.4773C213.776 56.2652 214.39 56.1591 215.087 56.1591C215.571 56.1591 216.036 56.2159 216.479 56.3295C216.926 56.4432 217.321 56.6193 217.666 56.858C218.015 57.0966 218.289 57.4034 218.49 57.7784C218.691 58.1496 218.791 58.5947 218.791 59.1136V65H216.496V63.7898H216.428C216.287 64.0625 216.1 64.303 215.865 64.5114C215.63 64.7159 215.348 64.8769 215.018 64.9943C214.689 65.108 214.308 65.1648 213.876 65.1648ZM214.57 63.4943C214.926 63.4943 215.24 63.4242 215.513 63.2841C215.786 63.1402 216 62.947 216.155 62.7045C216.31 62.4621 216.388 62.1875 216.388 61.8807V60.9545C216.312 61.0038 216.208 61.0492 216.075 61.0909C215.946 61.1288 215.801 61.1648 215.638 61.1989C215.475 61.2292 215.312 61.2576 215.149 61.2841C214.986 61.3068 214.839 61.3277 214.706 61.3466C214.422 61.3883 214.174 61.4545 213.962 61.5455C213.75 61.6364 213.585 61.7595 213.467 61.9148C213.35 62.0663 213.291 62.2557 213.291 62.483C213.291 62.8125 213.411 63.0644 213.649 63.2386C213.892 63.4091 214.198 63.4943 214.57 63.4943Z" fill="black"/>
<path d="M249.599 57.84C249.299 56.12 248.079 53.96 245.759 52.22C244.619 51.36 243.459 50.8 242.319 50.56V49.72C244.579 49.18 246.799 47.66 248.219 45.6C248.939 44.56 249.399 43.54 249.599 42.48H250.439C250.779 44.5 252.339 46.74 254.459 48.24C255.499 48.98 256.579 49.48 257.679 49.72V50.56C255.459 51.02 252.879 53 251.599 55.02C250.959 56.04 250.579 56.98 250.439 57.84H249.599Z" fill="black"/>
<path d="M89.5988 57.84C89.2988 56.12 88.0788 53.96 85.7588 52.22C84.6188 51.36 83.4588 50.8 82.3188 50.56V49.72C84.5788 49.18 86.7988 47.66 88.2188 45.6C88.9388 44.56 89.3988 43.54 89.5988 42.48H90.4388C90.7788 44.5 92.3388 46.74 94.4588 48.24C95.4988 48.98 96.5788 49.48 97.6788 49.72V50.56C95.4588 51.02 92.8788 53 91.5988 55.02C90.9588 56.04 90.5788 56.98 90.4388 57.84H89.5988Z" fill="black"/>
<g clip-path="url(#clip0_528_118)">
<path d="M93.5781 87.75H71.3281C65.184 87.75 60.2031 92.7308 60.2031 98.875V121.125C60.2031 127.269 65.184 132.25 71.3281 132.25H93.5781C99.7223 132.25 104.703 127.269 104.703 121.125V98.875C104.703 92.7308 99.7223 87.75 93.5781 87.75Z" fill="black"/>
<mask id="mask0_528_118" style="mask-type:luminance" maskUnits="userSpaceOnUse" x="69" y="96" width="27" height="28">
<path d="M95.8031 96.65H69.1031V123.35H95.8031V96.65Z" fill="white"/>
</mask>
<g mask="url(#mask0_528_118)">
<path fill-rule="evenodd" clip-rule="evenodd" d="M82.4531 96.65C75.0772 96.65 69.1031 102.624 69.1031 110C69.1031 115.907 72.9246 120.897 78.2312 122.666C78.8987 122.783 79.149 122.382 79.149 122.032C79.149 121.715 79.1323 120.663 79.1323 119.545C75.7781 120.163 74.9104 118.728 74.6434 117.977C74.4932 117.593 73.8424 116.408 73.275 116.091C72.8077 115.841 72.1402 115.223 73.2583 115.207C74.3096 115.19 75.0606 116.174 75.3109 116.575C76.5124 118.594 78.4314 118.027 79.1991 117.676C79.3159 116.809 79.6663 116.224 80.0501 115.891C77.0797 115.557 73.9759 114.406 73.9759 109.299C73.9759 107.847 74.4932 106.646 75.3442 105.711C75.2107 105.378 74.7435 104.009 75.4777 102.174C75.4777 102.174 76.5958 101.823 79.149 103.542C80.217 103.242 81.3517 103.091 82.4865 103.091C83.6212 103.091 84.756 103.242 85.824 103.542C88.3772 101.806 89.4952 102.174 89.4952 102.174C90.2295 104.009 89.7622 105.378 89.6287 105.711C90.4798 106.646 90.9971 107.831 90.9971 109.299C90.9971 114.422 87.8766 115.557 84.9062 115.891C85.3901 116.308 85.8073 117.109 85.8073 118.36C85.8073 120.146 85.7906 121.581 85.7906 122.032C85.7906 122.382 86.0409 122.799 86.7084 122.666C91.9817 120.897 95.8031 115.891 95.8031 110C95.8031 102.624 89.829 96.65 82.4531 96.65Z" fill="white"/>
</g>
</g>
<g clip-path="url(#clip1_528_118)">
<path d="M151.984 87.75H129.734C123.59 87.75 118.609 92.7308 118.609 98.875V121.125C118.609 127.269 123.59 132.25 129.734 132.25H151.984C158.129 132.25 163.109 127.269 163.109 121.125V98.875C163.109 92.7308 158.129 87.75 151.984 87.75Z" fill="#3E3E3E"/>
<mask id="mask1_528_118" style="mask-type:luminance" maskUnits="userSpaceOnUse" x="127" y="96" width="28" height="28">
<path d="M154.209 96.65H127.509L127.509 123.35H154.209L154.209 96.65Z" fill="white"/>
</mask>
<g mask="url(#mask1_528_118)">
<path d="M136.667 123.35C139.264 123.35 141.372 121.357 141.372 118.9V114.45H136.667C134.07 114.45 131.961 116.444 131.961 118.9C131.961 121.357 134.07 123.35 136.667 123.35Z" fill="#0ACF83"/>
<path d="M131.96 110C131.96 107.543 134.068 105.55 136.666 105.55H141.371L141.371 114.45H136.666C134.068 114.45 131.96 112.456 131.96 110Z" fill="#A259FF"/>
<path d="M131.96 101.1C131.96 98.6436 134.068 96.65 136.666 96.65H141.371L141.371 105.55H136.666C134.068 105.55 131.96 103.556 131.96 101.1Z" fill="#F24E1E"/>
<path d="M141.371 96.6498H146.077C148.674 96.6498 150.782 98.6434 150.782 101.1C150.782 103.556 148.674 105.55 146.076 105.55H141.371L141.371 96.6498Z" fill="#FF7262"/>
<path d="M150.782 110C150.782 112.456 148.674 114.45 146.076 114.45C143.479 114.45 141.371 112.456 141.371 110C141.371 107.543 143.479 105.55 146.077 105.55C148.674 105.55 150.782 107.543 150.782 110Z" fill="#1ABCFE"/>
</g>
</g>
<g clip-path="url(#clip2_528_118)">
<path d="M210.391 87.75H188.141C181.996 87.75 177.016 92.7308 177.016 98.875V121.125C177.016 127.269 181.996 132.25 188.141 132.25H210.391C216.535 132.25 221.516 127.269 221.516 121.125V98.875C221.516 92.7308 216.535 87.75 210.391 87.75Z" fill="#006699"/>
<path fill-rule="evenodd" clip-rule="evenodd" d="M193.408 120.012V105H188.418V120.012H193.408ZM190.913 102.95C192.653 102.95 193.736 101.797 193.736 100.356C193.703 98.8833 192.653 97.7625 190.946 97.7625C189.239 97.7625 188.123 98.8833 188.123 100.356C188.123 101.797 189.206 102.95 190.88 102.95H190.913Z" fill="white"/>
<path fill-rule="evenodd" clip-rule="evenodd" d="M196.169 120.013H201.159V111.629C201.159 111.18 201.191 110.732 201.323 110.411C201.684 109.515 202.505 108.586 203.883 108.586C205.689 108.586 206.411 109.963 206.411 111.981V120.013H211.401V111.404C211.401 106.793 208.939 104.647 205.656 104.647C202.964 104.647 201.782 106.152 201.126 107.177H201.159V105H196.169C196.234 106.408 196.169 120.013 196.169 120.013Z" fill="white"/>
</g>
<g clip-path="url(#clip3_528_118)">
<path d="M268.797 87.75H246.547C240.403 87.75 235.422 92.7308 235.422 98.875V121.125C235.422 127.269 240.403 132.25 246.547 132.25H268.797C274.941 132.25 279.922 127.269 279.922 121.125V98.875C279.922 92.7308 274.941 87.75 268.797 87.75Z" fill="black"/>
<path d="M268.797 88.3063H246.547C240.71 88.3063 235.978 93.0381 235.978 98.875V121.125C235.978 126.962 240.71 131.694 246.547 131.694H268.797C274.634 131.694 279.366 126.962 279.366 121.125V98.875C279.366 93.0381 274.634 88.3063 268.797 88.3063Z" stroke="black" stroke-opacity="0.08" stroke-width="1.1125"/>
<mask id="mask2_528_118" style="mask-type:alpha" maskUnits="userSpaceOnUse" x="235" y="87" width="45" height="46">
<path d="M268.797 87.75H246.547C240.403 87.75 235.422 92.7308 235.422 98.875V121.125C235.422 127.269 240.403 132.25 246.547 132.25H268.797C274.941 132.25 279.922 127.269 279.922 121.125V98.875C279.922 92.7308 274.941 87.75 268.797 87.75Z" fill="black"/>
<path d="M268.797 88.3063H246.547C240.71 88.3063 235.978 93.0381 235.978 98.875V121.125C235.978 126.962 240.71 131.694 246.547 131.694H268.797C274.634 131.694 279.366 126.962 279.366 121.125V98.875C279.366 93.0381 274.634 88.3063 268.797 88.3063Z" stroke="black" stroke-opacity="0.08" stroke-width="1.1125"/>
</mask>
<g mask="url(#mask2_528_118)">
<path d="M257.679 87.75C248.39 87.75 245.673 87.7596 245.145 87.8034C243.239 87.9619 242.053 88.262 240.76 88.9054C239.764 89.4 238.979 89.9732 238.204 90.7768C236.792 92.2423 235.936 94.0452 235.627 96.1884C235.476 97.2288 235.432 97.441 235.423 102.755C235.42 104.527 235.423 106.858 235.423 109.985C235.423 119.267 235.434 121.981 235.478 122.508C235.632 124.363 235.923 125.53 236.539 126.807C237.716 129.25 239.965 131.085 242.614 131.769C243.531 132.005 244.544 132.135 245.845 132.197C246.396 132.221 252.012 132.238 257.632 132.238C263.251 132.238 268.871 132.231 269.408 132.204C270.914 132.133 271.789 132.016 272.755 131.766C274.069 131.429 275.293 130.809 276.342 129.95C277.391 129.092 278.241 128.014 278.83 126.793C279.434 125.547 279.741 124.336 279.879 122.577C279.909 122.194 279.922 116.083 279.922 109.98C279.922 103.875 279.908 97.775 279.878 97.3917C279.738 95.6052 279.432 94.4039 278.808 93.1342C278.296 92.0948 277.728 91.3186 276.903 90.5249C275.432 89.119 273.632 88.2634 271.486 87.954C270.447 87.8037 270.24 87.7592 264.921 87.75H257.679Z" fill="url(#paint0_radial_528_118)"/>
<path d="M257.679 87.75C248.39 87.75 245.673 87.7596 245.145 87.8034C243.239 87.9619 242.053 88.262 240.76 88.9054C239.764 89.4 238.979 89.9732 238.204 90.7768C236.792 92.2423 235.936 94.0452 235.627 96.1884C235.476 97.2288 235.432 97.441 235.423 102.755C235.42 104.527 235.423 106.858 235.423 109.985C235.423 119.267 235.434 121.981 235.478 122.508C235.632 124.363 235.923 125.53 236.539 126.807C237.716 129.25 239.965 131.085 242.614 131.769C243.531 132.005 244.544 132.135 245.845 132.197C246.396 132.221 252.012 132.238 257.632 132.238C263.251 132.238 268.871 132.231 269.408 132.204C270.914 132.133 271.789 132.016 272.755 131.766C274.069 131.429 275.293 130.809 276.342 129.95C277.391 129.092 278.241 128.014 278.83 126.793C279.434 125.547 279.741 124.336 279.879 122.577C279.909 122.194 279.922 116.083 279.922 109.98C279.922 103.875 279.908 97.775 279.878 97.3917C279.738 95.6052 279.432 94.4039 278.808 93.1342C278.296 92.0948 277.728 91.3186 276.903 90.5249C275.432 89.119 273.632 88.2634 271.486 87.954C270.447 87.8037 270.24 87.7592 264.921 87.75H257.679Z" fill="url(#paint1_radial_528_118)"/>
</g>
<path d="M257.673 96.65C254.047 96.65 253.592 96.6659 252.168 96.7307C250.747 96.7958 249.777 97.0208 248.928 97.3509C248.05 97.6919 247.305 98.148 246.563 98.8904C245.82 99.6324 245.364 100.377 245.022 101.255C244.691 102.104 244.466 103.074 244.402 104.495C244.339 105.919 244.322 106.374 244.322 110C244.322 113.626 244.338 114.079 244.403 115.503C244.468 116.925 244.693 117.895 245.023 118.743C245.364 119.621 245.82 120.366 246.562 121.108C247.304 121.851 248.049 122.308 248.927 122.649C249.776 122.979 250.746 123.204 252.167 123.269C253.591 123.334 254.046 123.35 257.671 123.35C261.297 123.35 261.751 123.334 263.175 123.269C264.596 123.204 265.568 122.979 266.417 122.649C267.295 122.308 268.038 121.851 268.78 121.108C269.523 120.366 269.979 119.621 270.321 118.744C270.649 117.895 270.874 116.924 270.941 115.504C271.005 114.08 271.022 113.626 271.022 110C271.022 106.374 271.005 105.919 270.941 104.495C270.874 103.074 270.649 102.104 270.321 101.255C269.979 100.377 269.523 99.6324 268.78 98.8904C268.038 98.1477 267.295 97.6916 266.416 97.3509C265.565 97.0208 264.594 96.7958 263.173 96.7307C261.749 96.6659 261.296 96.65 257.669 96.65H257.673ZM256.475 99.0558C256.831 99.0552 257.227 99.0558 257.673 99.0558C261.237 99.0558 261.66 99.0686 263.067 99.1326C264.369 99.1921 265.075 99.4096 265.546 99.5924C266.169 99.8343 266.613 100.124 267.08 100.591C267.548 101.058 267.837 101.503 268.079 102.126C268.262 102.596 268.48 103.302 268.539 104.604C268.603 106.011 268.617 106.434 268.617 109.997C268.617 113.56 268.603 113.982 268.539 115.39C268.479 116.691 268.262 117.398 268.079 117.868C267.837 118.491 267.548 118.935 267.08 119.402C266.613 119.869 266.169 120.158 265.546 120.4C265.076 120.584 264.369 120.801 263.067 120.86C261.66 120.924 261.237 120.938 257.673 120.938C254.108 120.938 253.686 120.924 252.278 120.86C250.977 120.8 250.27 120.582 249.799 120.4C249.176 120.158 248.731 119.868 248.264 119.401C247.797 118.934 247.508 118.49 247.265 117.867C247.082 117.397 246.864 116.69 246.805 115.389C246.741 113.981 246.729 113.559 246.729 109.994C246.729 106.429 246.741 106.008 246.805 104.601C246.865 103.299 247.082 102.593 247.265 102.122C247.507 101.499 247.797 101.054 248.264 100.587C248.731 100.12 249.176 99.8303 249.799 99.5878C250.27 99.4042 250.977 99.1874 252.278 99.1276C253.51 99.0719 253.987 99.0552 256.475 99.0525V99.0558ZM264.799 101.272C264.482 101.272 264.172 101.366 263.909 101.542C263.645 101.719 263.44 101.969 263.319 102.262C263.198 102.554 263.166 102.876 263.228 103.187C263.29 103.498 263.442 103.783 263.666 104.007C263.891 104.231 264.176 104.384 264.487 104.446C264.798 104.508 265.12 104.476 265.413 104.354C265.705 104.233 265.955 104.028 266.131 103.764C266.307 103.501 266.401 103.191 266.401 102.874C266.401 101.989 265.683 101.272 264.799 101.272ZM257.673 103.144C253.887 103.144 250.817 106.214 250.817 110C250.817 113.786 253.887 116.854 257.673 116.854C261.459 116.854 264.528 113.786 264.528 110C264.528 106.214 261.459 103.144 257.673 103.144ZM257.673 105.55C260.13 105.55 262.123 107.542 262.123 110C262.123 112.458 260.13 114.45 257.673 114.45C255.215 114.45 253.223 112.458 253.223 110C253.223 107.542 255.215 105.55 257.673 105.55Z" fill="white"/>
</g>
<defs>
<radialGradient id="paint0_radial_528_118" cx="0" cy="0" r="1" gradientUnits="userSpaceOnUse" gradientTransform="translate(247.242 135.665) rotate(-90) scale(44.0909 41.0192)">
<stop stop-color="#FFDD55"/>
<stop offset="0.1" stop-color="#FFDD55"/>
<stop offset="0.5" stop-color="#FF543E"/>
<stop offset="1" stop-color="#C837AB"/>
</radialGradient>
<radialGradient id="paint1_radial_528_118" cx="0" cy="0" r="1" gradientUnits="userSpaceOnUse" gradientTransform="translate(227.968 90.9548) rotate(78.6776) scale(19.7091 81.262)">
<stop stop-color="#3771C8"/>
<stop offset="0.128" stop-color="#3771C8"/>
<stop offset="1" stop-color="#6600FF" stop-opacity="0"/>
</radialGradient>
<clipPath id="clip0_528_118">
<rect width="44.5" height="44.5" fill="white" transform="translate(60.2031 87.75)"/>
</clipPath>
<clipPath id="clip1_528_118">
<rect width="44.5" height="44.5" fill="white" transform="translate(118.609 87.75)"/>
</clipPath>
<clipPath id="clip2_528_118">
<rect width="44.5" height="44.5" fill="white" transform="translate(177.016 87.75)"/>
</clipPath>
<clipPath id="clip3_528_118">
<rect width="44.5" height="44.5" fill="white" transform="translate(235.422 87.75)"/>
</clipPath>
</defs>
</svg>
