<svg width="128" height="128" viewBox="0 0 128 128" fill="none" xmlns="http://www.w3.org/2000/svg">
<g clip-path="url(#clip0_818_352)">
<rect width="32" height="128" fill="url(#paint0_linear_818_352)"/>
<rect x="32" width="32" height="128" fill="url(#paint1_linear_818_352)"/>
<rect x="64" width="32" height="128" fill="url(#paint2_linear_818_352)"/>
<rect x="96" width="32" height="128" fill="url(#paint3_linear_818_352)"/>
<g filter="url(#filter0_b_818_352)">
<path d="M2 95.75V32C2 15.4315 15.4315 2 32 2H96C112.569 2 126 15.4315 126 32V95.75C126 112.319 112.569 125.75 96 125.75H32C15.4315 125.75 2 112.319 2 95.75Z" stroke="url(#paint4_linear_818_352)" stroke-opacity="0.12" stroke-width="4"/>
</g>
</g>
<defs>
<filter id="filter0_b_818_352" x="-48" y="-48" width="224" height="223.75" filterUnits="userSpaceOnUse" color-interpolation-filters="sRGB">
<feFlood flood-opacity="0" result="BackgroundImageFix"/>
<feGaussianBlur in="BackgroundImageFix" stdDeviation="24"/>
<feComposite in2="SourceAlpha" operator="in" result="effect1_backgroundBlur_818_352"/>
<feBlend mode="normal" in="SourceGraphic" in2="effect1_backgroundBlur_818_352" result="shape"/>
</filter>
<linearGradient id="paint0_linear_818_352" x1="16" y1="0" x2="16" y2="128" gradientUnits="userSpaceOnUse">
<stop stop-color="#404040"/>
<stop offset="0.5" stop-color="#808080"/>
<stop offset="0.75" stop-color="#BFBFBF"/>
<stop offset="1" stop-color="#A6A6A6"/>
</linearGradient>
<linearGradient id="paint1_linear_818_352" x1="48" y1="0" x2="48" y2="128" gradientUnits="userSpaceOnUse">
<stop stop-color="#064979"/>
<stop offset="0.5" stop-color="#0C92F3"/>
<stop offset="0.75" stop-color="#86C8F9"/>
<stop offset="1" stop-color="#CEE9FD"/>
</linearGradient>
<linearGradient id="paint2_linear_818_352" x1="80" y1="0" x2="80" y2="128" gradientUnits="userSpaceOnUse">
<stop stop-color="#800000"/>
<stop offset="0.5" stop-color="#FF0000"/>
<stop offset="0.75" stop-color="#FF8080"/>
<stop offset="1" stop-color="#FFCCCC"/>
</linearGradient>
<linearGradient id="paint3_linear_818_352" x1="112" y1="0" x2="112" y2="128" gradientUnits="userSpaceOnUse">
<stop stop-color="#806600"/>
<stop offset="0.5" stop-color="#FFCC00"/>
<stop offset="0.75" stop-color="#FFE680"/>
<stop offset="1" stop-color="#FFF5CC"/>
</linearGradient>
<linearGradient id="paint4_linear_818_352" x1="64" y1="0" x2="64" y2="127.75" gradientUnits="userSpaceOnUse">
<stop stop-color="white"/>
<stop offset="1"/>
</linearGradient>
<clipPath id="clip0_818_352">
<rect width="128" height="128" rx="32" fill="white"/>
</clipPath>
</defs>
</svg>
