<svg width="64" height="64" viewBox="0 0 64 64" fill="none" xmlns="http://www.w3.org/2000/svg">
<g clip-path="url(#clip0_957_121)">
<path d="M64 0H5.8292e-06L0 64H64V0Z" fill="black"/>
<path d="M64 0H5.8292e-06L0 64H64V0Z" fill="url(#paint0_radial_957_121)"/>
<path d="M64 0H5.8292e-06L0 64H64V0Z" fill="url(#paint1_radial_957_121)"/>
<path d="M32.0014 12.8C26.7869 12.8 26.1325 12.8228 24.0845 12.916C22.0405 13.0096 20.6453 13.3332 19.4245 13.808C18.1616 14.2984 17.0904 14.9544 16.0232 16.0221C14.9552 17.0893 14.2992 18.1603 13.8072 19.4227C13.3312 20.644 13.0072 22.0397 12.9152 24.0829C12.824 26.1307 12.8 26.7856 12.8 32C12.8 37.2144 12.8232 37.8669 12.916 39.9149C13.01 41.9589 13.3336 43.3539 13.808 44.5747C14.2988 45.8376 14.9548 46.9088 16.0224 47.976C17.0893 49.044 18.1605 49.7016 19.4224 50.192C20.6442 50.6667 22.0397 50.9904 24.0834 51.084C26.1314 51.1773 26.7853 51.2 31.9994 51.2C37.2142 51.2 37.8667 51.1773 39.9147 51.084C41.9587 50.9904 43.3555 50.6667 44.5771 50.192C45.8395 49.7016 46.9091 49.044 47.976 47.976C49.044 46.9088 49.7 45.8376 50.192 44.5752C50.664 43.3541 50.988 41.9584 51.084 39.9152C51.176 37.8672 51.2 37.2144 51.2 32C51.2 26.7856 51.176 26.1312 51.084 24.0832C50.988 22.0392 50.664 20.644 50.192 19.4232C49.7 18.1603 49.044 17.0893 47.976 16.0221C46.908 14.954 45.84 14.298 44.576 13.808C43.3518 13.3332 41.9558 13.0096 39.9118 12.916C37.8638 12.8228 37.2118 12.8 31.9958 12.8H32.0014ZM30.279 16.26C30.7902 16.2592 31.3606 16.26 32.0014 16.26C37.1278 16.26 37.7355 16.2784 39.7598 16.3704C41.6318 16.456 42.6478 16.7688 43.3246 17.0317C44.2208 17.3797 44.8595 17.7957 45.5312 18.4677C46.2032 19.1397 46.6192 19.7795 46.968 20.6755C47.2307 21.3515 47.544 22.3675 47.6291 24.2395C47.7211 26.2637 47.7411 26.8715 47.7411 31.9955C47.7411 37.1195 47.7211 37.7275 47.6291 39.7515C47.5435 41.6235 47.2307 42.6395 46.968 43.3157C46.62 44.2115 46.2032 44.8496 45.5312 45.5213C44.8592 46.1933 44.2211 46.6091 43.3246 46.9571C42.6486 47.2213 41.6318 47.5333 39.7598 47.6187C37.7358 47.7109 37.1278 47.7309 32.0014 47.7309C26.8746 47.7309 26.2669 47.7109 24.2429 47.6187C22.3709 47.5323 21.3549 47.2195 20.6778 46.9568C19.7816 46.6088 19.1416 46.1928 18.4696 45.5208C17.7976 44.8488 17.3816 44.2104 17.0328 43.3141C16.7701 42.6381 16.4568 41.6221 16.3717 39.7501C16.2797 37.7259 16.2613 37.1179 16.2613 31.9907C16.2613 26.8635 16.2797 26.2589 16.3717 24.2349C16.4573 22.3629 16.7701 21.3467 17.0328 20.6699C17.3808 19.7739 17.7976 19.1341 18.4696 18.4621C19.1416 17.7901 19.7816 17.3739 20.6778 17.0251C21.3546 16.7611 22.3709 16.4493 24.2429 16.3632C26.0141 16.2832 26.7005 16.2592 30.279 16.2552V16.26ZM42.2502 19.448C41.7946 19.448 41.3491 19.5832 40.9702 19.8363C40.5912 20.0896 40.296 20.4494 40.1216 20.8705C39.9472 21.2915 39.9016 21.7549 39.9906 22.2017C40.0795 22.6488 40.299 23.0592 40.6214 23.3814C40.9437 23.7037 41.3542 23.923 41.8013 24.0118C42.2483 24.1006 42.7115 24.0549 43.1326 23.8803C43.5536 23.7059 43.9133 23.4104 44.1664 23.0315C44.4195 22.6525 44.5546 22.2069 44.5544 21.7512C44.5544 20.4792 43.5222 19.448 42.2502 19.448ZM32.0014 22.14C26.5562 22.14 22.1413 26.5549 22.1413 32C22.1413 37.4451 26.5562 41.8579 32.0014 41.8579C37.4467 41.8579 41.8603 37.4451 41.8603 32C41.8603 26.5549 37.4467 22.14 32.0014 22.14ZM32.0014 25.6C35.5358 25.6 38.4014 28.4653 38.4014 32C38.4014 35.5344 35.5358 38.4 32.0014 38.4C28.4666 38.4 25.6013 35.5344 25.6013 32C25.6013 28.4653 28.4666 25.6 32.0014 25.6Z" fill="white"/>
</g>
<defs>
<radialGradient id="paint0_radial_957_121" cx="0" cy="0" r="1" gradientUnits="userSpaceOnUse" gradientTransform="translate(17.0001 68.9293) rotate(-90) scale(63.4286 58.9936)">
<stop stop-color="#FFDD55"/>
<stop offset="0.1" stop-color="#FFDD55"/>
<stop offset="0.5" stop-color="#FF543E"/>
<stop offset="1" stop-color="#C837AB"/>
</radialGradient>
<radialGradient id="paint1_radial_957_121" cx="0" cy="0" r="1" gradientUnits="userSpaceOnUse" gradientTransform="translate(-10.7203 4.61045) rotate(78.6806) scale(28.3529 116.872)">
<stop stop-color="#3771C8"/>
<stop offset="0.128" stop-color="#3771C8"/>
<stop offset="1" stop-color="#6600FF" stop-opacity="0"/>
</radialGradient>
<clipPath id="clip0_957_121">
<rect width="64" height="64" rx="12" fill="white"/>
</clipPath>
</defs>
</svg>
