<svg width="64" height="64" viewBox="0 0 64 64" fill="none" xmlns="http://www.w3.org/2000/svg">
<g clip-path="url(#clip0_957_117)">
<path d="M64 0H1.52588e-05V64H64V0Z" fill="#006699"/>
<path fill-rule="evenodd" clip-rule="evenodd" d="M23.575 46.4V24.8085H16.3984V46.4H23.575ZM19.9867 21.8606C22.4893 21.8606 24.047 20.2026 24.047 18.1306C24.0003 16.012 22.4893 14.4 20.0342 14.4C17.5794 14.4 15.9742 16.012 15.9742 18.1306C15.9742 20.2026 17.5315 21.8606 19.94 21.8606H19.9867Z" fill="white"/>
<path fill-rule="evenodd" clip-rule="evenodd" d="M27.5461 46.4H34.7226V34.3424C34.7226 33.6971 34.7693 33.0525 34.9587 32.5912C35.4776 31.3017 36.6584 29.9665 38.641 29.9665C41.2378 29.9665 42.2766 31.9466 42.2766 34.8491V46.4H49.4525V34.0198C49.4525 27.3878 45.912 24.3019 41.1904 24.3019C37.3189 24.3019 35.6192 26.4659 34.6749 27.9398H34.7227V24.8085H27.5462C27.6405 26.8346 27.5461 46.4 27.5461 46.4Z" fill="white"/>
</g>
<defs>
<clipPath id="clip0_957_117">
<rect width="64" height="64" rx="12" fill="white"/>
</clipPath>
</defs>
</svg>
