<svg xmlns="http://www.w3.org/2000/svg" width="1440" height="1440" viewBox="0 0 1440 1440" fill="none">
<g clip-path="url(#clip0_409_3640)">
<rect width="1440" height="1440" fill="white"/>
<path d="M1159.94 1383.88C1156.24 1386.53 1152 1389.18 1148.3 1391.82C1144.06 1394.47 1140.35 1397.12 1136.12 1399.24C1132.41 1401.35 1129.24 1403.47 1125.53 1405.59C1125 1406.12 1124.47 1406.12 1123.94 1406.65C1111.77 1414.06 1099.06 1420.94 1086.35 1427.29C1082.65 1429.41 1078.41 1431.53 1074.71 1433.12C1074.71 1433.12 1074.18 1433.65 1073.65 1433.65C1069.41 1435.76 1065.18 1437.88 1060.94 1440C1052.47 1444.24 1043.47 1447.94 1035 1451.65C1030.77 1453.76 1026 1455.35 1021.77 1456.94C1017.53 1458.53 1012.77 1460.65 1008.53 1462.24C1004.3 1463.82 999.531 1465.94 995.295 1467.53C995.295 1467.53 995.295 1467.53 994.766 1467.53C990.531 1469.12 985.766 1470.71 981.531 1472.29C972.001 1475.47 961.942 1478.65 952.413 1481.82C949.236 1482.88 945.531 1483.94 942.354 1485C932.295 1488.18 922.237 1490.82 912.178 1492.94C908.472 1494 904.766 1494.53 900.531 1495.59C891.001 1497.71 880.942 1499.82 871.413 1501.94C869.295 1502.47 867.707 1502.47 865.589 1503C862.413 1503.53 858.707 1504.06 855.531 1504.59C850.766 1505.12 846.531 1506.18 841.766 1506.71C839.648 1507.24 837.531 1507.24 835.413 1507.76C832.766 1508.29 829.589 1508.82 826.413 1508.82C817.942 1509.88 808.942 1510.94 800.472 1512C797.825 1512.53 794.648 1512.53 792.001 1513.06H791.472C787.766 1513.59 784.06 1513.59 780.354 1514.12C776.648 1514.65 772.942 1514.65 769.237 1514.65C767.119 1514.65 764.472 1515.18 762.354 1515.18C758.119 1515.18 754.413 1515.71 750.707 1515.71C745.413 1515.71 740.648 1516.24 735.354 1516.24C730.06 1516.24 725.295 1516.24 720.001 1516.24C716.295 1516.24 712.589 1516.24 708.884 1516.24C485.472 1513.06 284.825 1418.29 141.354 1267.94C141.354 1267.94 141.354 1267.41 140.825 1267.41C124.942 1253.12 138.707 1176.88 202.766 1128.71C283.236 1067.82 475.942 1029.71 475.942 1029.71C475.942 1029.71 550.589 1017.53 827.472 1075.24C989.472 1109.12 1112.82 1158.35 1181.65 1291.76C1195.94 1319.29 1210.24 1361.65 1159.94 1383.88Z" fill="white"/>
<path d="M829.06 1069.41C930.707 1090.06 1039.24 1112.29 1122.88 1179.53C1150.94 1202.29 1169.47 1235.65 1184.82 1267.94C1192.24 1283.82 1199.65 1300.24 1205.47 1317.71C1208.65 1329.35 1213.41 1342.59 1210.77 1356.35C1210.24 1360.06 1207.06 1364.82 1204.41 1367.47C1192.24 1379.65 1179 1387.06 1165.77 1396.59C1087.94 1450.59 998.472 1488.71 905.825 1508.82C699.354 1553.82 475.942 1518.88 294.354 1410.35C234.001 1373.82 178.413 1329.35 130.766 1276.94C125.472 1270.59 125.472 1260 125.472 1253.12C126.001 1237.24 130.236 1221.88 135.53 1207.59C148.236 1174.76 164.648 1141.94 192.707 1119.18C212.825 1105.41 234.53 1093.76 256.766 1084.24C326.648 1054.59 400.236 1033.94 475.942 1025.47C482.295 1024.94 483.354 1033.94 477.001 1035C404.472 1049.82 332.472 1072.06 265.236 1102.24C240.883 1114.41 214.942 1125 195.354 1144.06C176.825 1164.18 163.589 1189.06 153.001 1214.47C146.119 1229.82 141.354 1254.18 143.472 1266.35C176.825 1306.06 216.001 1341 258.354 1371.18C490.236 1533.18 842.295 1543.76 1089 1408.76C1111.24 1396.59 1132.94 1382.82 1153.59 1368.53C1163.65 1361.65 1174.24 1355.82 1182.18 1347.88C1182.71 1347.35 1182.18 1347.88 1182.18 1348.41C1182.18 1348.94 1181.65 1349.47 1181.65 1349.47C1182.18 1343.12 1180.06 1334.65 1177.41 1326.18C1167.88 1295.47 1152.53 1263.18 1136.12 1235.12C1110.18 1193.29 1066.24 1166.82 1021.77 1145.65C991.06 1131.35 958.766 1120.24 925.942 1109.65C893.119 1099.06 859.766 1090.06 826.413 1082.12C817.942 1080 820.589 1067.82 829.06 1069.41Z" fill="black"/>
<path d="M1335.71 1712.12H-3.1731C-3.1731 1712.12 75.7093 1545.88 110.65 1356.35C135.003 1225.06 153.003 1148.29 221.297 1105.94C269.474 1076.29 405.003 1033.41 501.356 1019.65C540.533 1014.35 618.356 1008.53 685.592 1013.82C736.415 1020.18 841.239 1049.82 881.474 1060.94C941.827 1077.88 1072.59 1128.18 1130.3 1181.12C1153.06 1202.29 1207.06 1308.18 1242 1461.71C1282.24 1636.41 1335.71 1712.12 1335.71 1712.12Z" fill="black"/>
<path d="M1347.88 1718.47C949.237 1721.65 390.178 1729.06 -2.64571 1728.53C-14.2928 1729.06 -22.7634 1715.82 -17.4692 1705.24C-7.93982 1685.12 1.06017 1664.47 9.53076 1643.29C47.6484 1549.06 79.9425 1452.18 99.5308 1352.65C115.413 1274.82 128.119 1188 186.884 1129.24C203.295 1112.82 223.413 1100.12 244.06 1090.59C285.884 1071.53 328.766 1055.65 372.178 1041.88C459.531 1013.29 552.178 1001.12 644.295 1002.71C690.354 1002.71 736.943 1010.12 781.943 1020.71C801.531 1024.41 829.06 1032.88 848.119 1038.18L864.531 1042.94C867.707 1044.53 868.766 1050.88 870.354 1054.06C871.413 1056.18 872.472 1056.71 874.06 1057.24C876.707 1057.77 880.943 1054.06 883.59 1055.12C937.06 1071 988.413 1094.29 1037.65 1120.24C1072.59 1139.82 1108.59 1158.88 1137.18 1187.47C1162.06 1219.24 1182.18 1254.71 1200.71 1290.71C1245.71 1383.35 1258.41 1488.18 1292.82 1584C1305.53 1620.53 1320.35 1657.06 1338.35 1691.47L1342.06 1698.35L1344.18 1702.06L1345.24 1703.65L1345.77 1704.71C1348.94 1706.82 1350 1714.77 1347.88 1718.47ZM1323.53 1705.77C1320.88 1708.94 1321.41 1715.82 1323.53 1718.47L1323 1717.41L1321.94 1715.29L1319.82 1711.59C1298.12 1673.47 1282.77 1632.71 1269 1591.41C1233 1483.41 1221.35 1368 1170.53 1265.29C1157.82 1239.35 1145.12 1212.88 1126.06 1191.18C1114.94 1181.12 1102.77 1172.65 1090.06 1164.71C1032.88 1129.77 968.825 1105.94 905.825 1083.18C900.531 1081.06 887.296 1076.82 882.001 1075.24C877.766 1074.18 876.178 1073.65 875.119 1068.35C874.06 1064.12 873.001 1058.82 868.237 1060.94C865.59 1062 860.825 1068.35 857.648 1067.82C847.06 1065.18 819.001 1057.77 808.413 1055.12C767.648 1044.53 727.413 1031.29 686.119 1023.35C559.06 1012.24 432.001 1034.47 310.766 1072.06C268.943 1086.35 222.884 1099.59 192.707 1134C140.295 1199.12 131.295 1308.71 114.884 1389.71C92.119 1502.47 57.7072 1612.06 11.6484 1718.47L-3.17512 1695.18C380.119 1696.77 934.943 1701.53 1323.53 1705.77Z" fill="white"/>
<path d="M484.941 1073.12C468.529 1074.71 451.059 1078.41 436.235 1086.88C434.647 1087.94 432.529 1085.29 434.118 1084.24C447.882 1072.06 465.353 1065.18 482.294 1059.88C486 1058.82 489.706 1060.94 490.235 1064.65C491.824 1068.88 489.176 1073.12 484.941 1073.12Z" fill="white"/>
<path d="M527.295 1140.88C508.237 1145.12 489.707 1154.12 474.354 1166.82C462.178 1168.94 492.884 1144.06 495.001 1143C504.001 1136.65 513.001 1131.88 523.59 1127.65C526.766 1126.59 531.001 1128.18 532.06 1131.35C534.178 1136.12 531.531 1140.35 527.295 1140.88Z" fill="white"/>
<path d="M595.586 1208.65C580.233 1220.82 566.998 1237.23 558.527 1255.23C557.998 1256.29 556.41 1256.82 555.351 1256.29C554.292 1255.76 553.763 1254.71 554.292 1253.65C557.468 1243.59 561.704 1233.53 567.527 1224.53C573.351 1215 579.704 1206.53 587.115 1198.59C589.763 1195.94 593.998 1195.94 596.645 1198.59C599.292 1201.23 599.292 1206.53 595.586 1208.65Z" fill="white"/>
<path d="M709.941 1261.06C700.941 1280.12 694.059 1300.76 693 1321.94C693 1325.65 686.647 1325.65 686.647 1321.94C685.588 1305 688.235 1288.06 693 1272.18C695.647 1265.82 696.176 1248.88 706.764 1252.06C709.941 1253.12 711.529 1257.35 709.941 1261.06Z" fill="white"/>
<path d="M831.174 1263.18C834.351 1270.59 858.704 1329.88 847.057 1330.41C845.468 1330.41 843.88 1329.35 843.88 1327.77C843.351 1322.47 841.762 1317.71 839.645 1312.41C834.351 1297.59 826.939 1282.77 818.998 1269C815.292 1261.06 827.468 1254.71 831.174 1263.18Z" fill="white"/>
<path d="M881.471 1146.18C901.059 1149.88 917.471 1161.53 929.647 1176.35C930.177 1176.88 930.177 1178.47 929.647 1179C929.118 1179.53 928.059 1179.53 927 1179C914.294 1167.88 897.353 1159.94 880.412 1159.41C870.353 1158.88 871.941 1144.59 881.471 1146.18Z" fill="white"/>
<path d="M862.41 1084.24C878.822 1088.47 894.175 1095.35 906.352 1107C907.41 1108.06 907.41 1109.65 906.352 1110.71C905.293 1111.77 904.234 1111.77 903.175 1111.24C890.469 1102.77 875.116 1098.53 860.293 1097.47C850.763 1096.41 852.881 1082.12 862.41 1084.24Z" fill="white"/>
<path d="M881.47 1220.82C896.294 1233 911.118 1245.71 920.647 1262.65C921.176 1263.18 920.647 1264.24 920.118 1264.76C919.588 1265.29 918.529 1264.76 918 1264.24C906.353 1249.94 890.47 1240.41 874.588 1231.41C866.118 1227.18 873.529 1215 881.47 1220.82Z" fill="white"/>
<path d="M878.82 1210.24C867.702 1264.77 795.702 1297.59 674.467 1248.35C548.467 1197.53 493.938 1076.29 480.173 1040.29C554.82 900.53 502.938 803.647 502.938 803.647C674.996 788.824 825.349 990 825.349 990L848.643 1089.53C850.761 1098 854.996 1105.41 861.349 1110.71C872.467 1130.29 885.702 1175.29 878.82 1210.24Z" fill="white"/>
<path d="M477.528 1041.88C487.587 1026.53 493.94 1008.53 498.175 991.059C506.117 954.53 508.764 917.471 509.293 880.412V866.648C507.705 852.883 502.94 838.589 497.646 825.883C490.764 808.942 515.646 798.353 523.587 815.295C524.646 817.412 524.646 821.118 524.646 823.236C526.234 895.236 529.411 987.883 483.881 1047.71C480.705 1050.88 474.352 1046.12 477.528 1041.88Z" fill="black"/>
<path d="M831.174 988.942C839.115 993.707 841.762 1000.06 842.821 1006.41C845.997 1019.12 844.938 1032.88 848.115 1046.12C850.762 1058.82 858.703 1071 860.821 1084.24C863.468 1098 871.409 1127.12 874.585 1141.41C875.644 1144.59 873.527 1148.29 869.821 1148.82C867.703 1149.35 866.115 1148.82 864.527 1147.77C857.644 1141.94 854.468 1136.12 850.233 1128.71C843.35 1116 838.585 1104.35 834.35 1090.06C830.644 1077.35 832.233 1063.59 829.056 1050.35C826.409 1037.65 818.997 1025.47 816.35 1012.24C814.762 1005.88 814.232 999.001 818.997 991.06C822.174 987.883 827.468 986.824 831.174 988.942Z" fill="black"/>
<path d="M869.293 1128.71C768.175 1123.41 685.587 1091.65 605.116 948.177C672.881 1008 752.822 1030.77 836.999 1041.35L848.116 1090.06C850.234 1098.53 862.94 1123.41 869.293 1128.71Z" fill="black"/>
<path d="M865.06 1109.12C883.06 1143 893.648 1185.35 882.53 1222.94C874.06 1249.41 849.707 1269 823.236 1276.41C761.824 1292.82 690.883 1266.88 636.354 1237.77C569.119 1200.18 519.354 1137.18 487.589 1068.35C485.471 1063.06 492.883 1058.82 496.06 1064.12C507.177 1086.35 519.883 1108.06 534.177 1127.65C548.472 1147.77 564.883 1166.29 583.413 1182.71C637.413 1231.41 710.472 1261.59 783.53 1261.59C858.707 1259.47 887.295 1219.77 869.824 1146.71C867.177 1135.06 862.942 1122.88 857.119 1112.82C853.942 1108.59 861.883 1103.82 865.06 1109.12Z" fill="black"/>
<path d="M1069.94 473.294C1079.47 517.765 1084.23 553.765 1058.29 672.353C1032.88 790.412 1094.82 814.765 948.175 1003.76C888.352 1081.06 743.293 1059.35 625.763 979.412C586.058 952.412 569.116 883.059 539.469 833.824C516.175 795.177 505.587 835.412 474.881 802.059C433.058 756.53 382.763 664.941 407.646 502.941C447.881 240.353 655.94 209.647 809.999 238.765C965.116 268.412 1044.53 356.294 1069.94 473.294Z" fill="white"/>
<path d="M501.352 849.177C489.175 828.53 473.293 810.53 458.47 791.471C444.175 771.883 432.528 750.177 422.999 727.942C359.999 573.353 384.352 355.765 538.94 264.706C602.999 227.648 680.293 218.648 752.293 224.471C906.352 235.589 1047.7 306.53 1081.06 469.589C1099.06 541.589 1074.7 615.706 1060.94 686.118C1054.59 721.059 1059.88 757.059 1059.35 793.059C1058.82 829.589 1048.76 866.118 1035 900C1026.53 923.295 1011.7 943.942 996.352 963C970.94 993.706 945.528 1024.94 913.234 1048.77C905.823 1054.06 892.587 1056.71 883.587 1057.77C858.705 1061.47 834.352 1062.53 809.47 1060.94C712.058 1056.71 607.764 1009.59 568.587 915.353C566.999 911.647 572.293 909 574.411 912.177C625.234 992.648 718.411 1032.35 811.058 1037.65C839.646 1039.24 868.764 1038.71 896.823 1032.88C910.587 1026 922.764 1013.82 934.411 1002.71C962.999 974.118 992.117 943.412 1012.76 908.471C1037.65 861.353 1051.41 810 1047.18 756.53C1046.12 732.706 1045.59 707.824 1050.35 684C1054.59 660.177 1059.88 637.412 1063.06 613.059C1066.23 589.765 1067.82 565.942 1067.82 542.648C1065.18 474.353 1042.94 403.942 999.528 351C903.705 231.883 677.117 200.648 549.528 282.177C469.058 331.942 431.47 425.118 419.293 515.648C400.764 624.177 406.058 731.118 492.352 810L517.764 836.471C527.823 848.118 509.822 861.883 501.352 849.177Z" fill="black"/>
<path d="M563.82 680.823C563.82 680.823 547.409 601.411 470.115 610.941C403.409 619.411 380.115 779.294 531.526 823.764" fill="white"/>
<path d="M524.646 754.412C512.47 747.53 503.999 735.882 503.47 721.588C503.999 711 505.587 698.824 502.94 688.235C501.352 678.177 490.764 675.529 482.823 676.059C474.352 677.647 469.058 688.235 467.47 696.706C467.47 697.235 466.94 698.824 466.94 699.353C466.411 702 462.176 702 461.117 699.353C454.234 678.706 469.587 655.941 491.823 658.588C523.058 660.706 527.293 693.53 521.47 718.412C518.293 729 522.529 738.529 528.352 747.53L529.411 749.118C532.058 752.294 527.823 756.53 524.646 754.412Z" fill="black"/>
<path d="M948.174 624.706C956.115 662.294 970.939 697.235 989.468 730.058C1005.88 770.294 963.527 808.411 925.939 806.823C921.704 806.823 921.174 801 924.88 799.941C948.704 792.529 970.41 776.647 974.115 752.294C975.704 744.882 973.586 738.529 969.88 732.176C952.41 699.353 941.821 661.764 944.468 624.706C944.468 622.058 948.174 622.058 948.174 624.706Z" fill="black"/>
<path d="M561.175 681.353C548.999 650.118 522.528 620.471 487.057 621C483.881 620.471 478.587 621.529 475.41 621.529C466.41 622.059 458.999 625.235 452.116 631.588C418.234 665.471 424.057 725.294 451.587 762.882C461.116 776.118 473.293 787.765 487.057 797.294C500.822 806.824 516.175 814.235 532.587 820.588C536.293 821.647 534.705 827.471 530.999 826.941C495.528 819.53 461.646 802.059 438.352 772.941C402.352 729.53 394.94 657 437.822 614.647C447.352 606.177 460.587 599.824 473.822 599.824C478.057 599.824 484.41 598.765 488.646 599.824C510.881 600.882 532.057 612 545.822 629.471C557.999 644.294 564.881 662.294 566.999 680.294C566.999 683.471 562.234 684.529 561.175 681.353Z" fill="black"/>
<path d="M895.762 857.646C896.292 866.117 889.939 880.941 878.292 891.529C818.468 854.999 791.468 874.058 791.468 874.058C770.292 841.764 775.057 797.823 826.41 831.176C861.88 854.47 884.115 858.176 895.762 857.646Z" fill="black"/>
<path d="M877.762 892.058C865.056 903.176 845.998 910.058 820.056 899.47C807.88 894.705 798.35 885.176 790.939 874.588C791.468 874.588 817.939 855.529 877.762 892.058Z" fill="white"/>
<path d="M905.821 856.059C905.821 856.059 883.586 868.235 826.409 831.706C758.115 787.765 771.88 879.882 820.056 899.47C870.351 920.118 896.292 875.118 895.762 858.176" stroke="black" stroke-width="4.05" stroke-miterlimit="10" stroke-linecap="round" stroke-linejoin="round"/>
<path d="M791.471 874.588C791.471 874.588 818.471 855.529 878.294 892.058" stroke="black" stroke-width="4.05" stroke-miterlimit="10" stroke-linecap="round" stroke-linejoin="round"/>
<path d="M750.707 678.707C738.001 678.177 728.472 667.589 729.531 654.883L730.06 640.06C730.59 627.354 741.178 617.824 753.884 618.883C766.59 619.413 776.119 630.001 775.06 642.707L774.531 657.53C774.001 669.707 763.413 679.236 750.707 678.707Z" fill="black"/>
<path d="M973.588 686.648C961.94 686.119 952.941 676.06 953.47 664.413L953.999 650.648C954.529 639.001 964.588 630.001 976.235 630.531C987.882 631.06 996.882 641.119 996.352 652.766L995.823 666.53C995.294 678.178 985.235 687.178 973.588 686.648Z" fill="black"/>
<path d="M798.354 650.118C780.883 638.471 761.825 630.53 740.648 634.765C733.766 635.824 726.883 637.942 722.648 642.707C721.06 644.824 717.354 644.295 717.354 641.118C717.883 630.53 726.883 623.648 735.354 619.412C751.766 610.942 774.53 612.53 789.354 623.648C794.648 626.824 812.648 646.412 803.119 650.648C801.001 651.707 799.942 651.177 798.354 650.118Z" fill="black"/>
<path d="M949.766 652.765C949.766 630.53 977.296 622.589 994.237 630.53C1003.77 634.765 1010.65 643.236 1013.3 653.295C1014.35 656.471 1009.59 659.118 1007.47 656.471C998.472 645.883 983.119 640.589 970.943 646.942C967.237 649.059 966.707 650.648 965.648 652.765C965.648 663.354 950.296 662.824 949.766 652.765Z" fill="black"/>
<path d="M823.766 562.765C834.883 566.471 846.001 556.412 843.883 544.236C842.825 537.883 840.178 531.53 834.883 526.765C819.001 512.471 753.354 499.765 713.648 518.295C678.707 535.236 772.942 545.824 823.766 562.765Z" fill="black"/>
<path d="M982.062 571.236C973.062 574.412 963.532 564.883 965.12 553.765C965.65 547.942 967.768 542.118 972.003 537.883C984.709 525.177 1028.12 515.118 1055.65 534.706C1079.47 551.118 1023.36 555.883 982.062 571.236Z" fill="black"/>
<path d="M713.118 212.823C400.235 206.47 368.471 468.529 388.059 624.706C409.765 798.353 513.529 866.647 513.529 866.647L520.412 820.588C520.412 820.588 495.529 812.118 471.706 794.647C389.118 732.176 414.529 618.353 470.647 611.47C526.765 604.059 551.118 644.823 559.588 667.059C589.235 569.117 547.412 544.765 589.235 475.412C720 334.059 811.059 429.353 875.118 447.882C945 467.47 991.059 445.235 1017 420.353C1035.53 402.353 1059.35 436.235 1059.35 436.235C1059.35 436.235 1024.94 219.176 713.118 212.823Z" fill="black"/>
</g>
<defs>
<clipPath id="clip0_409_3640">
<rect width="1440" height="1440" fill="white"/>
</clipPath>
</defs>
</svg>
