<svg width="64" height="64" viewBox="0 0 64 64" fill="none" xmlns="http://www.w3.org/2000/svg">
<g clip-path="url(#clip0_1464_175)">
<rect width="64" height="64" rx="16" fill="black"/>
<path opacity="0.1" d="M-6.09091 23.6364H-3.18182V41.0909H-6.09091V23.6364ZM-3.18182 41.0909H5.54545V44H-3.18182V41.0909ZM5.54545 38.1818H8.45455V41.0909H5.54545V38.1818ZM-3.18182 20.7273H5.54545V23.6364H-3.18182V20.7273ZM5.54545 23.6364H8.45455V26.5455H5.54545V23.6364ZM14.2841 23.6364H17.1932V41.0909H14.2841V23.6364ZM17.1932 41.0909H25.9205V44H17.1932V41.0909ZM25.9205 23.6364H28.8295V41.0909H25.9205V23.6364ZM17.1932 20.7273H25.9205V23.6364H17.1932V20.7273ZM34.6591 20.7273H46.2955V23.6364H37.5682V41.0909H46.2955V44H34.6591V20.7273ZM46.2955 23.6364H49.2045V41.0909H46.2955V23.6364ZM55.0341 20.7273H69.5795V23.6364H57.9432V29.4545H66.6705V32.3636H57.9432V41.0909H69.5795V44H55.0341V20.7273Z" fill="white"/>
<path fill-rule="evenodd" clip-rule="evenodd" d="M38.4285 42.9808C38.4286 42.6973 38.5184 42.421 38.6852 42.1915L43.0609 36.175C43.7022 35.2933 43.7462 34.1112 43.1724 33.1842L32.9279 16.6355C32.4034 15.7882 31.1708 15.7882 30.6462 16.6355L20.4019 33.1841C19.828 34.1112 19.872 35.2933 20.5133 36.1751L24.889 42.1916C25.0557 42.421 25.1457 42.6972 25.1456 42.9808V45.3164C25.1456 46.7986 26.347 48 27.8292 48H35.7449C37.2271 48 38.4285 46.7986 38.4285 45.3164L38.4285 42.9808ZM41.4332 34.9913L37.0575 41.0078C36.6405 41.5812 36.4159 42.2718 36.4158 42.9808L36.4159 45.3165C36.4158 45.687 36.1155 45.9873 35.745 45.9873H27.8291C27.4587 45.9873 27.1583 45.687 27.1582 45.3165L27.1583 42.9808C27.1583 42.2719 26.9337 41.5812 26.5167 41.0078L22.1409 34.9913C21.9806 34.7708 21.9697 34.4753 22.1131 34.2435L30.7807 20.242L30.7807 30.2176C30.1938 30.3834 29.6398 30.6972 29.178 31.1591C27.737 32.6001 27.737 34.9364 29.178 36.3774C30.619 37.8184 32.9553 37.8184 34.3963 36.3774C35.8372 34.9365 35.8373 32.6001 34.3963 31.1591C33.9343 30.6972 33.3804 30.3833 32.7934 30.2175L32.7934 20.242L41.461 34.2435C41.6045 34.4753 41.5935 34.7708 41.4332 34.9913ZM30.6012 34.9542C31.2561 35.6092 32.3181 35.6093 32.9731 34.9542C33.6281 34.2993 33.6281 33.2372 32.9731 32.5823C32.3181 31.9272 31.2561 31.9273 30.6012 32.5823C29.9461 33.2373 29.9461 34.2992 30.6012 34.9542Z" fill="white"/>
</g>
<defs>
<clipPath id="clip0_1464_175">
<rect width="64" height="64" rx="16" fill="white"/>
</clipPath>
</defs>
</svg>