<svg width="179" height="178" viewBox="0 0 179 178" fill="none" xmlns="http://www.w3.org/2000/svg">
<g clip-path="url(#clip0_606_225)">
<path d="M0.5 0C59.24 0 117.98 0 178.5 0C178.5 58.74 178.5 117.48 178.5 178C119.76 178 61.02 178 0.5 178C0.5 119.26 0.5 60.52 0.5 0Z" fill="black"/>
<path d="M35.0918 39.6328C39.5719 39.58 44.052 39.5401 48.5324 39.5157C50.6128 39.5041 52.693 39.4882 54.7732 39.4623C56.5867 39.4398 58.4001 39.4252 60.2137 39.4202C61.1738 39.4172 62.1336 39.4103 63.0935 39.3939C63.998 39.3785 64.9018 39.3738 65.8064 39.3772C66.1375 39.3766 66.4688 39.3721 66.7998 39.3634C69.2322 39.3027 69.2322 39.3027 69.9834 39.852C70.59 40.4571 70.9975 41.1539 71.4219 41.8926C71.6521 42.2032 71.8862 42.5111 72.1267 42.814C72.3481 43.1043 72.5695 43.3947 72.7908 43.6852C72.9699 43.9203 72.9699 43.9203 73.1527 44.1601C73.9379 45.1917 74.718 46.2268 75.4939 47.2653C76.2088 48.2207 76.9332 49.1688 77.658 50.1168C78.5537 51.2888 79.4378 52.4681 80.3088 53.6586C81.1928 54.8664 82.1011 56.0521 83.025 57.2296C83.8582 58.2953 84.6604 59.3818 85.4585 60.4738C86.1523 61.4201 86.8637 62.3503 87.5879 63.2734C88.6333 64.6066 89.6425 65.9637 90.6435 67.3305C91.5263 68.5357 92.4255 69.7285 93.3242 70.9219C94.0529 70.3248 94.6992 69.7355 95.2798 68.988C95.8494 68.273 96.4385 67.5916 97.0615 66.9238C97.6582 66.2829 98.2306 65.6303 98.7781 64.9465C99.4823 64.0707 100.238 63.2555 101.007 62.438C101.71 61.6877 102.363 60.9085 103.005 60.1058C103.468 59.5493 103.955 59.0212 104.449 58.4931C105.224 57.6662 105.95 56.8143 106.659 55.9305C107.255 55.2113 107.891 54.5304 108.525 53.8453C109.258 53.0524 109.962 52.237 110.662 51.4158C110.84 51.2073 111.018 50.9988 111.196 50.7904C111.286 50.685 111.376 50.5797 111.468 50.4711C112.025 49.8208 112.593 49.1827 113.173 48.5524C113.731 47.9448 114.264 47.3259 114.781 46.6837C115.417 45.8953 116.087 45.1506 116.776 44.4097C117.296 43.8478 117.788 43.2715 118.269 42.6748C118.45 42.4573 118.45 42.4573 118.636 42.2353C119.058 41.7262 119.058 41.7262 119.411 41.1762C120.078 40.2753 120.632 39.6301 121.779 39.4501C122.786 39.3647 123.791 39.3979 124.8 39.4291C125.171 39.433 125.543 39.436 125.914 39.438C126.886 39.446 127.858 39.4664 128.83 39.4896C129.824 39.511 130.818 39.5205 131.812 39.5309C133.758 39.5532 135.704 39.5888 137.65 39.6328C137.65 39.9805 137.65 39.9805 137.273 40.3756C137.111 40.532 136.948 40.6884 136.781 40.8496C135.707 41.9857 134.687 43.1459 133.707 44.3642C133.193 44.9819 132.649 45.5676 132.102 46.1555C131.589 46.7099 131.104 47.2784 130.632 47.8679C129.928 48.7436 129.173 49.5586 128.403 50.376C127.697 51.1303 127.04 51.9133 126.394 52.7202C125.962 53.2416 125.509 53.7392 125.048 54.2344C124.448 54.879 123.872 55.5355 123.32 56.2225C122.652 57.0533 121.941 57.8314 121.213 58.6089C120.675 59.187 120.164 59.7772 119.67 60.3944C119.06 61.1549 118.415 61.8689 117.747 62.5781C116.939 63.436 116.179 64.3155 115.442 65.2358C115.011 65.7573 114.558 66.2548 114.097 66.75C113.497 67.3946 112.921 68.0511 112.369 68.7381C111.611 69.6806 110.797 70.5618 109.972 71.4461C109.222 72.2509 108.506 73.0833 107.791 73.9197C107.612 74.13 107.432 74.3403 107.252 74.5505C107.117 74.7093 107.117 74.7093 106.978 74.8712C106.452 75.486 105.918 76.0922 105.373 76.6908C104.705 77.4258 104.078 78.1879 103.456 78.9621C102.923 79.6027 102.348 80.2009 101.764 80.7968C101.453 81.1453 101.453 81.1453 101.534 81.5054C101.687 81.9262 101.886 82.2169 102.158 82.5731C102.26 82.7089 102.363 82.8447 102.469 82.9846C102.581 83.1305 102.693 83.2763 102.809 83.4266C102.983 83.6565 102.983 83.6565 103.161 83.8911C103.532 84.3781 103.903 84.8639 104.275 85.3496C104.509 85.6558 104.742 85.962 104.975 86.2683C105.322 86.7236 105.669 87.1789 106.016 87.6338C106.912 88.8073 107.799 89.9873 108.683 91.1694C109.468 92.2178 110.26 93.2608 111.055 94.3017C111.959 95.4853 112.857 96.6727 113.749 97.8652C114.638 99.0535 115.533 100.238 116.432 101.418C116.605 101.644 116.605 101.644 116.781 101.875C117.368 102.644 117.955 103.412 118.542 104.179C119.762 105.775 120.968 107.378 122.154 108.998C122.94 110.068 123.751 111.115 124.57 112.159C125.403 113.225 126.205 114.311 127.003 115.404C127.697 116.35 128.409 117.28 129.133 118.203C130.069 119.397 130.975 120.61 131.871 121.835C132.564 122.781 133.276 123.712 134 124.635C134.937 125.829 135.842 127.042 136.738 128.267C137.432 129.213 138.143 130.143 138.867 131.066C139.925 132.415 140.946 133.788 141.957 135.171C142.307 135.648 142.659 136.123 143.018 136.593C143.092 136.69 143.166 136.788 143.243 136.888C143.436 137.141 143.631 137.393 143.825 137.645C144.082 138.02 144.082 138.02 144.082 138.367C139.75 138.44 135.418 138.495 131.085 138.529C129.074 138.545 127.062 138.567 125.05 138.603C123.296 138.634 121.542 138.655 119.788 138.662C118.859 138.666 117.932 138.675 117.004 138.698C110.897 138.843 110.897 138.843 109.55 137.683C108.987 137.049 108.597 136.381 108.264 135.604C108.039 135.105 107.723 134.704 107.377 134.282C107.183 134.022 106.989 133.761 106.796 133.5C105.66 131.977 104.498 130.475 103.328 128.978C101.988 127.261 100.671 125.526 99.3491 123.795C99.0702 123.431 98.7911 123.066 98.5119 122.701C97.3572 121.192 96.2048 119.681 95.0536 118.169C94.0495 116.851 93.0432 115.535 92.0361 114.219C91.7501 113.845 91.4643 113.471 91.1785 113.097C90.1927 111.807 89.2052 110.518 88.2146 109.232C87.6745 108.53 87.137 107.826 86.5992 107.122C85.8327 106.118 85.0639 105.117 84.2852 104.123C83.7563 104.356 83.4375 104.593 83.0684 105.036C82.9639 105.159 82.8595 105.282 82.7519 105.409C82.5644 105.633 82.5644 105.633 82.373 105.861C82.0335 106.26 81.6927 106.658 81.3518 107.056C81.2618 107.162 81.1718 107.267 81.0791 107.375C80.4209 108.144 79.7497 108.899 79.0703 109.649C78.3764 110.416 77.6988 111.197 77.0278 111.984C76.2037 112.95 75.3781 113.911 74.5182 114.846C73.967 115.446 73.4417 116.057 72.932 116.693C72.2238 117.572 71.4652 118.391 70.6921 119.212C69.9858 119.966 69.3287 120.749 68.6827 121.556C68.2514 122.078 67.7978 122.575 67.3369 123.07C66.7369 123.715 66.1609 124.371 65.6095 125.058C64.9415 125.889 64.2309 126.667 63.5029 127.444C62.8216 128.176 62.1894 128.938 61.5632 129.718C60.9672 130.437 60.3318 131.118 59.6973 131.803C58.965 132.596 58.2606 133.411 57.5604 134.233C57.3826 134.441 57.2047 134.65 57.0267 134.858C56.9378 134.962 56.8489 135.066 56.7573 135.174C56.0351 136.017 55.2918 136.839 54.5368 137.653C54.2065 137.995 54.2065 137.995 54.0391 138.367C48.5322 138.367 43.0253 138.367 37.3516 138.367C37.6663 137.738 37.9338 137.384 38.4054 136.879C38.9668 136.267 39.5044 135.646 40.0242 134.999C40.7481 134.104 41.5153 133.259 42.2968 132.416C43.0292 131.623 43.7335 130.807 44.4337 129.986C44.6116 129.778 44.7895 129.569 44.9674 129.361C45.0573 129.255 45.1472 129.15 45.2399 129.041C45.797 128.391 46.3649 127.753 46.9447 127.123C47.4992 126.519 48.0282 125.904 48.5417 125.265C49.214 124.431 49.928 123.649 50.6595 122.868C51.2014 122.286 51.716 121.692 52.2139 121.071C52.8779 120.244 53.5853 119.47 54.31 118.696C54.8518 118.114 55.3664 117.52 55.8643 116.899C56.4454 116.175 57.0552 115.491 57.6895 114.813C58.4639 113.986 59.1898 113.135 59.8997 112.251C60.4956 111.532 61.1311 110.851 61.7656 110.166C62.4979 109.373 63.2023 108.557 63.9025 107.736C64.0803 107.528 64.2582 107.319 64.4362 107.111C64.5261 107.005 64.616 106.9 64.7086 106.791C65.2657 106.141 65.8337 105.503 66.4135 104.873C66.9679 104.269 67.4969 103.654 68.0105 103.015C68.6827 102.181 69.3967 101.399 70.1283 100.618C70.6701 100.036 71.1847 99.4418 71.6826 98.8213C72.4347 97.8846 73.2428 97.0099 74.0619 96.1324C74.5675 95.5902 75.0572 95.0354 75.5408 94.4735C75.7243 94.2642 75.9184 94.064 76.1152 93.8672C76.0721 93.1686 75.6233 92.7131 75.2026 92.1832C75.0434 91.9807 74.8843 91.7781 74.7253 91.5755C74.6404 91.468 74.5555 91.3604 74.468 91.2496C74.0081 90.6636 73.5575 90.0704 73.1058 89.478C72.9135 89.2263 72.7211 88.9746 72.5287 88.7229C72.2358 88.3398 71.943 87.9566 71.6502 87.5734C71.3605 87.1942 71.0707 86.8151 70.7809 86.436C70.686 86.3119 70.5911 86.1877 70.4933 86.0598C69.9459 85.344 69.3971 84.6293 68.847 83.9155C67.9691 82.7754 67.0975 81.6305 66.2257 80.4856C64.8328 78.6564 63.4377 76.8288 62.0352 75.0068C60.5113 73.0273 58.9965 71.0408 57.483 69.0532C56.3167 67.5216 55.1457 65.9937 53.9684 64.4705C53.1869 63.4583 52.4138 62.4405 51.6489 61.4156C50.9037 60.4176 50.1456 59.4308 49.3783 58.4497C48.5137 57.3441 47.6645 56.2283 46.8252 55.1035C45.8906 53.8513 44.9418 52.6115 43.9798 51.3802C43.0134 50.1429 42.0598 48.8962 41.1078 47.6478C40.6385 47.0327 40.1683 46.4182 39.6982 45.8037C39.1209 45.0488 38.5436 44.2938 37.9668 43.5385C37.7689 43.2796 37.5711 43.0206 37.3733 42.7617C37.279 42.6382 37.1848 42.5148 37.0876 42.3876C36.4912 41.6071 35.8895 40.8312 35.2785 40.0619C35.0918 39.8066 35.0918 39.8066 35.0918 39.6328Z" fill="#FDFDFD"/>
<path d="M54.7344 49.1933C55.9991 49.1488 57.2636 49.115 58.5289 49.0943C59.1167 49.0843 59.7039 49.0709 60.2913 49.0491C60.9685 49.0258 61.6449 49.015 62.3224 49.0066C62.531 48.9967 62.7397 48.9869 62.9547 48.9767C63.858 48.976 64.4159 48.9957 65.1132 49.6036C65.5133 50.0881 65.8642 50.5794 66.207 51.1054C66.4054 51.373 66.6049 51.6396 66.8066 51.9046C66.9946 52.1631 67.1823 52.4218 67.3695 52.6808C68.1808 53.7929 69.0074 54.8899 69.8574 55.9726C70.7933 57.1654 71.6985 58.3775 72.5929 59.6016C73.4085 60.7141 74.2511 61.8036 75.1018 62.8894C75.7414 63.7072 76.3609 64.5359 76.966 65.3797C77.4402 66.0289 77.9289 66.6664 78.4185 67.3041C79.1549 68.2637 79.888 69.2256 80.613 70.1939C80.7394 70.3626 80.7394 70.3626 80.8683 70.5347C81.2403 71.0317 81.612 71.5291 81.9833 72.0267C83.1461 73.5851 84.3137 75.1383 85.5128 76.669C86.4446 77.8585 87.3461 79.0673 88.2375 80.2872C89.0531 81.3997 89.8956 82.4891 90.7463 83.5749C91.3868 84.3939 92.007 85.2239 92.6133 86.0687C93.3615 87.0937 94.1417 88.0949 94.9144 89.1016C96.3891 91.0249 97.8578 92.9528 99.3085 94.8943C100.023 95.8497 100.748 96.7978 101.472 97.7457C102.368 98.9177 103.252 100.097 104.123 101.287C105.007 102.495 105.916 103.681 106.839 104.859C107.673 105.924 108.475 107.011 109.273 108.103C109.967 109.049 110.678 109.979 111.402 110.902C112.339 112.096 113.245 113.309 114.14 114.534C114.834 115.481 115.545 116.411 116.27 117.334C117.206 118.527 118.111 119.74 119.006 120.964C119.711 121.926 120.434 122.871 121.169 123.809C121.945 124.8 122.713 125.796 123.462 126.808C123.584 126.972 123.584 126.972 123.71 127.139C124.266 127.896 124.266 127.896 124.266 128.285C122.992 128.356 121.719 128.405 120.444 128.438C120.011 128.452 119.579 128.471 119.146 128.495C115.66 128.685 115.66 128.685 114.663 128.028C114.007 127.391 113.566 126.649 113.147 125.841C112.912 125.402 112.621 125.029 112.304 124.646C112.212 124.528 112.119 124.41 112.024 124.288C111.934 124.173 111.843 124.058 111.75 123.939C110.898 122.851 110.062 121.752 109.236 120.643C108.579 119.763 107.907 118.895 107.23 118.029C106.467 117.052 105.712 116.069 104.971 115.074C104.24 114.094 103.497 113.125 102.744 112.163C101.879 111.057 101.03 109.941 100.19 108.816C99.2558 107.564 98.307 106.324 97.3451 105.093C96.3786 103.856 95.425 102.609 94.473 101.361C94.0037 100.746 93.5336 100.131 93.0635 99.5166C92.8752 99.2703 92.6868 99.0241 92.4985 98.7778C92.4053 98.6559 92.3121 98.534 92.2161 98.4084C73.2905 73.6596 73.2905 73.6596 73.0079 73.2901C72.82 73.0444 72.6322 72.7987 72.4443 72.553C71.9669 71.9288 71.4896 71.3045 71.0124 70.6801C70.1653 69.5718 69.3178 68.4637 68.4668 67.3584C67.5179 66.1258 66.5733 64.89 65.6288 63.654C65.2491 63.1572 64.8693 62.6606 64.4895 62.1639C64.2066 61.7941 63.9238 61.4242 63.641 61.0544C63.2713 60.5709 62.9014 60.0874 62.5315 59.604C61.3643 58.0785 60.1995 56.5512 59.036 55.0229C58.3903 54.1752 57.7428 53.3289 57.0919 52.4852C56.5276 51.7523 55.9655 51.0178 55.408 50.2798C55.2784 50.1086 55.1489 49.9374 55.0155 49.761C54.7344 49.3672 54.7344 49.3672 54.7344 49.1933Z" fill="#020202"/>
</g>
<defs>
<clipPath id="clip0_606_225">
<rect x="0.5" width="178" height="178" rx="44" fill="white"/>
</clipPath>
</defs>
</svg>
