<svg width="64" height="64" viewBox="0 0 64 64" fill="none" xmlns="http://www.w3.org/2000/svg">
<g clip-path="url(#clip0_957_85)">
<path d="M64 0.000305176H0L5.14341e-06 64.0003H64V0.000305176Z" fill="#FFDD06"/>
<path d="M42.9934 21.7299L42.9699 21.7181L42.9112 21.6947C42.9229 21.7181 42.9582 21.7299 42.9934 21.7299Z" fill="#010202"/>
<path d="M43.3443 24.4603L43.3914 24.4368L43.4149 24.4133C43.3914 24.4251 43.3678 24.4486 43.3443 24.4603Z" fill="#010202"/>
<path d="M43.065 21.7893L43.0179 21.7422L42.9827 21.7306C43.0062 21.7541 43.0298 21.7774 43.065 21.7893Z" fill="#010202"/>
<path d="M32.1101 48.4368C32.0747 48.4486 32.0395 48.472 32.016 48.5074L32.0395 48.4838C32.0747 48.4603 32.0982 48.4486 32.1101 48.4368Z" fill="#010202"/>
<path d="M38.4823 47.1773C38.4823 47.1421 38.4587 47.1421 38.4704 47.2829C38.4704 47.2712 38.4704 47.2595 38.4823 47.2477C38.4704 47.236 38.4704 47.2125 38.4823 47.1773Z" fill="#010202"/>
<path d="M37.8149 48.4368C37.7795 48.4485 37.7443 48.472 37.7208 48.5072L37.7443 48.4837C37.7795 48.4602 37.803 48.4485 37.8149 48.4368Z" fill="#010202"/>
<path d="M27.6333 48.7288C27.6099 48.7053 27.5745 48.6936 27.5393 48.6819C27.5627 48.6936 27.5981 48.7053 27.6097 48.7171L27.6333 48.7288Z" fill="#010202"/>
<path d="M26.6394 47.7725C26.6394 47.7373 26.6275 47.6904 26.604 47.6552C26.6158 47.6904 26.6275 47.7256 26.6394 47.7725Z" fill="#010202"/>
<path d="M33.3971 30.5392C32.0178 31.1342 30.4395 31.7994 28.4054 31.7994C27.552 31.7994 26.7104 31.6827 25.892 31.4493L27.2949 45.8702C27.3416 46.4768 27.6222 47.037 28.0664 47.4453C28.5107 47.8536 29.0952 48.087 29.703 48.087C29.703 48.087 31.7021 48.192 32.3685 48.192C33.0816 48.192 35.2325 48.087 35.2325 48.087C35.8405 48.087 36.425 47.8653 36.8691 47.4453C37.3134 47.037 37.5939 46.4768 37.6406 45.8702L39.1488 29.9442C38.4707 29.7109 37.7926 29.5592 37.0328 29.5592C35.7002 29.5592 34.6363 30.0142 33.3971 30.5392Z" fill="white"/>
<path d="M21.5318 24.4023L21.5683 24.4386C21.5683 24.4144 21.5561 24.4023 21.5318 24.4023Z" fill="#010202"/>
<path d="M45.6475 23.0602L45.4371 21.9986C45.2501 21.0418 44.8176 20.1317 43.8357 19.7933C43.52 19.6883 43.1576 19.6301 42.9238 19.4083C42.6782 19.1751 42.6082 18.825 42.5498 18.4983C42.4445 17.8915 42.3509 17.2848 42.2458 16.6781C42.1522 16.1531 42.0821 15.5698 41.8483 15.1031C41.5326 14.4614 40.8898 14.088 40.2467 13.843C39.9194 13.7263 39.5803 13.6213 39.2414 13.528C37.6398 13.108 35.9565 12.9563 34.3082 12.8629C32.3325 12.7579 30.3451 12.7813 28.3694 12.9563C26.8965 13.0846 25.3534 13.248 23.9622 13.7613C23.448 13.948 22.9219 14.1697 22.5362 14.5664C22.0568 15.0447 21.9048 15.8031 22.2555 16.3981C22.5011 16.8298 22.9219 17.1331 23.3661 17.3315C23.9389 17.5882 24.5469 17.7866 25.1664 17.9149C26.8965 18.3 28.6734 18.44 30.4387 18.5099C32.3909 18.5917 34.3432 18.5216 36.2955 18.3232C36.7747 18.265 37.2541 18.2066 37.7333 18.1367C38.2944 18.0549 38.6568 17.3082 38.4931 16.8066C38.2944 16.1882 37.7566 15.9548 37.1605 16.0482C37.067 16.0599 36.9851 16.0715 36.8917 16.0831L36.8331 16.0947C36.6227 16.1181 36.424 16.1415 36.2136 16.1648C35.7928 16.2115 35.372 16.2464 34.9394 16.2815C33.9925 16.3515 33.0339 16.3749 32.0754 16.3749C31.1402 16.3749 30.2048 16.3515 29.2696 16.2815C28.8371 16.2581 28.4163 16.2232 27.9954 16.1765C27.7966 16.1531 27.6096 16.1298 27.4226 16.1064L27.2355 16.0831H27.2005L27.0134 16.0599C26.6277 16.0015 26.2419 15.9315 25.8562 15.8498C25.8211 15.8381 25.7859 15.8148 25.7626 15.7915C25.7392 15.7681 25.7275 15.7214 25.7275 15.6864C25.7275 15.6514 25.7392 15.6048 25.7626 15.5814C25.7859 15.5581 25.8211 15.5348 25.8562 15.5231H25.8678C26.1952 15.4531 26.5341 15.3948 26.8731 15.3364C26.9901 15.3131 27.0954 15.3014 27.2122 15.2898C27.4226 15.2781 27.633 15.2431 27.8435 15.2081C29.667 15.0214 31.5024 14.9514 33.3378 15.0097C34.2262 15.0331 35.1147 15.0914 36.0032 15.1731C36.1902 15.1964 36.389 15.2081 36.576 15.2314C36.6461 15.2431 36.7163 15.2548 36.7981 15.2548L36.9501 15.2781C37.3826 15.3364 37.8035 15.4181 38.236 15.5114C38.8674 15.6514 39.6739 15.6981 39.9544 16.3749C40.048 16.5965 40.083 16.8298 40.1298 17.0632L40.1883 17.3549V17.3666C40.3403 18.0549 40.4805 18.7434 40.6325 19.4317C40.6442 19.4784 40.6442 19.5367 40.6325 19.5834C40.6208 19.6301 40.5974 19.6883 40.5741 19.7234C40.539 19.7701 40.5038 19.805 40.4571 19.8283C40.4104 19.8517 40.3637 19.8751 40.3168 19.8751L40.1298 19.8984C39.8493 19.9333 39.557 19.9683 39.2765 20.0034C38.7154 20.0618 38.1542 20.12 37.5931 20.1667C36.4707 20.26 35.3602 20.3184 34.2379 20.3535C33.6651 20.3651 33.0923 20.3767 32.5195 20.3767C30.24 20.3767 27.972 20.2483 25.7158 19.98C25.4704 19.9567 25.2248 19.9218 24.9794 19.8867C25.1664 19.9101 24.839 19.8634 24.7806 19.8634C24.6286 19.84 24.465 19.8167 24.313 19.7933C23.787 19.7117 23.2726 19.6184 22.7466 19.5367C22.1152 19.4317 21.519 19.4899 20.9462 19.7933C20.4787 20.0501 20.1045 20.4351 19.859 20.9135C19.6136 21.4151 19.5434 21.9752 19.4266 22.5119C19.3213 23.0602 19.1459 23.6435 19.2162 24.2037C19.3563 25.4053 20.1981 26.3855 21.4139 26.6071C22.5595 26.8171 23.7051 26.9805 24.8624 27.1205C29.3866 27.6688 33.9691 27.7389 38.505 27.3189C38.879 27.2839 39.2414 27.2488 39.6155 27.2021C39.7323 27.1904 39.8493 27.2021 39.9544 27.2371C40.0597 27.2722 40.165 27.3421 40.2467 27.4239C40.3285 27.5055 40.387 27.5989 40.4338 27.7155C40.4688 27.8205 40.4922 27.9371 40.4805 28.0539L40.3637 29.1739C40.1298 31.4258 39.896 33.6776 39.6739 35.941C39.4285 38.3095 39.1946 40.6779 38.9491 43.0464C38.879 43.7115 38.8088 44.3765 38.7387 45.0416C38.6685 45.6949 38.6685 46.3717 38.54 47.025C38.3413 48.0402 37.6515 48.6701 36.6461 48.9035C35.7226 49.1135 34.7757 49.2186 33.8288 49.2301C32.7766 49.2301 31.7246 49.1952 30.6725 49.1952C29.5502 49.2069 28.1707 49.1018 27.3058 48.2618C26.5459 47.5267 26.4406 46.3834 26.3354 45.3915C26.1952 44.0848 26.0549 42.7664 25.9262 41.4597L24.6754 29.4423C24.6637 29.3607 24.6637 29.2906 24.652 29.209C24.5936 28.649 24.1962 28.1005 23.5648 28.1239C23.027 28.1472 22.4192 28.6023 22.4776 29.209L22.84 32.7091L23.6 39.9429C23.8104 41.9963 24.0325 44.0498 24.2429 46.1149C24.2896 46.5117 24.3246 46.9083 24.3715 47.2935C24.6053 49.4519 26.2536 50.6069 28.2994 50.9336C29.4918 51.1203 30.7075 51.1669 31.9234 51.1786C33.4781 51.2019 35.0446 51.2603 36.5643 50.9803C38.8205 50.5719 40.5155 49.0669 40.7611 46.7216C40.8312 46.045 40.9014 45.3683 40.9715 44.7032C41.2053 42.4747 41.4274 40.2463 41.6613 38.0061L42.7485 27.3771C42.7602 27.2138 42.8302 27.0504 42.9472 26.9338C43.064 26.8171 43.2043 26.7239 43.368 26.7005C44.0109 26.5722 44.6306 26.3621 45.0864 25.872C45.7645 25.1021 45.9048 24.0869 45.6475 23.0602ZM21.3554 23.7835C21.367 23.7835 21.3437 23.8653 21.3437 23.9003C21.332 23.8419 21.332 23.7835 21.3554 23.7835ZM21.4139 24.2619C21.4139 24.2619 21.4373 24.2736 21.449 24.3087C21.4256 24.2853 21.4139 24.2619 21.4139 24.2619ZM21.4723 24.3437C21.4957 24.3903 21.5074 24.4136 21.4723 24.3437V24.3437ZM43.2744 24.297C43.0406 24.5186 42.6899 24.6237 42.3509 24.6703C38.4814 25.2421 34.5419 25.5338 30.6258 25.4053C27.82 25.312 25.0494 24.997 22.2672 24.612C21.9984 24.577 21.7061 24.5186 21.519 24.3203C21.1683 23.9469 21.3437 23.1885 21.4373 22.7219C21.519 22.3018 21.6827 21.7418 22.1854 21.6835C22.957 21.5901 23.8688 21.9168 24.6286 22.0335C25.5522 22.1735 26.4874 22.2903 27.4109 22.3719C31.3856 22.7336 35.4421 22.6752 39.3933 22.1501C40.1181 22.0568 40.8312 21.9402 41.556 21.8119C42.199 21.6952 42.9003 21.4851 43.2862 22.1386C43.555 22.5935 43.5901 23.1885 43.5434 23.7019C43.5434 23.9352 43.4381 24.1453 43.2744 24.297Z" fill="#010202"/>
</g>
<defs>
<clipPath id="clip0_957_85">
<rect width="64" height="64" rx="12" fill="white"/>
</clipPath>
</defs>
</svg>
