<svg width="340" height="160" viewBox="0 0 340 160" fill="none" xmlns="http://www.w3.org/2000/svg">
<g clip-path="url(#clip0_1133_32)">
<rect width="340" height="160" fill="white"/>
<g opacity="0.9" filter="url(#filter0_f_1133_32)">
<path opacity="0.6" d="M351.041 235.725C409.42 216.895 463.85 169.037 479.224 113.109C493.286 61.9391 450.378 21.7892 420.842 -18.2333C400.702 -45.5275 374.457 -66.8368 339.725 -75.9338C308.372 -84.1452 276.009 -71.34 242.411 -64.9678C190.115 -55.0512 127.561 -69.3939 92.3837 -29.0295C54.6941 14.2206 56.8658 77.3799 77.6417 124.105C97.4512 168.655 149.236 185.242 196.18 204.407C245.685 224.617 295.902 253.51 351.041 235.725Z" fill="url(#paint0_linear_1133_32)"/>
</g>
<g opacity="0.6" filter="url(#filter1_f_1133_32)">
<path d="M91.4476 269.457C146.826 250.208 190.129 199.26 207.324 137.105C224.026 76.7317 207.794 13.0311 177.034 -39.9211C146.577 -92.3538 101.46 -135.773 45.885 -140.813C-8.49676 -145.745 -55.8379 -108.222 -94.0542 -64.5085C-132.314 -20.7459 -166.123 33.2746 -159.521 94.1454C-152.913 155.074 -108.453 198.297 -62.0332 230.723C-15.192 263.445 38.7465 287.774 91.4476 269.457Z" fill="url(#paint1_linear_1133_32)"/>
</g>
<path opacity="0.72" d="M98.5325 62.9901V60.4545H110.479V62.9901H106.025V75H102.986V62.9901H98.5325ZM111.256 75V64.0909H114.189V65.9943H114.303C114.502 65.3172 114.836 64.8059 115.305 64.4602C115.773 64.1098 116.313 63.9347 116.924 63.9347C117.075 63.9347 117.239 63.9441 117.414 63.9631C117.589 63.982 117.743 64.008 117.876 64.0412V66.7259C117.733 66.6832 117.537 66.6454 117.286 66.6122C117.035 66.5791 116.805 66.5625 116.597 66.5625C116.152 66.5625 115.754 66.6596 115.404 66.8537C115.058 67.0431 114.784 67.3082 114.58 67.6491C114.381 67.9901 114.282 68.383 114.282 68.8281V75H111.256ZM121.64 79.0909C121.256 79.0909 120.896 79.0601 120.56 78.9986C120.229 78.9418 119.954 78.8684 119.736 78.7784L120.418 76.5199C120.773 76.6288 121.093 76.688 121.377 76.6974C121.666 76.7069 121.914 76.6406 122.123 76.4986C122.336 76.3565 122.509 76.1151 122.641 75.7741L122.819 75.3125L118.905 64.0909H122.087L124.346 72.1023H124.459L126.739 64.0909H129.942L125.702 76.179C125.499 76.7661 125.222 77.2775 124.871 77.7131C124.526 78.1534 124.088 78.492 123.557 78.7287C123.027 78.9702 122.388 79.0909 121.64 79.0909ZM136.176 60.4545H139.969L143.975 70.2273H144.145L148.151 60.4545H151.943V75H148.96V65.5327H148.84L145.075 74.929H143.044L139.28 65.4972H139.159V75H136.176V60.4545ZM156.288 79.0909C155.905 79.0909 155.545 79.0601 155.209 78.9986C154.877 78.9418 154.603 78.8684 154.385 78.7784L155.067 76.5199C155.422 76.6288 155.741 76.688 156.025 76.6974C156.314 76.7069 156.563 76.6406 156.771 76.4986C156.984 76.3565 157.157 76.1151 157.29 75.7741L157.467 75.3125L153.554 64.0909H156.736L158.994 72.1023H159.108L161.388 64.0909H164.591L160.351 76.179C160.147 76.7661 159.87 77.2775 159.52 77.7131C159.174 78.1534 158.736 78.492 158.206 78.7287C157.675 78.9702 157.036 79.0909 156.288 79.0909ZM170.825 75V60.4545H176.563C177.667 60.4545 178.606 60.6652 179.383 61.0866C180.16 61.5033 180.751 62.0833 181.159 62.8267C181.57 63.5653 181.776 64.4176 181.776 65.3835C181.776 66.3494 181.568 67.2017 181.151 67.9403C180.735 68.679 180.131 69.2543 179.34 69.6662C178.554 70.0781 177.603 70.2841 176.485 70.2841H172.828V67.8196H175.988C176.58 67.8196 177.068 67.7178 177.451 67.5142C177.839 67.3059 178.128 67.0194 178.318 66.6548C178.512 66.2855 178.609 65.8617 178.609 65.3835C178.609 64.9006 178.512 64.4792 178.318 64.1193C178.128 63.7547 177.839 63.473 177.451 63.2741C177.063 63.0705 176.57 62.9688 175.974 62.9688H173.9V75H170.825ZM186.743 60.4545V75H183.717V60.4545H186.743ZM196.162 70.3551V64.0909H199.188V75H196.283V73.0185H196.169C195.923 73.6577 195.513 74.1714 194.941 74.5597C194.372 74.9479 193.679 75.142 192.86 75.142C192.13 75.142 191.489 74.9763 190.935 74.6449C190.381 74.3134 189.948 73.8423 189.635 73.2315C189.327 72.6207 189.171 71.8892 189.166 71.0369V64.0909H192.192V70.4972C192.197 71.1411 192.369 71.6501 192.71 72.0241C193.051 72.3982 193.508 72.5852 194.081 72.5852C194.446 72.5852 194.787 72.5024 195.104 72.3366C195.421 72.1662 195.677 71.9152 195.871 71.5838C196.07 71.2524 196.167 70.8428 196.162 70.3551ZM206.523 79.3182C205.542 79.3182 204.702 79.1832 204.001 78.9134C203.305 78.6482 202.751 78.286 202.339 77.8267C201.927 77.3674 201.66 76.8513 201.537 76.2784L204.335 75.902C204.42 76.1198 204.555 76.3234 204.74 76.5128C204.925 76.7022 205.168 76.8537 205.471 76.9673C205.779 77.0857 206.153 77.1449 206.594 77.1449C207.252 77.1449 207.794 76.9839 208.22 76.6619C208.651 76.3447 208.866 75.812 208.866 75.0639V73.0682H208.738C208.606 73.3712 208.407 73.6577 208.142 73.9276C207.877 74.1974 207.536 74.4176 207.119 74.5881C206.702 74.7585 206.205 74.8438 205.628 74.8438C204.809 74.8438 204.063 74.6544 203.39 74.2756C202.723 73.892 202.19 73.3073 201.792 72.5213C201.399 71.7306 201.203 70.7315 201.203 69.5241C201.203 68.2884 201.404 67.2562 201.807 66.4276C202.209 65.599 202.744 64.9787 203.412 64.5668C204.084 64.1548 204.82 63.9489 205.621 63.9489C206.231 63.9489 206.743 64.053 207.155 64.2614C207.567 64.465 207.898 64.7206 208.149 65.0284C208.405 65.3314 208.601 65.6297 208.738 65.9233H208.852V64.0909H211.856V75.1065C211.856 76.0346 211.629 76.8111 211.175 77.4361C210.72 78.0611 210.09 78.5298 209.285 78.8423C208.485 79.1596 207.564 79.3182 206.523 79.3182ZM206.586 72.571C207.074 72.571 207.486 72.4503 207.822 72.2088C208.163 71.9626 208.424 71.6122 208.604 71.1577C208.788 70.6984 208.881 70.1491 208.881 69.5099C208.881 68.8707 208.791 68.3168 208.611 67.848C208.431 67.3745 208.17 67.0076 207.829 66.7472C207.488 66.4867 207.074 66.3565 206.586 66.3565C206.089 66.3565 205.67 66.4915 205.329 66.7614C204.988 67.0265 204.73 67.3958 204.555 67.8693C204.38 68.3428 204.292 68.8897 204.292 69.5099C204.292 70.1397 204.38 70.6842 204.555 71.1435C204.735 71.598 204.993 71.9508 205.329 72.2017C205.67 72.4479 206.089 72.571 206.586 72.571ZM214.264 75V64.0909H217.29V75H214.264ZM215.784 62.6847C215.334 62.6847 214.948 62.5355 214.626 62.2372C214.309 61.9342 214.15 61.572 214.15 61.1506C214.15 60.7339 214.309 60.3764 214.626 60.0781C214.948 59.7751 215.334 59.6236 215.784 59.6236C216.234 59.6236 216.617 59.7751 216.934 60.0781C217.256 60.3764 217.417 60.7339 217.417 61.1506C217.417 61.572 217.256 61.9342 216.934 62.2372C216.617 62.5355 216.234 62.6847 215.784 62.6847ZM222.739 68.6932V75H219.713V64.0909H222.597V66.0156H222.725C222.966 65.3812 223.371 64.8793 223.939 64.5099C224.507 64.1359 225.196 63.9489 226.006 63.9489C226.763 63.9489 227.424 64.1146 227.987 64.446C228.551 64.7775 228.989 65.2509 229.301 65.8665C229.614 66.4773 229.77 67.2064 229.77 68.054V75H226.744V68.5938C226.749 67.9261 226.579 67.4053 226.233 67.0312C225.887 66.6525 225.412 66.4631 224.806 66.4631C224.398 66.4631 224.039 66.5507 223.726 66.7259C223.418 66.901 223.177 67.1567 223.002 67.4929C222.831 67.8243 222.744 68.2244 222.739 68.6932ZM241.231 67.2017L238.461 67.3722C238.414 67.1354 238.312 66.9223 238.156 66.733C238 66.5388 237.794 66.3849 237.538 66.2713C237.287 66.1529 236.987 66.0938 236.636 66.0938C236.167 66.0938 235.772 66.1932 235.45 66.392C235.128 66.5862 234.967 66.8466 234.967 67.1733C234.967 67.4337 235.071 67.6539 235.28 67.8338C235.488 68.0137 235.845 68.1581 236.352 68.267L238.327 68.6648C239.387 68.8826 240.178 69.233 240.699 69.7159C241.22 70.1989 241.48 70.8333 241.48 71.6193C241.48 72.3343 241.269 72.9616 240.848 73.5014C240.431 74.0412 239.858 74.4626 239.129 74.7656C238.405 75.0639 237.569 75.2131 236.622 75.2131C235.178 75.2131 234.027 74.9124 233.17 74.3111C232.318 73.705 231.818 72.8812 231.672 71.8395L234.648 71.6832C234.738 72.1236 234.955 72.4598 235.301 72.6918C235.647 72.919 236.089 73.0327 236.629 73.0327C237.159 73.0327 237.586 72.9309 237.907 72.7273C238.234 72.5189 238.4 72.2514 238.405 71.9247C238.4 71.6501 238.284 71.4252 238.057 71.25C237.829 71.0701 237.479 70.9328 237.006 70.8381L235.116 70.4616C234.051 70.2486 233.258 69.8793 232.737 69.3537C232.221 68.8281 231.963 68.1581 231.963 67.3438C231.963 66.643 232.152 66.0393 232.531 65.5327C232.915 65.026 233.452 64.6354 234.143 64.3608C234.839 64.0862 235.654 63.9489 236.586 63.9489C237.964 63.9489 239.049 64.2401 239.839 64.8224C240.635 65.4048 241.099 66.1979 241.231 67.2017ZM48.3629 99.2131C47.3591 99.2131 46.4927 99.0331 45.7635 98.6733C45.0343 98.3134 44.4732 97.8258 44.0803 97.2102C43.692 96.59 43.4979 95.8987 43.4979 95.1364C43.4979 94.5682 43.6115 94.0639 43.8388 93.6236C44.0661 93.1832 44.3833 92.7784 44.7905 92.4091C45.1977 92.035 45.6712 91.6634 46.2109 91.294L49.0305 89.4403C49.3951 89.2083 49.6626 88.9645 49.8331 88.7088C50.0036 88.4484 50.0888 88.1667 50.0888 87.8636C50.0888 87.5748 49.9728 87.3073 49.7408 87.0611C49.5088 86.8149 49.1797 86.6941 48.7536 86.6989C48.4695 86.6989 48.2232 86.7628 48.0149 86.8906C47.8066 87.0137 47.6432 87.1771 47.5249 87.3807C47.4112 87.5795 47.3544 87.8021 47.3544 88.0483C47.3544 88.3513 47.4396 88.6591 47.6101 88.9716C47.7805 89.2841 48.0078 89.6155 48.2919 89.9659C48.576 90.3116 48.8861 90.6856 49.2223 91.0881L56.1186 99H52.9652L47.2124 92.5938C46.8336 92.1629 46.4548 91.7131 46.076 91.2443C45.7019 90.7708 45.3894 90.2689 45.1385 89.7386C44.8875 89.2036 44.7621 88.6236 44.7621 87.9986C44.7621 87.2931 44.9254 86.6586 45.2521 86.0952C45.5836 85.5317 46.0476 85.0866 46.6442 84.7599C47.2408 84.4285 47.9368 84.2628 48.7322 84.2628C49.5088 84.2628 50.1787 84.4214 50.7422 84.7386C51.3104 85.0511 51.746 85.4678 52.049 85.9886C52.3568 86.5047 52.5107 87.0729 52.5107 87.6932C52.5107 88.3797 52.3402 89.0024 51.9993 89.5611C51.6631 90.1151 51.1896 90.6122 50.5788 91.0526L47.6101 93.1903C47.2076 93.4839 46.9093 93.7846 46.7152 94.0923C46.5258 94.3954 46.4311 94.6866 46.4311 94.9659C46.4311 95.3116 46.5163 95.6217 46.6868 95.8963C46.8572 96.1709 47.0987 96.3887 47.4112 96.5497C47.7237 96.706 48.0907 96.7841 48.5121 96.7841C49.0234 96.7841 49.5277 96.6681 50.0249 96.4361C50.5268 96.1993 50.9813 95.8655 51.3885 95.4347C51.8004 94.9991 52.1295 94.483 52.3757 93.8864C52.6219 93.2898 52.745 92.6293 52.745 91.9048H55.2521C55.2521 92.795 55.1551 93.5975 54.9609 94.3125C54.7668 95.0227 54.4969 95.643 54.1513 96.1733C53.8056 96.6989 53.4103 97.1297 52.9652 97.4659C52.8232 97.5559 52.6858 97.6411 52.5533 97.7216C52.4207 97.8021 52.2834 97.8873 52.1413 97.9773C51.6016 98.4129 50.9979 98.7277 50.3303 98.9219C49.6674 99.116 49.0116 99.2131 48.3629 99.2131ZM74.8988 89.5469H71.788C71.7312 89.1444 71.6152 88.7869 71.44 88.4744C71.2648 88.1572 71.0399 87.8873 70.7653 87.6648C70.4906 87.4422 70.1734 87.2718 69.8136 87.1534C69.4585 87.035 69.0726 86.9759 68.6559 86.9759C67.9031 86.9759 67.2473 87.1629 66.6886 87.5369C66.1299 87.9062 65.6966 88.446 65.3888 89.1562C65.0811 89.8617 64.9272 90.7187 64.9272 91.7273C64.9272 92.7642 65.0811 93.6354 65.3888 94.3409C65.7013 95.0464 66.137 95.5791 66.6957 95.9389C67.2544 96.2988 67.9007 96.4787 68.6346 96.4787C69.0465 96.4787 69.4277 96.4242 69.7781 96.3153C70.1332 96.2064 70.448 96.0478 70.7227 95.8395C70.9973 95.6264 71.2246 95.3684 71.4045 95.0653C71.5891 94.7623 71.717 94.4167 71.788 94.0284L74.8988 94.0426C74.8183 94.7102 74.6171 95.3542 74.2951 95.9744C73.9779 96.59 73.5494 97.1416 73.0096 97.6293C72.4746 98.1122 71.8353 98.4957 71.092 98.7798C70.3533 99.0592 69.5176 99.1989 68.5849 99.1989C67.2875 99.1989 66.1275 98.9053 65.1048 98.3182C64.0868 97.7311 63.2818 96.8812 62.69 95.7685C62.1029 94.6558 61.8093 93.3087 61.8093 91.7273C61.8093 90.1411 62.1076 88.7917 62.7042 87.679C63.3008 86.5663 64.1104 85.7187 65.1332 85.1364C66.1559 84.5492 67.3065 84.2557 68.5849 84.2557C69.4277 84.2557 70.2089 84.3741 70.9286 84.6108C71.6531 84.8475 72.2946 85.1932 72.8533 85.6477C73.4121 86.0975 73.8666 86.6491 74.217 87.3026C74.5721 87.956 74.7994 88.7041 74.8988 89.5469ZM81.9762 99.2131C80.873 99.2131 79.9189 98.9787 79.114 98.5099C78.3138 98.0365 77.6959 97.3783 77.2603 96.5355C76.8247 95.688 76.6069 94.7055 76.6069 93.5881C76.6069 92.4612 76.8247 91.4763 77.2603 90.6335C77.6959 89.786 78.3138 89.1278 79.114 88.6591C79.9189 88.1856 80.873 87.9489 81.9762 87.9489C83.0794 87.9489 84.0311 88.1856 84.8313 88.6591C85.6362 89.1278 86.2565 89.786 86.6921 90.6335C87.1277 91.4763 87.3455 92.4612 87.3455 93.5881C87.3455 94.7055 87.1277 95.688 86.6921 96.5355C86.2565 97.3783 85.6362 98.0365 84.8313 98.5099C84.0311 98.9787 83.0794 99.2131 81.9762 99.2131ZM81.9904 96.8693C82.4923 96.8693 82.9113 96.7273 83.2475 96.4432C83.5837 96.1544 83.837 95.7614 84.0075 95.2642C84.1826 94.767 84.2702 94.2012 84.2702 93.5668C84.2702 92.9323 84.1826 92.3665 84.0075 91.8693C83.837 91.3722 83.5837 90.9792 83.2475 90.6903C82.9113 90.4015 82.4923 90.2571 81.9904 90.2571C81.4838 90.2571 81.0576 90.4015 80.712 90.6903C80.3711 90.9792 80.113 91.3722 79.9379 91.8693C79.7674 92.3665 79.6822 92.9323 79.6822 93.5668C79.6822 94.2012 79.7674 94.767 79.9379 95.2642C80.113 95.7614 80.3711 96.1544 80.712 96.4432C81.0576 96.7273 81.4838 96.8693 81.9904 96.8693ZM89.3129 99V88.0909H92.1964V90.0156H92.3242C92.5515 89.3764 92.9303 88.8722 93.4606 88.5028C93.9909 88.1335 94.6254 87.9489 95.364 87.9489C96.1121 87.9489 96.7489 88.1359 97.2745 88.5099C97.8001 88.8793 98.1505 89.3812 98.3256 90.0156H98.4393C98.6618 89.3906 99.0643 88.8911 99.6467 88.517C100.234 88.1383 100.927 87.9489 101.728 87.9489C102.746 87.9489 103.572 88.2732 104.206 88.9219C104.846 89.5658 105.165 90.4796 105.165 91.6634V99H102.147V92.2599C102.147 91.6539 101.986 91.1993 101.664 90.8963C101.342 90.5933 100.939 90.4418 100.456 90.4418C99.9071 90.4418 99.4786 90.617 99.1708 90.9673C98.863 91.313 98.7092 91.7699 98.7092 92.3381V99H95.7759V92.196C95.7759 91.661 95.622 91.2348 95.3143 90.9176C95.0112 90.6004 94.6112 90.4418 94.114 90.4418C93.7778 90.4418 93.4748 90.527 93.2049 90.6974C92.9397 90.8632 92.729 91.0975 92.5728 91.4006C92.4165 91.6989 92.3384 92.0492 92.3384 92.4517V99H89.3129ZM107.555 99V88.0909H110.439V90.0156H110.566C110.794 89.3764 111.172 88.8722 111.703 88.5028C112.233 88.1335 112.868 87.9489 113.606 87.9489C114.354 87.9489 114.991 88.1359 115.517 88.5099C116.042 88.8793 116.393 89.3812 116.568 90.0156H116.681C116.904 89.3906 117.306 88.8911 117.889 88.517C118.476 88.1383 119.17 87.9489 119.97 87.9489C120.988 87.9489 121.814 88.2732 122.449 88.9219C123.088 89.5658 123.407 90.4796 123.407 91.6634V99H120.389V92.2599C120.389 91.6539 120.228 91.1993 119.906 90.8963C119.584 90.5933 119.181 90.4418 118.699 90.4418C118.149 90.4418 117.721 90.617 117.413 90.9673C117.105 91.313 116.951 91.7699 116.951 92.3381V99H114.018V92.196C114.018 91.661 113.864 91.2348 113.556 90.9176C113.253 90.6004 112.853 90.4418 112.356 90.4418C112.02 90.4418 111.717 90.527 111.447 90.6974C111.182 90.8632 110.971 91.0975 110.815 91.4006C110.659 91.6989 110.581 92.0492 110.581 92.4517V99H107.555ZM130.769 99.2131C129.647 99.2131 128.681 98.9858 127.871 98.5312C127.066 98.072 126.446 97.4233 126.01 96.5852C125.575 95.7424 125.357 94.7457 125.357 93.5952C125.357 92.473 125.575 91.4882 126.01 90.6406C126.446 89.7931 127.059 89.1326 127.85 88.6591C128.645 88.1856 129.578 87.9489 130.648 87.9489C131.368 87.9489 132.038 88.0649 132.658 88.2969C133.283 88.5241 133.828 88.8674 134.292 89.3267C134.76 89.786 135.125 90.3636 135.385 91.0597C135.646 91.7509 135.776 92.5606 135.776 93.4886V94.3196H126.564V92.4446H132.928C132.928 92.009 132.833 91.6231 132.644 91.2869C132.454 90.9508 132.192 90.688 131.855 90.4986C131.524 90.3045 131.138 90.2074 130.698 90.2074C130.239 90.2074 129.831 90.3139 129.476 90.527C129.126 90.7353 128.851 91.017 128.652 91.3722C128.453 91.7225 128.352 92.1132 128.347 92.544V94.3267C128.347 94.8665 128.446 95.3329 128.645 95.7259C128.849 96.1188 129.135 96.4219 129.505 96.6349C129.874 96.848 130.312 96.9545 130.819 96.9545C131.155 96.9545 131.462 96.9072 131.742 96.8125C132.021 96.7178 132.26 96.5758 132.459 96.3864C132.658 96.197 132.81 95.965 132.914 95.6903L135.712 95.875C135.57 96.5473 135.279 97.1345 134.838 97.6364C134.403 98.1335 133.839 98.5218 133.148 98.8011C132.462 99.0758 131.668 99.2131 130.769 99.2131ZM140.776 92.6932V99H137.75V88.0909H140.634V90.0156H140.762C141.003 89.3812 141.408 88.8793 141.976 88.5099C142.544 88.1359 143.233 87.9489 144.043 87.9489C144.801 87.9489 145.461 88.1146 146.025 88.446C146.588 88.7775 147.026 89.2509 147.338 89.8665C147.651 90.4773 147.807 91.2064 147.807 92.054V99H144.782V92.5938C144.786 91.9261 144.616 91.4053 144.27 91.0312C143.925 90.6525 143.449 90.4631 142.843 90.4631C142.435 90.4631 142.076 90.5507 141.763 90.7259C141.455 90.901 141.214 91.1567 141.039 91.4929C140.868 91.8243 140.781 92.2244 140.776 92.6932ZM155.994 88.0909V90.3636H149.425V88.0909H155.994ZM150.916 85.4773H153.942V95.6477C153.942 95.9271 153.984 96.1449 154.07 96.3011C154.155 96.4527 154.273 96.5592 154.425 96.6207C154.581 96.6823 154.761 96.7131 154.964 96.7131C155.107 96.7131 155.249 96.7012 155.391 96.6776C155.533 96.6491 155.642 96.6278 155.717 96.6136L156.193 98.8651C156.042 98.9124 155.829 98.9669 155.554 99.0284C155.279 99.0947 154.946 99.1349 154.553 99.1491C153.823 99.1776 153.184 99.0805 152.635 98.858C152.09 98.6354 151.667 98.2898 151.364 97.821C151.061 97.3523 150.911 96.7604 150.916 96.0455V85.4773ZM164.462 103.091C164.078 103.091 163.719 103.06 163.382 102.999C163.051 102.942 162.776 102.868 162.559 102.778L163.24 100.52C163.596 100.629 163.915 100.688 164.199 100.697C164.488 100.707 164.737 100.641 164.945 100.499C165.158 100.357 165.331 100.115 165.463 99.7741L165.641 99.3125L161.728 88.0909H164.909L167.168 96.1023H167.282L169.561 88.0909H172.765L168.525 100.179C168.321 100.766 168.044 101.277 167.694 101.713C167.348 102.153 166.91 102.492 166.38 102.729C165.849 102.97 165.21 103.091 164.462 103.091ZM178.89 99.2131C177.787 99.2131 176.833 98.9787 176.028 98.5099C175.228 98.0365 174.61 97.3783 174.174 96.5355C173.739 95.688 173.521 94.7055 173.521 93.5881C173.521 92.4612 173.739 91.4763 174.174 90.6335C174.61 89.786 175.228 89.1278 176.028 88.6591C176.833 88.1856 177.787 87.9489 178.89 87.9489C179.993 87.9489 180.945 88.1856 181.745 88.6591C182.55 89.1278 183.171 89.786 183.606 90.6335C184.042 91.4763 184.26 92.4612 184.26 93.5881C184.26 94.7055 184.042 95.688 183.606 96.5355C183.171 97.3783 182.55 98.0365 181.745 98.5099C180.945 98.9787 179.993 99.2131 178.89 99.2131ZM178.904 96.8693C179.406 96.8693 179.825 96.7273 180.162 96.4432C180.498 96.1544 180.751 95.7614 180.922 95.2642C181.097 94.767 181.184 94.2012 181.184 93.5668C181.184 92.9323 181.097 92.3665 180.922 91.8693C180.751 91.3722 180.498 90.9792 180.162 90.6903C179.825 90.4015 179.406 90.2571 178.904 90.2571C178.398 90.2571 177.972 90.4015 177.626 90.6903C177.285 90.9792 177.027 91.3722 176.852 91.8693C176.681 92.3665 176.596 92.9323 176.596 93.5668C176.596 94.2012 176.681 94.767 176.852 95.2642C177.027 95.7614 177.285 96.1544 177.626 96.4432C177.972 96.7273 178.398 96.8693 178.904 96.8693ZM193.223 94.3551V88.0909H196.248V99H193.343V97.0185H193.23C192.984 97.6577 192.574 98.1714 192.001 98.5597C191.433 98.9479 190.739 99.142 189.92 99.142C189.191 99.142 188.549 98.9763 187.995 98.6449C187.441 98.3134 187.008 97.8423 186.696 97.2315C186.388 96.6207 186.232 95.8892 186.227 95.0369V88.0909H189.252V94.4972C189.257 95.1411 189.43 95.6501 189.771 96.0241C190.112 96.3982 190.569 96.5852 191.142 96.5852C191.506 96.5852 191.847 96.5024 192.164 96.3366C192.482 96.1662 192.737 95.9152 192.931 95.5838C193.13 95.2524 193.227 94.8428 193.223 94.3551ZM203.354 99V84.4545H212.985V86.9901H206.429V90.456H212.346V92.9915H206.429V99H203.354ZM219.167 99.2131C218.045 99.2131 217.079 98.9858 216.27 98.5312C215.465 98.072 214.844 97.4233 214.409 96.5852C213.973 95.7424 213.755 94.7457 213.755 93.5952C213.755 92.473 213.973 91.4882 214.409 90.6406C214.844 89.7931 215.458 89.1326 216.248 88.6591C217.044 88.1856 217.976 87.9489 219.047 87.9489C219.766 87.9489 220.436 88.0649 221.056 88.2969C221.681 88.5241 222.226 88.8674 222.69 89.3267C223.159 89.786 223.523 90.3636 223.784 91.0597C224.044 91.7509 224.174 92.5606 224.174 93.4886V94.3196H214.963V92.4446H221.326C221.326 92.009 221.232 91.6231 221.042 91.2869C220.853 90.9508 220.59 90.688 220.254 90.4986C219.922 90.3045 219.537 90.2074 219.096 90.2074C218.637 90.2074 218.23 90.3139 217.875 90.527C217.524 90.7353 217.25 91.017 217.051 91.3722C216.852 91.7225 216.75 92.1132 216.745 92.544V94.3267C216.745 94.8665 216.845 95.3329 217.044 95.7259C217.247 96.1188 217.534 96.4219 217.903 96.6349C218.272 96.848 218.71 96.9545 219.217 96.9545C219.553 96.9545 219.861 96.9072 220.14 96.8125C220.42 96.7178 220.659 96.5758 220.858 96.3864C221.056 96.197 221.208 95.965 221.312 95.6903L224.11 95.875C223.968 96.5473 223.677 97.1345 223.237 97.6364C222.801 98.1335 222.238 98.5218 221.547 98.8011C220.86 99.0758 220.067 99.2131 219.167 99.2131ZM231.12 99.2131C229.998 99.2131 229.032 98.9858 228.223 98.5312C227.418 98.072 226.797 97.4233 226.362 96.5852C225.926 95.7424 225.708 94.7457 225.708 93.5952C225.708 92.473 225.926 91.4882 226.362 90.6406C226.797 89.7931 227.411 89.1326 228.201 88.6591C228.997 88.1856 229.93 87.9489 231 87.9489C231.719 87.9489 232.389 88.0649 233.01 88.2969C233.635 88.5241 234.179 88.8674 234.643 89.3267C235.112 89.786 235.476 90.3636 235.737 91.0597C235.997 91.7509 236.127 92.5606 236.127 93.4886V94.3196H226.916V92.4446H233.279C233.279 92.009 233.185 91.6231 232.995 91.2869C232.806 90.9508 232.543 90.688 232.207 90.4986C231.876 90.3045 231.49 90.2074 231.049 90.2074C230.59 90.2074 230.183 90.3139 229.828 90.527C229.477 90.7353 229.203 91.017 229.004 91.3722C228.805 91.7225 228.703 92.1132 228.699 92.544V94.3267C228.699 94.8665 228.798 95.3329 228.997 95.7259C229.2 96.1188 229.487 96.4219 229.856 96.6349C230.225 96.848 230.663 96.9545 231.17 96.9545C231.506 96.9545 231.814 96.9072 232.093 96.8125C232.373 96.7178 232.612 96.5758 232.811 96.3864C233.01 96.197 233.161 95.965 233.265 95.6903L236.064 95.875C235.922 96.5473 235.63 97.1345 235.19 97.6364C234.754 98.1335 234.191 98.5218 233.5 98.8011C232.813 99.0758 232.02 99.2131 231.12 99.2131ZM242.122 99.1776C241.293 99.1776 240.543 98.9645 239.87 98.5384C239.203 98.1075 238.672 97.4754 238.279 96.642C237.891 95.804 237.697 94.7765 237.697 93.5597C237.697 92.3097 237.898 91.2704 238.301 90.4418C238.703 89.6084 239.238 88.9858 239.906 88.5739C240.578 88.1572 241.315 87.9489 242.115 87.9489C242.725 87.9489 243.234 88.053 243.642 88.2614C244.054 88.465 244.385 88.7206 244.636 89.0284C244.892 89.3314 245.086 89.6297 245.218 89.9233H245.311V84.4545H248.329V99H245.346V97.2528H245.218C245.076 97.5559 244.875 97.8565 244.615 98.1548C244.359 98.4484 244.025 98.6922 243.613 98.8864C243.206 99.0805 242.709 99.1776 242.122 99.1776ZM243.081 96.7699C243.568 96.7699 243.98 96.6373 244.316 96.3722C244.657 96.1023 244.918 95.7259 245.098 95.2429C245.282 94.7599 245.375 94.1941 245.375 93.5455C245.375 92.8968 245.285 92.3333 245.105 91.8551C244.925 91.3769 244.664 91.0076 244.324 90.7472C243.983 90.4867 243.568 90.3565 243.081 90.3565C242.583 90.3565 242.164 90.4915 241.824 90.7614C241.483 91.0312 241.225 91.4053 241.049 91.8835C240.874 92.3617 240.787 92.9157 240.787 93.5455C240.787 94.1799 240.874 94.741 241.049 95.2287C241.229 95.7116 241.487 96.0904 241.824 96.3651C242.164 96.6349 242.583 96.7699 243.081 96.7699ZM250.874 99V84.4545H253.899V89.9233H253.991C254.124 89.6297 254.316 89.3314 254.567 89.0284C254.822 88.7206 255.154 88.465 255.561 88.2614C255.973 88.053 256.484 87.9489 257.095 87.9489C257.891 87.9489 258.625 88.1572 259.297 88.5739C259.969 88.9858 260.507 89.6084 260.909 90.4418C261.312 91.2704 261.513 92.3097 261.513 93.5597C261.513 94.7765 261.316 95.804 260.923 96.642C260.535 97.4754 260.005 98.1075 259.332 98.5384C258.665 98.9645 257.917 99.1776 257.088 99.1776C256.501 99.1776 256.001 99.0805 255.589 98.8864C255.182 98.6922 254.848 98.4484 254.588 98.1548C254.328 97.8565 254.129 97.5559 253.991 97.2528H253.857V99H250.874ZM253.835 93.5455C253.835 94.1941 253.925 94.7599 254.105 95.2429C254.285 95.7259 254.545 96.1023 254.886 96.3722C255.227 96.6373 255.642 96.7699 256.129 96.7699C256.622 96.7699 257.038 96.6349 257.379 96.3651C257.72 96.0904 257.978 95.7116 258.153 95.2287C258.333 94.741 258.423 94.1799 258.423 93.5455C258.423 92.9157 258.336 92.3617 258.161 91.8835C257.985 91.4053 257.727 91.0312 257.386 90.7614C257.045 90.4915 256.626 90.3565 256.129 90.3565C255.637 90.3565 255.22 90.4867 254.879 90.7472C254.543 91.0076 254.285 91.3769 254.105 91.8551C253.925 92.3333 253.835 92.8968 253.835 93.5455ZM266.642 99.206C265.946 99.206 265.326 99.0852 264.782 98.8438C264.237 98.5975 263.806 98.2353 263.489 97.7571C263.176 97.2741 263.02 96.6728 263.02 95.9531C263.02 95.3471 263.132 94.8381 263.354 94.4261C263.577 94.0142 263.88 93.6828 264.263 93.4318C264.647 93.1809 265.082 92.9915 265.57 92.8636C266.062 92.7358 266.578 92.6458 267.118 92.5938C267.753 92.5275 268.264 92.4659 268.652 92.4091C269.041 92.3475 269.322 92.2576 269.498 92.1392C269.673 92.0208 269.76 91.8456 269.76 91.6136V91.571C269.76 91.1212 269.618 90.7732 269.334 90.527C269.055 90.2808 268.657 90.1577 268.141 90.1577C267.596 90.1577 267.163 90.2784 266.841 90.5199C266.519 90.7566 266.306 91.0549 266.202 91.4148L263.404 91.1875C263.546 90.5246 263.825 89.9517 264.242 89.4688C264.658 88.9811 265.196 88.607 265.854 88.3466C266.517 88.0814 267.284 87.9489 268.155 87.9489C268.761 87.9489 269.341 88.0199 269.895 88.1619C270.454 88.304 270.949 88.5241 271.38 88.8224C271.815 89.1207 272.158 89.5043 272.409 89.973C272.66 90.437 272.786 90.9934 272.786 91.642V99H269.917V97.4872H269.831C269.656 97.8281 269.422 98.1288 269.128 98.3892C268.835 98.6449 268.482 98.8461 268.07 98.9929C267.658 99.1349 267.182 99.206 266.642 99.206ZM267.509 97.1179C267.954 97.1179 268.347 97.0303 268.688 96.8551C269.029 96.6752 269.296 96.4337 269.49 96.1307C269.685 95.8277 269.782 95.4844 269.782 95.1009V93.9432C269.687 94.0047 269.557 94.0616 269.391 94.1136C269.23 94.161 269.048 94.206 268.844 94.2486C268.641 94.2865 268.437 94.322 268.233 94.3551C268.03 94.3835 267.845 94.4096 267.679 94.4332C267.324 94.4853 267.014 94.5682 266.749 94.6818C266.484 94.7955 266.278 94.9493 266.131 95.1435C265.984 95.3329 265.911 95.5696 265.911 95.8537C265.911 96.2656 266.06 96.5805 266.358 96.7983C266.661 97.0114 267.045 97.1179 267.509 97.1179ZM280.062 99.2131C278.945 99.2131 277.984 98.9763 277.179 98.5028C276.378 98.0246 275.763 97.3617 275.332 96.5142C274.906 95.6667 274.693 94.6913 274.693 93.5881C274.693 92.4706 274.908 91.4905 275.339 90.6477C275.775 89.8002 276.393 89.1397 277.193 88.6662C277.993 88.188 278.945 87.9489 280.048 87.9489C281 87.9489 281.833 88.1217 282.548 88.4673C283.263 88.813 283.829 89.2983 284.245 89.9233C284.662 90.5483 284.892 91.2822 284.934 92.125H282.079C281.999 91.5805 281.786 91.1425 281.44 90.8111C281.099 90.4749 280.652 90.3068 280.098 90.3068C279.629 90.3068 279.219 90.4347 278.869 90.6903C278.523 90.9413 278.253 91.3082 278.059 91.7912C277.865 92.2741 277.768 92.8589 277.768 93.5455C277.768 94.2415 277.863 94.8333 278.052 95.321C278.246 95.8087 278.519 96.1804 278.869 96.4361C279.219 96.6918 279.629 96.8196 280.098 96.8196C280.443 96.8196 280.753 96.7486 281.028 96.6065C281.307 96.4645 281.537 96.2585 281.717 95.9886C281.902 95.714 282.022 95.3849 282.079 95.0014H284.934C284.887 95.8348 284.66 96.5687 284.252 97.2031C283.85 97.8329 283.294 98.3253 282.583 98.6804C281.873 99.0355 281.033 99.2131 280.062 99.2131ZM289.613 95.8608L289.62 92.2315H290.06L293.555 88.0909H297.028L292.333 93.5739H291.616L289.613 95.8608ZM286.871 99V84.4545H289.897V99H286.871ZM293.69 99L290.479 94.2486L292.496 92.1108L297.234 99H293.69Z" fill="black"/>
</g>
<defs>
<filter id="filter0_f_1133_32" x="-87.1686" y="-228.598" width="719.146" height="619.873" filterUnits="userSpaceOnUse" color-interpolation-filters="sRGB">
<feFlood flood-opacity="0" result="BackgroundImageFix"/>
<feBlend mode="normal" in="SourceGraphic" in2="BackgroundImageFix" result="shape"/>
<feGaussianBlur stdDeviation="75" result="effect1_foregroundBlur_1133_32"/>
</filter>
<filter id="filter1_f_1133_32" x="-272.351" y="-253.25" width="598.365" height="641" filterUnits="userSpaceOnUse" color-interpolation-filters="sRGB">
<feFlood flood-opacity="0" result="BackgroundImageFix"/>
<feBlend mode="normal" in="SourceGraphic" in2="BackgroundImageFix" result="shape"/>
<feGaussianBlur stdDeviation="56" result="effect1_foregroundBlur_1133_32"/>
</filter>
<linearGradient id="paint0_linear_1133_32" x1="435.838" y1="62.6549" x2="149.122" y2="82.679" gradientUnits="userSpaceOnUse">
<stop stop-color="#24FF00"/>
<stop offset="1" stop-color="#99AFFF"/>
</linearGradient>
<linearGradient id="paint1_linear_1133_32" x1="99.5621" y1="128.574" x2="-336.949" y2="29.1315" gradientUnits="userSpaceOnUse">
<stop stop-color="#FFCD1B"/>
<stop offset="1" stop-color="#FFE8C7"/>
</linearGradient>
<clipPath id="clip0_1133_32">
<rect width="340" height="160" fill="white"/>
</clipPath>
</defs>
</svg>
