<svg width="64" height="64" viewBox="0 0 64 64" fill="none" xmlns="http://www.w3.org/2000/svg">
<g clip-path="url(#clip0_957_106)">
<path d="M64 0H0V64H64V0Z" fill="#3E3E3E"/>
<mask id="mask0_957_106" style="mask-type:luminance" maskUnits="userSpaceOnUse" x="12" y="12" width="40" height="40">
<path d="M51.2 12.8H12.8L12.7999 51.2H51.1999L51.2 12.8Z" fill="white"/>
</mask>
<g mask="url(#mask0_957_106)">
<path d="M25.9704 51.2003C29.7061 51.2003 32.7378 48.3331 32.7378 44.8003V38.4003H25.9704C22.2349 38.4003 19.203 41.2675 19.203 44.8003C19.203 48.3331 22.2349 51.2003 25.9704 51.2003Z" fill="#0ACF83"/>
<path d="M19.2016 31.9995C19.2016 28.4667 22.2333 25.5995 25.969 25.5995H32.7363L32.7362 38.3995H25.9688C22.2333 38.3995 19.2016 35.5323 19.2016 31.9995Z" fill="#A259FF"/>
<path d="M19.2016 19.2002C19.2016 15.6673 22.2333 12.8001 25.969 12.8001H32.7363L32.7362 25.6002H25.9688C22.2333 25.6002 19.2016 22.733 19.2016 19.2002Z" fill="#F24E1E"/>
<path d="M32.736 12.7997H39.5034C43.2389 12.7997 46.2706 15.6669 46.2706 19.1997C46.2706 22.7325 43.2389 25.5997 39.5032 25.5997H32.7358L32.736 12.7997Z" fill="#FF7262"/>
<path d="M46.2706 31.9997C46.2706 35.5325 43.2389 38.3997 39.5032 38.3997C35.7677 38.3997 32.7358 35.5325 32.7358 31.9997C32.736 28.4669 35.7677 25.5997 39.5034 25.5997C43.2389 25.5997 46.2706 28.4669 46.2706 31.9997Z" fill="#1ABCFE"/>
</g>
</g>
<defs>
<clipPath id="clip0_957_106">
<rect width="64" height="64" rx="12" fill="white"/>
</clipPath>
</defs>
</svg>
