<svg width="64" height="64" viewBox="0 0 64 64" fill="none" xmlns="http://www.w3.org/2000/svg">
<g clip-path="url(#clip0_957_99)">
<path d="M64 0H0V64H64V0Z" fill="black"/>
<mask id="mask0_957_99" style="mask-type:luminance" maskUnits="userSpaceOnUse" x="12" y="12" width="40" height="40">
<path d="M51.2 12.8H12.8V51.2H51.2V12.8Z" fill="white"/>
</mask>
<g mask="url(#mask0_957_99)">
<path fill-rule="evenodd" clip-rule="evenodd" d="M32 12.8C21.392 12.8 12.8 21.392 12.8 32C12.8 40.496 18.296 47.672 25.928 50.216C26.888 50.384 27.248 49.808 27.248 49.304C27.248 48.848 27.224 47.336 27.224 45.728C22.4 46.616 21.152 44.552 20.768 43.472C20.552 42.92 19.616 41.216 18.8 40.76C18.128 40.4 17.168 39.512 18.776 39.488C20.288 39.464 21.368 40.88 21.728 41.456C23.456 44.36 26.216 43.544 27.32 43.04C27.488 41.792 27.992 40.952 28.544 40.472C24.272 39.992 19.808 38.336 19.808 30.992C19.808 28.904 20.552 27.176 21.776 25.832C21.584 25.352 20.912 23.384 21.968 20.744C21.968 20.744 23.576 20.24 27.248 22.712C28.784 22.28 30.416 22.064 32.048 22.064C33.68 22.064 35.312 22.28 36.848 22.712C40.52 20.216 42.128 20.744 42.128 20.744C43.184 23.384 42.512 25.352 42.32 25.832C43.544 27.176 44.288 28.88 44.288 30.992C44.288 38.36 39.8 39.992 35.528 40.472C36.224 41.072 36.824 42.224 36.824 44.024C36.824 46.592 36.8 48.656 36.8 49.304C36.8 49.808 37.16 50.408 38.12 50.216C45.704 47.672 51.2 40.472 51.2 32C51.2 21.392 42.608 12.8 32 12.8Z" fill="white"/>
</g>
</g>
<defs>
<clipPath id="clip0_957_99">
<rect width="64" height="64" rx="12" fill="white"/>
</clipPath>
</defs>
</svg>
