<svg width="64" height="64" viewBox="0 0 64 64" fill="none" xmlns="http://www.w3.org/2000/svg">
<rect width="64" height="64" rx="16" fill="white"/>
<rect x="0.75" y="0.75" width="62.5" height="62.5" rx="15.25" stroke="url(#paint0_linear_963_31)" stroke-opacity="0.32" stroke-width="1.5"/>
<g filter="url(#filter0_i_963_31)">
<path d="M29.5 40.25C29.5 39.5596 30.0596 39 30.75 39H33.75C34.4404 39 35 39.5596 35 40.25V64H29.5V40.25Z" fill="#46B3FC"/>
<path d="M40.25 35C39.5596 35 39 34.4404 39 33.75V30.75C39 30.0596 39.5596 29.5 40.25 29.5H64V35H40.25Z" fill="#46B3FC"/>
<path d="M22.5 22.5H40.84L40.5574 25.0439C39.9856 30.1894 40.276 35.3943 41.4164 40.4444L41.7 41.7L40.4444 41.4164C35.3943 40.276 30.1894 39.9856 25.0439 40.5574L22.5 40.84V22.5Z" fill="white" stroke="#46B3FC" stroke-width="5"/>
</g>
<defs>
<filter id="filter0_i_963_31" x="20" y="20" width="47" height="47" filterUnits="userSpaceOnUse" color-interpolation-filters="sRGB">
<feFlood flood-opacity="0" result="BackgroundImageFix"/>
<feBlend mode="normal" in="SourceGraphic" in2="BackgroundImageFix" result="shape"/>
<feColorMatrix in="SourceAlpha" type="matrix" values="0 0 0 0 0 0 0 0 0 0 0 0 0 0 0 0 0 0 127 0" result="hardAlpha"/>
<feOffset dx="3" dy="3"/>
<feGaussianBlur stdDeviation="1.5"/>
<feComposite in2="hardAlpha" operator="arithmetic" k2="-1" k3="1"/>
<feColorMatrix type="matrix" values="0 0 0 0 0.0941176 0 0 0 0 0.627451 0 0 0 0 0.984314 0 0 0 1 0"/>
<feBlend mode="normal" in2="shape" result="effect1_innerShadow_963_31"/>
</filter>
<linearGradient id="paint0_linear_963_31" x1="0.198417" y1="4.76492e-06" x2="63.8016" y2="64" gradientUnits="userSpaceOnUse">
<stop/>
<stop offset="1" stop-color="#46B3FC"/>
</linearGradient>
</defs>
</svg>
