<svg width="340" height="160" viewBox="0 0 340 160" fill="none" xmlns="http://www.w3.org/2000/svg">
<g clip-path="url(#clip0_1133_22)">
<rect width="340" height="160" fill="white"/>
<g opacity="0.9" filter="url(#filter0_f_1133_22)">
<path opacity="0.6" d="M-9.19521 -75.1537C-67.5736 -56.3241 -122.004 -8.46627 -137.377 47.4623C-151.44 98.6319 -108.531 138.782 -78.9953 178.804C-58.8555 206.099 -32.6109 227.408 2.12109 236.505C33.4746 244.716 65.8371 231.911 99.4354 225.539C151.731 215.622 214.285 229.965 249.462 189.601C287.152 146.35 284.98 83.1911 264.204 36.4662C244.395 -8.08448 192.611 -24.6707 145.666 -43.8365C96.1607 -64.0465 45.9438 -92.9393 -9.19521 -75.1537Z" fill="url(#paint0_linear_1133_22)"/>
</g>
<g opacity="0.6" filter="url(#filter1_f_1133_22)">
<path d="M250.399 -108.886C195.02 -89.637 151.717 -38.6894 134.522 23.4658C117.82 83.8393 134.052 147.54 164.812 200.492C195.269 252.925 240.386 296.344 295.961 301.384C350.343 306.316 397.684 268.793 435.9 225.079C474.16 181.317 507.97 127.296 501.368 66.4256C494.759 5.49686 450.3 -37.7262 403.879 -70.1518C357.038 -102.874 303.1 -127.203 250.399 -108.886Z" fill="url(#paint1_linear_1133_22)"/>
</g>
<path opacity="0.72" d="M107.122 75V60.4545H116.752V62.9901H110.197V66.456H116.113V68.9915H110.197V75H107.122ZM122.892 75.2131C121.789 75.2131 120.835 74.9787 120.03 74.5099C119.23 74.0365 118.612 73.3783 118.176 72.5355C117.741 71.688 117.523 70.7055 117.523 69.5881C117.523 68.4612 117.741 67.4763 118.176 66.6335C118.612 65.786 119.23 65.1278 120.03 64.6591C120.835 64.1856 121.789 63.9489 122.892 63.9489C123.995 63.9489 124.947 64.1856 125.747 64.6591C126.552 65.1278 127.173 65.786 127.608 66.6335C128.044 67.4763 128.262 68.4612 128.262 69.5881C128.262 70.7055 128.044 71.688 127.608 72.5355C127.173 73.3783 126.552 74.0365 125.747 74.5099C124.947 74.9787 123.995 75.2131 122.892 75.2131ZM122.906 72.8693C123.408 72.8693 123.827 72.7273 124.164 72.4432C124.5 72.1544 124.753 71.7614 124.923 71.2642C125.099 70.767 125.186 70.2012 125.186 69.5668C125.186 68.9323 125.099 68.3665 124.923 67.8693C124.753 67.3722 124.5 66.9792 124.164 66.6903C123.827 66.4015 123.408 66.2571 122.906 66.2571C122.4 66.2571 121.974 66.4015 121.628 66.6903C121.287 66.9792 121.029 67.3722 120.854 67.8693C120.683 68.3665 120.598 68.9323 120.598 69.5668C120.598 70.2012 120.683 70.767 120.854 71.2642C121.029 71.7614 121.287 72.1544 121.628 72.4432C121.974 72.7273 122.4 72.8693 122.906 72.8693ZM133.254 60.4545V75H130.229V60.4545H133.254ZM138.704 60.4545V75H135.678V60.4545H138.704ZM146.056 75.2131C144.953 75.2131 143.999 74.9787 143.194 74.5099C142.394 74.0365 141.776 73.3783 141.34 72.5355C140.905 71.688 140.687 70.7055 140.687 69.5881C140.687 68.4612 140.905 67.4763 141.34 66.6335C141.776 65.786 142.394 65.1278 143.194 64.6591C143.999 64.1856 144.953 63.9489 146.056 63.9489C147.16 63.9489 148.111 64.1856 148.911 64.6591C149.716 65.1278 150.337 65.786 150.772 66.6335C151.208 67.4763 151.426 68.4612 151.426 69.5881C151.426 70.7055 151.208 71.688 150.772 72.5355C150.337 73.3783 149.716 74.0365 148.911 74.5099C148.111 74.9787 147.16 75.2131 146.056 75.2131ZM146.07 72.8693C146.572 72.8693 146.991 72.7273 147.328 72.4432C147.664 72.1544 147.917 71.7614 148.088 71.2642C148.263 70.767 148.35 70.2012 148.35 69.5668C148.35 68.9323 148.263 68.3665 148.088 67.8693C147.917 67.3722 147.664 66.9792 147.328 66.6903C146.991 66.4015 146.572 66.2571 146.07 66.2571C145.564 66.2571 145.138 66.4015 144.792 66.6903C144.451 66.9792 144.193 67.3722 144.018 67.8693C143.847 68.3665 143.762 68.9323 143.762 69.5668C143.762 70.2012 143.847 70.767 144.018 71.2642C144.193 71.7614 144.451 72.1544 144.792 72.4432C145.138 72.7273 145.564 72.8693 146.07 72.8693ZM155.271 75L152.303 64.0909H155.364L157.054 71.4205H157.154L158.915 64.0909H161.919L163.709 71.3778H163.801L165.463 64.0909H168.517L165.556 75H162.352L160.477 68.1392H160.343L158.468 75H155.271ZM174.817 60.4545H178.61L182.615 70.2273H182.786L186.791 60.4545H190.584V75H187.601V65.5327H187.48L183.716 74.929H181.685L177.921 65.4972H177.8V75H174.817V60.4545ZM198.032 75.2131C196.91 75.2131 195.944 74.9858 195.135 74.5312C194.33 74.072 193.71 73.4233 193.274 72.5852C192.838 71.7424 192.621 70.7457 192.621 69.5952C192.621 68.473 192.838 67.4882 193.274 66.6406C193.71 65.7931 194.323 65.1326 195.113 64.6591C195.909 64.1856 196.842 63.9489 197.912 63.9489C198.631 63.9489 199.301 64.0649 199.922 64.2969C200.547 64.5241 201.091 64.8674 201.555 65.3267C202.024 65.786 202.389 66.3636 202.649 67.0597C202.909 67.7509 203.04 68.5606 203.04 69.4886V70.3196H193.828V68.4446H200.192C200.192 68.009 200.097 67.6231 199.907 67.2869C199.718 66.9508 199.455 66.688 199.119 66.4986C198.788 66.3045 198.402 66.2074 197.961 66.2074C197.502 66.2074 197.095 66.3139 196.74 66.527C196.39 66.7353 196.115 67.017 195.916 67.3722C195.717 67.7225 195.615 68.1132 195.611 68.544V70.3267C195.611 70.8665 195.71 71.3329 195.909 71.7259C196.113 72.1188 196.399 72.4219 196.768 72.6349C197.138 72.848 197.576 72.9545 198.082 72.9545C198.418 72.9545 198.726 72.9072 199.006 72.8125C199.285 72.7178 199.524 72.5758 199.723 72.3864C199.922 72.197 200.073 71.965 200.177 71.6903L202.976 71.875C202.834 72.5473 202.542 73.1345 202.102 73.6364C201.666 74.1335 201.103 74.5218 200.412 74.8011C199.725 75.0758 198.932 75.2131 198.032 75.2131ZM214.572 75.2131C213.469 75.2131 212.515 74.9787 211.71 74.5099C210.91 74.0365 210.292 73.3783 209.856 72.5355C209.42 71.688 209.203 70.7055 209.203 69.5881C209.203 68.4612 209.42 67.4763 209.856 66.6335C210.292 65.786 210.91 65.1278 211.71 64.6591C212.515 64.1856 213.469 63.9489 214.572 63.9489C215.675 63.9489 216.627 64.1856 217.427 64.6591C218.232 65.1278 218.852 65.786 219.288 66.6335C219.723 67.4763 219.941 68.4612 219.941 69.5881C219.941 70.7055 219.723 71.688 219.288 72.5355C218.852 73.3783 218.232 74.0365 217.427 74.5099C216.627 74.9787 215.675 75.2131 214.572 75.2131ZM214.586 72.8693C215.088 72.8693 215.507 72.7273 215.843 72.4432C216.179 72.1544 216.433 71.7614 216.603 71.2642C216.778 70.767 216.866 70.2012 216.866 69.5668C216.866 68.9323 216.778 68.3665 216.603 67.8693C216.433 67.3722 216.179 66.9792 215.843 66.6903C215.507 66.4015 215.088 66.2571 214.586 66.2571C214.079 66.2571 213.653 66.4015 213.308 66.6903C212.967 66.9792 212.709 67.3722 212.534 67.8693C212.363 68.3665 212.278 68.9323 212.278 69.5668C212.278 70.2012 212.363 70.767 212.534 71.2642C212.709 71.7614 212.967 72.1544 213.308 72.4432C213.653 72.7273 214.079 72.8693 214.586 72.8693ZM224.934 68.6932V75H221.909V64.0909H224.792V66.0156H224.92C225.161 65.3812 225.566 64.8793 226.134 64.5099C226.703 64.1359 227.392 63.9489 228.201 63.9489C228.959 63.9489 229.619 64.1146 230.183 64.446C230.746 64.7775 231.184 65.2509 231.497 65.8665C231.809 66.4773 231.965 67.2064 231.965 68.054V75H228.94V68.5938C228.945 67.9261 228.774 67.4053 228.428 67.0312C228.083 66.6525 227.607 66.4631 227.001 66.4631C226.594 66.4631 226.234 66.5507 225.921 66.7259C225.614 66.901 225.372 67.1567 225.197 67.4929C225.026 67.8243 224.939 68.2244 224.934 68.6932ZM116.526 88.6378C116.469 88.0649 116.225 87.6198 115.794 87.3026C115.364 86.9853 114.779 86.8267 114.04 86.8267C113.538 86.8267 113.114 86.8977 112.769 87.0398C112.423 87.1771 112.158 87.3688 111.973 87.6151C111.793 87.8613 111.703 88.1406 111.703 88.4531C111.694 88.7135 111.748 88.9408 111.867 89.1349C111.99 89.3291 112.158 89.4972 112.371 89.6392C112.584 89.7765 112.83 89.8973 113.11 90.0014C113.389 90.1009 113.687 90.1861 114.005 90.2571L115.311 90.5696C115.946 90.7116 116.528 90.901 117.059 91.1378C117.589 91.3745 118.048 91.6657 118.436 92.0114C118.825 92.357 119.125 92.7642 119.338 93.233C119.556 93.7017 119.667 94.2391 119.672 94.8452C119.667 95.7353 119.44 96.5071 118.99 97.1605C118.545 97.8092 117.901 98.3134 117.059 98.6733C116.221 99.0284 115.21 99.206 114.026 99.206C112.852 99.206 111.829 99.026 110.958 98.6662C110.091 98.3063 109.414 97.7737 108.926 97.0682C108.444 96.358 108.19 95.4796 108.167 94.4332H111.142C111.176 94.9209 111.315 95.3281 111.561 95.6548C111.812 95.9768 112.146 96.2206 112.563 96.3864C112.984 96.5473 113.46 96.6278 113.99 96.6278C114.511 96.6278 114.963 96.5521 115.347 96.4006C115.735 96.2491 116.036 96.0384 116.249 95.7685C116.462 95.4986 116.569 95.1884 116.569 94.8381C116.569 94.5114 116.471 94.2367 116.277 94.0142C116.088 93.7917 115.809 93.6023 115.439 93.446C115.075 93.2898 114.627 93.1477 114.097 93.0199L112.513 92.6222C111.287 92.3239 110.319 91.8575 109.608 91.223C108.898 90.5885 108.545 89.7339 108.55 88.6591C108.545 87.7784 108.78 87.009 109.253 86.3509C109.731 85.6927 110.387 85.179 111.221 84.8097C112.054 84.4403 113.001 84.2557 114.061 84.2557C115.141 84.2557 116.083 84.4403 116.888 84.8097C117.698 85.179 118.328 85.6927 118.777 86.3509C119.227 87.009 119.459 87.7713 119.473 88.6378H116.526ZM126.613 99.2131C125.51 99.2131 124.556 98.9787 123.751 98.5099C122.951 98.0365 122.333 97.3783 121.897 96.5355C121.461 95.688 121.244 94.7055 121.244 93.5881C121.244 92.4612 121.461 91.4763 121.897 90.6335C122.333 89.786 122.951 89.1278 123.751 88.6591C124.556 88.1856 125.51 87.9489 126.613 87.9489C127.716 87.9489 128.668 88.1856 129.468 88.6591C130.273 89.1278 130.893 89.786 131.329 90.6335C131.764 91.4763 131.982 92.4612 131.982 93.5881C131.982 94.7055 131.764 95.688 131.329 96.5355C130.893 97.3783 130.273 98.0365 129.468 98.5099C128.668 98.9787 127.716 99.2131 126.613 99.2131ZM126.627 96.8693C127.129 96.8693 127.548 96.7273 127.884 96.4432C128.22 96.1544 128.474 95.7614 128.644 95.2642C128.819 94.767 128.907 94.2012 128.907 93.5668C128.907 92.9323 128.819 92.3665 128.644 91.8693C128.474 91.3722 128.22 90.9792 127.884 90.6903C127.548 90.4015 127.129 90.2571 126.627 90.2571C126.121 90.2571 125.694 90.4015 125.349 90.6903C125.008 90.9792 124.75 91.3722 124.575 91.8693C124.404 92.3665 124.319 92.9323 124.319 93.5668C124.319 94.2012 124.404 94.767 124.575 95.2642C124.75 95.7614 125.008 96.1544 125.349 96.4432C125.694 96.7273 126.121 96.8693 126.627 96.8693ZM138.879 99.2131C137.761 99.2131 136.8 98.9763 135.995 98.5028C135.195 98.0246 134.579 97.3617 134.148 96.5142C133.722 95.6667 133.509 94.6913 133.509 93.5881C133.509 92.4706 133.725 91.4905 134.156 90.6477C134.591 89.8002 135.209 89.1397 136.009 88.6662C136.809 88.188 137.761 87.9489 138.864 87.9489C139.816 87.9489 140.649 88.1217 141.364 88.4673C142.079 88.813 142.645 89.2983 143.062 89.9233C143.478 90.5483 143.708 91.2822 143.751 92.125H140.896C140.815 91.5805 140.602 91.1425 140.256 90.8111C139.915 90.4749 139.468 90.3068 138.914 90.3068C138.445 90.3068 138.036 90.4347 137.685 90.6903C137.34 90.9413 137.07 91.3082 136.876 91.7912C136.682 92.2741 136.585 92.8589 136.585 93.5455C136.585 94.2415 136.679 94.8333 136.869 95.321C137.063 95.8087 137.335 96.1804 137.685 96.4361C138.036 96.6918 138.445 96.8196 138.914 96.8196C139.26 96.8196 139.57 96.7486 139.844 96.6065C140.124 96.4645 140.353 96.2585 140.533 95.9886C140.718 95.714 140.839 95.3849 140.896 95.0014H143.751C143.703 95.8348 143.476 96.5687 143.069 97.2031C142.666 97.8329 142.11 98.3253 141.4 98.6804C140.69 99.0355 139.849 99.2131 138.879 99.2131ZM145.688 99V88.0909H148.713V99H145.688ZM147.208 86.6847C146.758 86.6847 146.372 86.5355 146.05 86.2372C145.733 85.9342 145.574 85.572 145.574 85.1506C145.574 84.7339 145.733 84.3764 146.05 84.0781C146.372 83.7751 146.758 83.6236 147.208 83.6236C147.658 83.6236 148.041 83.7751 148.358 84.0781C148.68 84.3764 148.841 84.7339 148.841 85.1506C148.841 85.572 148.68 85.9342 148.358 86.2372C148.041 86.5355 147.658 86.6847 147.208 86.6847ZM154.248 99.206C153.552 99.206 152.932 99.0852 152.387 98.8438C151.843 98.5975 151.412 98.2353 151.094 97.7571C150.782 97.2741 150.626 96.6728 150.626 95.9531C150.626 95.3471 150.737 94.8381 150.96 94.4261C151.182 94.0142 151.485 93.6828 151.869 93.4318C152.252 93.1809 152.688 92.9915 153.175 92.8636C153.668 92.7358 154.184 92.6458 154.724 92.5938C155.358 92.5275 155.87 92.4659 156.258 92.4091C156.646 92.3475 156.928 92.2576 157.103 92.1392C157.278 92.0208 157.366 91.8456 157.366 91.6136V91.571C157.366 91.1212 157.224 90.7732 156.94 90.527C156.66 90.2808 156.263 90.1577 155.746 90.1577C155.202 90.1577 154.769 90.2784 154.447 90.5199C154.125 90.7566 153.912 91.0549 153.808 91.4148L151.009 91.1875C151.151 90.5246 151.431 89.9517 151.847 89.4688C152.264 88.9811 152.801 88.607 153.46 88.3466C154.122 88.0814 154.889 87.9489 155.761 87.9489C156.367 87.9489 156.947 88.0199 157.501 88.1619C158.059 88.304 158.554 88.5241 158.985 88.8224C159.421 89.1207 159.764 89.5043 160.015 89.973C160.266 90.437 160.391 90.9934 160.391 91.642V99H157.522V97.4872H157.437C157.262 97.8281 157.027 98.1288 156.734 98.3892C156.44 98.6449 156.087 98.8461 155.675 98.9929C155.263 99.1349 154.788 99.206 154.248 99.206ZM155.114 97.1179C155.559 97.1179 155.952 97.0303 156.293 96.8551C156.634 96.6752 156.902 96.4337 157.096 96.1307C157.29 95.8277 157.387 95.4844 157.387 95.1009V93.9432C157.292 94.0047 157.162 94.0616 156.996 94.1136C156.835 94.161 156.653 94.206 156.45 94.2486C156.246 94.2865 156.042 94.322 155.839 94.3551C155.635 94.3835 155.451 94.4096 155.285 94.4332C154.93 94.4853 154.62 94.5682 154.354 94.6818C154.089 94.7955 153.883 94.9493 153.737 95.1435C153.59 95.3329 153.516 95.5696 153.516 95.8537C153.516 96.2656 153.665 96.5805 153.964 96.7983C154.267 97.0114 154.65 97.1179 155.114 97.1179ZM165.764 84.4545V99H162.739V84.4545H165.764ZM172.874 84.4545H176.666L180.672 94.2273H180.842L184.848 84.4545H188.641V99H185.658V89.5327H185.537L181.773 98.929H179.741L175.977 89.4972H175.857V99H172.874V84.4545ZM196.089 99.2131C194.967 99.2131 194.001 98.9858 193.191 98.5312C192.386 98.072 191.766 97.4233 191.331 96.5852C190.895 95.7424 190.677 94.7457 190.677 93.5952C190.677 92.473 190.895 91.4882 191.331 90.6406C191.766 89.7931 192.379 89.1326 193.17 88.6591C193.966 88.1856 194.898 87.9489 195.968 87.9489C196.688 87.9489 197.358 88.0649 197.978 88.2969C198.603 88.5241 199.148 88.8674 199.612 89.3267C200.081 89.786 200.445 90.3636 200.706 91.0597C200.966 91.7509 201.096 92.5606 201.096 93.4886V94.3196H191.885V92.4446H198.248C198.248 92.009 198.154 91.6231 197.964 91.2869C197.775 90.9508 197.512 90.688 197.176 90.4986C196.844 90.3045 196.458 90.2074 196.018 90.2074C195.559 90.2074 195.152 90.3139 194.797 90.527C194.446 90.7353 194.172 91.017 193.973 91.3722C193.774 91.7225 193.672 92.1132 193.667 92.544V94.3267C193.667 94.8665 193.767 95.3329 193.966 95.7259C194.169 96.1188 194.456 96.4219 194.825 96.6349C195.194 96.848 195.632 96.9545 196.139 96.9545C196.475 96.9545 196.783 96.9072 197.062 96.8125C197.342 96.7178 197.581 96.5758 197.779 96.3864C197.978 96.197 198.13 95.965 198.234 95.6903L201.032 95.875C200.89 96.5473 200.599 97.1345 200.159 97.6364C199.723 98.1335 199.16 98.5218 198.468 98.8011C197.782 99.0758 196.989 99.2131 196.089 99.2131ZM207.091 99.1776C206.262 99.1776 205.511 98.9645 204.839 98.5384C204.172 98.1075 203.641 97.4754 203.248 96.642C202.86 95.804 202.666 94.7765 202.666 93.5597C202.666 92.3097 202.867 91.2704 203.27 90.4418C203.672 89.6084 204.207 88.9858 204.875 88.5739C205.547 88.1572 206.283 87.9489 207.083 87.9489C207.694 87.9489 208.203 88.053 208.61 88.2614C209.022 88.465 209.354 88.7206 209.605 89.0284C209.86 89.3314 210.055 89.6297 210.187 89.9233H210.279V84.4545H213.298V99H210.315V97.2528H210.187C210.045 97.5559 209.844 97.8565 209.583 98.1548C209.328 98.4484 208.994 98.6922 208.582 98.8864C208.175 99.0805 207.678 99.1776 207.091 99.1776ZM208.049 96.7699C208.537 96.7699 208.949 96.6373 209.285 96.3722C209.626 96.1023 209.886 95.7259 210.066 95.2429C210.251 94.7599 210.343 94.1941 210.343 93.5455C210.343 92.8968 210.253 92.3333 210.074 91.8551C209.894 91.3769 209.633 91.0076 209.292 90.7472C208.951 90.4867 208.537 90.3565 208.049 90.3565C207.552 90.3565 207.133 90.4915 206.792 90.7614C206.451 91.0312 206.193 91.4053 206.018 91.8835C205.843 92.3617 205.755 92.9157 205.755 93.5455C205.755 94.1799 205.843 94.741 206.018 95.2287C206.198 95.7116 206.456 96.0904 206.792 96.3651C207.133 96.6349 207.552 96.7699 208.049 96.7699ZM215.786 99V88.0909H218.811V99H215.786ZM217.305 86.6847C216.856 86.6847 216.47 86.5355 216.148 86.2372C215.83 85.9342 215.672 85.572 215.672 85.1506C215.672 84.7339 215.83 84.3764 216.148 84.0781C216.47 83.7751 216.856 83.6236 217.305 83.6236C217.755 83.6236 218.139 83.7751 218.456 84.0781C218.778 84.3764 218.939 84.7339 218.939 85.1506C218.939 85.572 218.778 85.9342 218.456 86.2372C218.139 86.5355 217.755 86.6847 217.305 86.6847ZM224.346 99.206C223.65 99.206 223.029 99.0852 222.485 98.8438C221.94 98.5975 221.509 98.2353 221.192 97.7571C220.88 97.2741 220.723 96.6728 220.723 95.9531C220.723 95.3471 220.835 94.8381 221.057 94.4261C221.28 94.0142 221.583 93.6828 221.966 93.4318C222.35 93.1809 222.785 92.9915 223.273 92.8636C223.766 92.7358 224.282 92.6458 224.821 92.5938C225.456 92.5275 225.967 92.4659 226.355 92.4091C226.744 92.3475 227.025 92.2576 227.201 92.1392C227.376 92.0208 227.463 91.8456 227.463 91.6136V91.571C227.463 91.1212 227.321 90.7732 227.037 90.527C226.758 90.2808 226.36 90.1577 225.844 90.1577C225.3 90.1577 224.866 90.2784 224.544 90.5199C224.222 90.7566 224.009 91.0549 223.905 91.4148L221.107 91.1875C221.249 90.5246 221.528 89.9517 221.945 89.4688C222.362 88.9811 222.899 88.607 223.557 88.3466C224.22 88.0814 224.987 87.9489 225.858 87.9489C226.464 87.9489 227.044 88.0199 227.598 88.1619C228.157 88.304 228.652 88.5241 229.083 88.8224C229.518 89.1207 229.862 89.5043 230.113 89.973C230.364 90.437 230.489 90.9934 230.489 91.642V99H227.62V97.4872H227.534C227.359 97.8281 227.125 98.1288 226.831 98.3892C226.538 98.6449 226.185 98.8461 225.773 98.9929C225.361 99.1349 224.885 99.206 224.346 99.206ZM225.212 97.1179C225.657 97.1179 226.05 97.0303 226.391 96.8551C226.732 96.6752 226.999 96.4337 227.194 96.1307C227.388 95.8277 227.485 95.4844 227.485 95.1009V93.9432C227.39 94.0047 227.26 94.0616 227.094 94.1136C226.933 94.161 226.751 94.206 226.547 94.2486C226.344 94.2865 226.14 94.322 225.936 94.3551C225.733 94.3835 225.548 94.4096 225.382 94.4332C225.027 94.4853 224.717 94.5682 224.452 94.6818C224.187 94.7955 223.981 94.9493 223.834 95.1435C223.687 95.3329 223.614 95.5696 223.614 95.8537C223.614 96.2656 223.763 96.5805 224.061 96.7983C224.364 97.0114 224.748 97.1179 225.212 97.1179Z" fill="black"/>
</g>
<defs>
<filter id="filter0_f_1133_22" x="-290.131" y="-230.704" width="719.146" height="619.873" filterUnits="userSpaceOnUse" color-interpolation-filters="sRGB">
<feFlood flood-opacity="0" result="BackgroundImageFix"/>
<feBlend mode="normal" in="SourceGraphic" in2="BackgroundImageFix" result="shape"/>
<feGaussianBlur stdDeviation="75" result="effect1_foregroundBlur_1133_22"/>
</filter>
<filter id="filter1_f_1133_22" x="15.832" y="-227.179" width="598.365" height="641" filterUnits="userSpaceOnUse" color-interpolation-filters="sRGB">
<feFlood flood-opacity="0" result="BackgroundImageFix"/>
<feBlend mode="normal" in="SourceGraphic" in2="BackgroundImageFix" result="shape"/>
<feGaussianBlur stdDeviation="56" result="effect1_foregroundBlur_1133_22"/>
</filter>
<linearGradient id="paint0_linear_1133_22" x1="-93.9919" y1="97.9161" x2="192.724" y2="77.892" gradientUnits="userSpaceOnUse">
<stop stop-color="#24FF00"/>
<stop offset="1" stop-color="#99AFFF"/>
</linearGradient>
<linearGradient id="paint1_linear_1133_22" x1="242.284" y1="31.9974" x2="678.796" y2="131.439" gradientUnits="userSpaceOnUse">
<stop stop-color="#FFCD1B"/>
<stop offset="1" stop-color="#FFE8C7"/>
</linearGradient>
<clipPath id="clip0_1133_22">
<rect width="340" height="160" fill="white"/>
</clipPath>
</defs>
</svg>
